<svg xmlns="http://www.w3.org/2000/svg" id="Duotone" viewBox="0 0 100 112"><defs><style>.cls-1{fill:#fff;}.cls-2{fill:none;}.cls-2,.cls-4,.cls-6{stroke:#999;stroke-linecap:round;stroke-linejoin:round;}.cls-3,.cls-6{fill:#fff;}.cls-4,.cls-5{fill:#d6daff;}</style></defs><title/><g xmlns="http://www.w3.org/2000/svg" id="Icons"><g id="Background"><path class="cls-1" d="M90,56A40,40,0,1,0,13.56,72.5H86.44A39.85,39.85,0,0,0,90,56Z"/></g><g id="Scene"><rect class="cls-3" x="57.25" y="33.88" width="19.55" height="40.25"/><rect class="cls-2" x="57.25" y="33.88" width="19.55" height="40.25"/><rect class="cls-4" x="60.7" y="38.48" width="3.45" height="2.88"/><rect class="cls-4" x="71.62" y="38.48" width="2.88" height="2.88"/><rect class="cls-4" x="60.7" y="44.23" width="3.45" height="2.88"/><rect class="cls-4" x="71.62" y="44.23" width="2.88" height="2.88"/><rect class="cls-4" x="60.7" y="49.98" width="3.45" height="2.88"/><rect class="cls-4" x="71.62" y="49.98" width="2.88" height="2.88"/><rect class="cls-4" x="60.7" y="55.73" width="3.45" height="2.88"/><rect class="cls-4" x="71.62" y="55.73" width="2.88" height="2.88"/><rect class="cls-4" x="60.7" y="61.48" width="3.45" height="2.88"/><rect class="cls-4" x="71.62" y="61.48" width="2.88" height="2.88"/><line class="cls-2" x1="68.17" y1="74.13" x2="68.17" y2="38.48"/><line class="cls-2" x1="52.65" y1="22.08" x2="29.07" y2="16.06"/><line class="cls-2" x1="16.82" y1="22.08" x2="29.07" y2="16.06"/><polygon class="cls-5" points="33.26 24.82 34.63 29.61 25.04 29.61 25.04 24.82 33.26 24.82"/><polygon class="cls-3" points="30.7 24.82 25.04 24.82 25.04 29.61 27.21 29.61 30.7 24.82"/><rect class="cls-6" x="13.4" y="22.08" width="40.4" height="2.74" rx="1" ry="1" transform="translate(67.2 46.91) rotate(180)"/><rect class="cls-6" x="26.41" y="32.35" width="5.48" height="41.78" transform="translate(58.3 106.49) rotate(180)"/><path class="cls-6" d="M27.18,22.08h3.93a.57.57,0,0,0,.55-.74l-1.41-4.59a1.15,1.15,0,0,0-2.2,0l-1.41,4.59A.57.57,0,0,0,27.18,22.08Z"/><path class="cls-4" d="M34.05,32.35H25.62a.57.57,0,0,1-.58-.57V29.61h9.59v2.17A.57.57,0,0,1,34.05,32.35Z"/><polygon class="cls-2" points="33.26 24.82 34.63 29.61 25.04 29.61 25.04 24.82 33.26 24.82"/><path class="cls-4" d="M46.64,24.82h3.48a1,1,0,0,1,1,1v1.74a0,0,0,0,1,0,0H45.64a0,0,0,0,1,0,0V25.82A1,1,0,0,1,46.64,24.82Z" transform="translate(96.76 52.38) rotate(180)"/><circle class="cls-4" cx="48.38" cy="28.93" r="1.37"/><line class="cls-2" x1="31.89" y1="45.36" x2="26.41" y2="50.84"/><line class="cls-2" x1="26.41" y1="45.36" x2="31.89" y2="50.84"/><line class="cls-2" x1="31.89" y1="51.52" x2="26.41" y2="57"/><line class="cls-2" x1="26.41" y1="51.52" x2="31.89" y2="57"/><line class="cls-2" x1="31.89" y1="57.16" x2="26.41" y2="62.63"/><line class="cls-2" x1="26.41" y1="57.16" x2="31.89" y2="62.63"/><line class="cls-2" x1="31.89" y1="62.91" x2="26.41" y2="68.38"/><line class="cls-2" x1="26.41" y1="62.91" x2="31.89" y2="68.38"/><line class="cls-2" x1="31.89" y1="39.2" x2="26.41" y2="44.68"/><line class="cls-2" x1="26.41" y1="39.2" x2="31.89" y2="44.68"/><line class="cls-2" x1="31.89" y1="33.04" x2="26.41" y2="38.52"/><line class="cls-2" x1="26.41" y1="33.04" x2="31.89" y2="38.52"/><path class="cls-4" d="M16.35,71.83H35.47a.5.5,0,0,1,.5.5v1.8a0,0,0,0,1,0,0H15.85a0,0,0,0,1,0,0v-1.8A.5.5,0,0,1,16.35,71.83Z"/><path class="cls-4" d="M26.12,69.53H32.6a.5.5,0,0,1,.5.5v1.8a0,0,0,0,1,0,0H25.62a0,0,0,0,1,0,0V70A.5.5,0,0,1,26.12,69.53Z"/><polygon class="cls-2" points="48.38 30.3 44.36 33.89 52.41 33.89 48.38 30.3"/><path class="cls-4" d="M44.36,33.89h8.05a0,0,0,0,1,0,0v1.3a1,1,0,0,1-1,1H45.36a1,1,0,0,1-1-1v-1.3A0,0,0,0,1,44.36,33.89Z"/><rect class="cls-4" x="43.45" y="70.11" width="13.8" height="4.02"/></g></g></svg>