<svg xmlns="http://www.w3.org/2000/svg" id="Duotone" viewBox="0 0 100 112"><defs><style>.cls-1{fill:#f80;}.cls-2{fill:none;}.cls-2,.cls-3,.cls-5,.cls-6{stroke:#fff;stroke-linejoin:round;}.cls-2,.cls-3,.cls-5{stroke-linecap:round;}.cls-3,.cls-4{fill:#fff;}.cls-5,.cls-6{fill:#f80;}</style></defs><title></title><g id="Icons">
<circle class="cls-1" cx="50" cy="56" r="40"/>
<polygon class="cls-3" points="63.32 50.82 38.48 50.82 35.03 45.99 66.77 45.99 63.32 50.82"/><rect class="cls-4" x="40.55" y="45.99" width="20.7" height="24.84"/><rect class="cls-2" x="40.55" y="45.99" width="20.7" height="24.84"/><rect class="cls-3" x="35.03" y="41.85" width="31.74" height="4.14"/><path class="cls-3" d="M37.41,70.83h27a1,1,0,0,1,1,1V75a0,0,0,0,1,0,0h-29a0,0,0,0,1,0,0V71.83A1,1,0,0,1,37.41,70.83Z"/><path class="cls-3" d="M68.15,40.47a1.38,1.38,0,0,1-1.38,1.38H35a1.38,1.38,0,1,1,0-2.76H66.77A1.38,1.38,0,0,1,68.15,40.47Z"/><path class="cls-2" d="M43.31,46H58.49a0,0,0,0,1,0,0V67.07a1,1,0,0,1-1,1H44.31a1,1,0,0,1-1-1V46A0,0,0,0,1,43.31,46Z"/><circle class="cls-5" cx="50.9" cy="56.34" r="4.83"/><line class="cls-2" x1="50.9" y1="32.19" x2="50.9" y2="39.09"/><path class="cls-2" d="M61.34,33.57a12.45,12.45,0,0,1,1.29,5.52"/><path class="cls-3" d="M53,29.43a2.07,2.07,0,0,0-4.14,0v.69a2.07,2.07,0,0,0,4.14,0Z"/><path class="cls-3" d="M61.73,30.15a2.07,2.07,0,1,0-3.62,2l.33.6a2.07,2.07,0,0,0,3.63-2Z"/><path class="cls-2" d="M40.46,33.57a12.32,12.32,0,0,0-1.29,5.52"/><path class="cls-3" d="M40.06,30.15a2.07,2.07,0,0,1,3.63,2l-.33.6a2.07,2.07,0,0,1-3.63-2Z"/></g></svg>