<svg id="Duotone" xmlns="http://www.w3.org/2000/svg" viewBox="0 0 100 112"><defs><style>.cls-1{fill:#fff;}.cls-2,.cls-7{fill:#d6daff;}.cls-3,.cls-4,.cls-8{fill:#fff;}.cls-3,.cls-5,.cls-6,.cls-7,.cls-8{stroke:#999;stroke-linejoin:round;}.cls-5,.cls-6{fill:none;}.cls-6,.cls-8{stroke-linecap:round;}</style></defs><title></title><g id="Icons"><g id="Background"><circle class="cls-1" cx="50.5" cy="56.08" r="40"/></g><g id="Scene">
<rect class="cls-3" x="27.97" y="33.13" width="46.2" height="38.94" rx="2.4" ry="2.4"/><path class="cls-2" d="M30.37,33.13h41.4a2.4,2.4,0,0,1,2.4,2.4V45a0,0,0,0,1,0,0H28a0,0,0,0,1,0,0V35.53A2.4,2.4,0,0,1,30.37,33.13Z"/><path class="cls-4" d="M74.17,52.93v16.5a2.64,2.64,0,0,1-2.64,2.64H53.05S63.61,68.77,74.17,52.93Z"/><path class="cls-5" d="M74.17,52.93v16.5a2.64,2.64,0,0,1-2.64,2.64H53.05S63.61,68.77,74.17,52.93Z"/><path class="cls-5" d="M30.37,33.13h41.4a2.4,2.4,0,0,1,2.4,2.4V45a0,0,0,0,1,0,0H28a0,0,0,0,1,0,0V35.53A2.4,2.4,0,0,1,30.37,33.13Z"/><path class="cls-6" d="M37.87,37.09a4,4,0,1,1,4-4"/><path class="cls-6" d="M51.73,37.09a4,4,0,1,1,4-4"/><path class="cls-6" d="M65.59,37.09a4,4,0,1,1,4-4"/><line class="cls-6" x1="27.97" y1="51.61" x2="74.17" y2="51.61"/><line class="cls-6" x1="27.97" y1="58.21" x2="55.58" y2="58.21"/><line class="cls-6" x1="27.97" y1="64.81" x2="55.58" y2="64.81"/><line class="cls-6" x1="37.21" y1="45.01" x2="37.21" y2="72.07"/><line class="cls-6" x1="46.45" y1="45.01" x2="46.45" y2="72.07"/><line class="cls-6" x1="55.69" y1="45.01" x2="55.69" y2="53.97"/><line class="cls-6" x1="64.93" y1="45.01" x2="64.93" y2="55.17"/><rect class="cls-7" x="27.97" y="51.61" width="9.24" height="6.6"/><rect class="cls-7" x="37.21" y="64.81" width="9.24" height="7.26"/><rect class="cls-7" x="46.45" y="45.01" width="9.24" height="6.6"/><path class="cls-8" d="M74.17,52.93C63.61,68.77,53.05,72.07,53.05,72.07A21.34,21.34,0,0,0,54.72,54.6a.55.55,0,0,1,.65-.72C58.42,54.71,67.62,56.75,74.17,52.93Z"/><line class="cls-6" x1="44.47" y1="41.05" x2="57.67" y2="41.05"/><line class="cls-6" x1="64.93" y1="41.05" x2="70.21" y2="41.05"/><line class="cls-6" x1="37.21" y1="41.05" x2="31.93" y2="41.05"/></g></g></svg>