<?xml version="1.0" encoding="utf-8"?>
<!-- Generator: Adobe Illustrator 16.0.3, SVG Export Plug-In . SVG Version: 6.00 Build 0)  -->
<!DOCTYPE svg PUBLIC "-//W3C//DTD SVG 1.1//EN" "http://www.w3.org/Graphics/SVG/1.1/DTD/svg11.dtd">
<svg version="1.1" xmlns="http://www.w3.org/2000/svg" xmlns:xlink="http://www.w3.org/1999/xlink" x="0px" y="0px" width="24px"
	 height="24px" viewBox="0 0 24 24" enable-background="new 0 0 24 24" xml:space="preserve">
<g id="Outline_Icons_1_">
	<g id="Outline_Icons">
	</g>
	<g id="New_icons_1_">
		<g>
			<g>
				<path fill="none" stroke="#333" stroke-linejoin="round" stroke-miterlimit="10" d="M22.375,16.417l1.072-0.619l-1.5-2.598
					l-1.081,0.624c-0.53-0.486-1.164-0.847-1.866-1.07V11.5h-3v1.254c-0.702,0.223-1.336,0.584-1.866,1.07l-1.081-0.624l-1.5,2.598
					l1.072,0.619c-0.166,0.749-0.167,1.414,0,2.166l-1.07,0.618l1.5,2.598l1.079-0.623c0.53,0.485,1.164,0.847,1.866,1.069V23.5h3
					v-1.254c0.702-0.222,1.336-0.584,1.866-1.069l1.079,0.623l1.5-2.598l-1.07-0.618C22.542,17.832,22.541,17.166,22.375,16.417z"/>
				<circle fill="none" stroke="#333" stroke-linejoin="round" stroke-miterlimit="10" cx="17.5" cy="17.5" r="2"/>
			</g>
			<g>
				<polyline fill="none" stroke="#333" stroke-linecap="round" stroke-linejoin="round" stroke-miterlimit="10" points="
					20.5,10 20.5,2.5 16.5,2.5 				"/>
				<polyline fill="none" stroke="#333" stroke-linecap="round" stroke-linejoin="round" stroke-miterlimit="10" points="
					4.5,2.5 0.5,2.5 0.5,18.5 9.5,18.5 				"/>
				
					<rect x="4.5" y="0.5" fill="none" stroke="#333" stroke-linecap="round" stroke-linejoin="round" stroke-miterlimit="10" width="3" height="4"/>
				
					<rect x="13.5" y="0.5" fill="none" stroke="#333" stroke-linecap="round" stroke-linejoin="round" stroke-miterlimit="10" width="3" height="4"/>
				
					<line fill="none" stroke="#333" stroke-linecap="round" stroke-linejoin="round" stroke-miterlimit="10" x1="7.5" y1="2.5" x2="13.5" y2="2.5"/>
				
					<line fill="none" stroke="#333" stroke-linecap="round" stroke-linejoin="round" stroke-miterlimit="10" x1="0.5" y1="7.5" x2="20.5" y2="7.5"/>
			</g>
		</g>
	</g>
</g>
<g id="Invisible_Shape">
	<rect fill="none" width="24" height="24"/>
</g>
</svg>
