<svg width="50" height="70" xmlns="http://www.w3.org/2000/svg">
 <g>
  <title></title>
  <rect fill="none" id="canvas_background" height="72" width="52" y="-1" x="-1"/>
  <g display="none" overflow="visible" y="0" x="0" height="100%" width="100%" id="canvasGrid">
  </g>
 </g>
 <g>
  <title></title>
  <defs>
   <style>.cls-1{fill:#f0f2ff;}.cls-2{fill:none;}.cls-3{fill:#fff;}.cls-4,.cls-5{fill:#fff;stroke:none;stroke-linejoin:round;}.cls-4{stroke-linecap:round;}</style>
  </defs>
  <g id="svg_7">
   <path id="svg_5" d="m40.892227,40.377741a3.555556,3.555556 0 0 0 -5.013334,0l-5.493334,5.475556l0,-32.302224a4.444445,4.444445 0 0 0 -8.888889,0l0,32.302224l-5.493334,-5.475556a3.555556,3.555556 0 0 0 -5.013334,5.031111l12.444445,12.444445a3.555556,3.555556 0 0 0 5.013334,0l12.444445,-12.444445a3.555556,3.555556 0 0 0 0,-5.031111z" class="cls-2"/>
   <path id="svg_6" d="m40.892227,40.377741a3.555556,3.555556 0 0 0 -5.013334,0l-5.493334,5.475556l0,-32.302224a4.444445,4.444445 0 0 0 -8.888889,0l0,32.302224l-5.493334,-5.475556a3.555556,3.555556 0 0 0 -5.013334,5.031111l12.444445,12.444445a3.555556,3.555556 0 0 0 5.013334,0l12.444445,-12.444445a3.555556,3.555556 0 0 0 0,-5.031111z" class="cls-5"/>
  </g>
 </g>
</svg>