<svg xmlns="http://www.w3.org/2000/svg" width="40" height="40" viewBox="0 0 29 21">
    <title>Finish to Finish</title>
    <g fill="none" fill-rule="evenodd">
        <path d="M8 13v7H0v-7h8zm1-1H0v9h9v-9z" fill="#999"/>
        <path fill="#fff" stroke-linecap="round" stroke-linejoin="round" d="M8 13H0v7h8z"/>
        <path fill="#999" stroke-linecap="round" stroke-linejoin="round" d="M8 1v7H0V1h8zm1-1H0v9h9V0z"/>
        <path fill="#fff" stroke-linecap="round" stroke-linejoin="round" d="M8 1H0v7h8z"/>
        <path fill="#000" stroke-linecap="round" stroke-linejoin="round" d="M8 4h9v1H8zM16 5h1v11h-1z"/>
        <g fill="#000">
            <path stroke-linecap="round" stroke-linejoin="round" d="M9 16h8v1H9zM11 14h1v1h-1zM12 13h1v1h-1zM10 15h1v1h-1z"/>
            <path stroke-linecap="round" stroke-linejoin="round" d="M12 14h1v1h-1zM14 13h-1v1h1zM11 15h1v1h-1z"/>
            <path stroke-linecap="round" stroke-linejoin="round" d="M10 17h1v1h-1zM11 18h1v1h-1zM12 19h1v1h-1z"/>
            <path ostroke-linecap="round" stroke-linejoin="round" d="M11 17h1v1h-1zM12 18h1v1h-1zM14 19h-1v1h1z"/>
        </g>
    </g>
</svg>
