<svg xmlns="http://www.w3.org/2000/svg" id="Duotone" viewBox="0 0 100 112"><defs><style>.cls-1{fill:#fff;}.cls-2,.cls-4{fill:none;}.cls-2,.cls-4,.cls-5,.cls-7{stroke:#333;stroke-linejoin:round;}.cls-2{stroke-linecap:round;}.cls-3,.cls-7{fill:#fff;}.cls-5,.cls-8{fill:#d6daff;}.cls-6{fill:#999;}</style></defs><title/><g id="Icons"><g id="Background">
</g><g id="Scene">
<path class="cls-3" d="M58.28,36.94H70.19a1.2,1.2,0,0,1,1.2,1.2V62.47a0,0,0,0,1,0,0H58.28a0,0,0,0,1,0,0V36.94A0,0,0,0,1,58.28,36.94Z"/><path class="cls-3" d="M58.28,74.89h-29V30.73A2.76,2.76,0,0,1,32.06,28H55.52a2.75,2.75,0,0,1,2.76,2.76Z"/><path class="cls-4" d="M58.28,36.94H70.19a1.2,1.2,0,0,1,1.2,1.2V62.47a0,0,0,0,1,0,0H58.28a0,0,0,0,1,0,0V36.94A0,0,0,0,1,58.28,36.94Z"/><path class="cls-4" d="M58.28,74.89h-29V30.73A2.76,2.76,0,0,1,32.06,28H55.52a2.75,2.75,0,0,1,2.76,2.76Z"/><path class="cls-3" d="M29.71,29.31l2.35,7.87A2.79,2.79,0,0,0,34.66,39h18.1a2.77,2.77,0,0,0,2.6-1.83l2.52-7.88A2.78,2.78,0,0,0,55.52,28H32.06A2.74,2.74,0,0,0,29.71,29.31Z"/><circle class="cls-5" cx="43.79" cy="44.53" r="2.76"/><line class="cls-4" x1="41.03" y1="33.49" x2="41.03" y2="44.53"/><line class="cls-4" x1="46.55" y1="33.49" x2="46.55" y2="44.53"/><line class="cls-4" x1="43.79" y1="36.25" x2="43.79" y2="41.77"/><path class="cls-2" d="M43.79,41.77A2.76,2.76,0,0,0,41,44.53S41,48,36.89,48"/><path class="cls-6" d="M43.79,43.84a.69.69,0,1,0,.69.69.69.69,0,0,0-.69-.69Z"/><path class="cls-7" d="M70.25,39l-2,3.57a1.16,1.16,0,0,1-1,.59h-9V36.94H69.05A1.37,1.37,0,0,1,70.25,39Z"/><path class="cls-3" d="M37,62.47h32L64.8,49.88a2.75,2.75,0,0,0-3.48-1.76l-23.6,7.75A2.75,2.75,0,0,0,36,59.35Z"/><path class="cls-3" d="M50.88,59.64A2.31,2.31,0,0,0,53,59L63.17,48.18a2.67,2.67,0,0,0-1.85-.06l-23.6,7.75A2.76,2.76,0,0,0,36.26,57Z"/><path class="cls-4" d="M37,62.47h32L64.8,49.88a2.75,2.75,0,0,0-3.48-1.76l-23.6,7.75A2.75,2.75,0,0,0,36,59.35Z"/><path class="cls-4" d="M50.88,59.64A2.31,2.31,0,0,0,53,59L63.17,48.18a2.67,2.67,0,0,0-1.85-.06l-23.6,7.75A2.76,2.76,0,0,0,36.26,57Z"/><path class="cls-8" d="M27.23,65.92l2.39,12a2.31,2.31,0,0,0,2.26,1.85H68.13a2.3,2.3,0,0,0,2.25-1.85l2.39-12Zm29,8.28H43.79a2.07,2.07,0,1,1,0-4.14H56.21a2.07,2.07,0,1,1,0,4.14Z"/><path class="cls-5" d="M74.15,64.19a1.73,1.73,0,0,1-1.72,1.73H27.58a1.73,1.73,0,1,1,0-3.45H72.43A1.72,1.72,0,0,1,74.15,64.19Z"/><path class="cls-4" d="M27.23,65.92l2.39,12a2.31,2.31,0,0,0,2.26,1.85H68.13a2.3,2.3,0,0,0,2.25-1.85l2.39-12Zm29,8.28H43.79a2.07,2.07,0,1,1,0-4.14H56.21a2.07,2.07,0,1,1,0,4.14Z"/><path class="cls-4" d="M29.71,29.31l2.35,7.87A2.79,2.79,0,0,0,34.66,39h18.1a2.77,2.77,0,0,0,2.6-1.83l2.52-7.88A2.78,2.78,0,0,0,55.52,28H32.06A2.74,2.74,0,0,0,29.71,29.31Z"/><circle class="cls-5" cx="43.79" cy="33.49" r="2.76"/><path class="cls-6" d="M43.79,32.8a.69.69,0,1,0,.69.69.69.69,0,0,0-.69-.69Z"/></g></g></svg>