<?xml version="1.0" encoding="utf-8"?>
<!-- Generator: Adobe Illustrator 16.0.3, SVG Export Plug-In . SVG Version: 6.00 Build 0)  -->
<!DOCTYPE svg PUBLIC "-//W3C//DTD SVG 1.1//EN" "http://www.w3.org/Graphics/SVG/1.1/DTD/svg11.dtd">
<svg version="1.1" xmlns="http://www.w3.org/2000/svg" xmlns:xlink="http://www.w3.org/1999/xlink" x="0px" y="0px" width="24px"
	 height="24px" viewBox="0 0 24 24" enable-background="new 0 0 24 24" xml:space="preserve">
<g id="Outline_Icons">
	<g>
		<polyline fill="none" stroke="#999" stroke-linecap="round" stroke-linejoin="round" stroke-miterlimit="10" points="23,18.5 
			20.5,18.5 20.5,13.5 		"/>
		<g>
			
				<line fill="none" stroke="#999" stroke-linecap="round" stroke-linejoin="round" stroke-miterlimit="10" x1="11.5" y1="18.5" x2="11.5" y2="13.5"/>
			
				<line fill="none" stroke="#999" stroke-linecap="round" stroke-linejoin="round" stroke-miterlimit="10" x1="10.5" y1="13.5" x2="12.5" y2="13.5"/>
		</g>
		<polyline fill="none" stroke="#999" stroke-linecap="round" stroke-linejoin="round" stroke-miterlimit="10" points="
			18.5,18.502 18.5,13.5 16.5,16.001 14.5,13.5 14.5,18.502 		"/>
		<g>
			
				<line fill="none" stroke="#999" stroke-linecap="round" stroke-linejoin="round" stroke-miterlimit="10" x1="5.5" y1="18.5" x2="5.5" y2="13.5"/>
			
				<line fill="none" stroke="#999" stroke-linecap="round" stroke-linejoin="round" stroke-miterlimit="10" x1="8.5" y1="18.5" x2="8.5" y2="13.5"/>
			
				<line fill="none" stroke="#999" stroke-linecap="round" stroke-linejoin="round" stroke-miterlimit="10" x1="5.5" y1="16.5" x2="8.5" y2="16.5"/>
		</g>
		<g>
			<g>
				<g>
					<polyline fill="none" stroke="#999" stroke-linecap="round" stroke-linejoin="round" stroke-miterlimit="10" points="
						19.5,21 19.5,23.5 0.5,23.5 0.5,0.5 13.5,0.5 19.5,6.5 19.5,11 					"/>
					<polyline fill="none" stroke="#999" stroke-linecap="round" stroke-linejoin="round" stroke-miterlimit="10" points="
						13.5,0.5 13.5,6.5 19.5,6.5 					"/>
				</g>
			</g>
		</g>
	</g>
</g>
<g id="Invisible_Shape">
	<rect fill="none" width="24" height="24"/>
</g>
</svg>
