<?xml version="1.0" encoding="utf-8"?>
<!-- Generator: Adobe Illustrator 16.0.3, SVG Export Plug-In . SVG Version: 6.00 Build 0)  -->
<!DOCTYPE svg PUBLIC "-//W3C//DTD SVG 1.1//EN" "http://www.w3.org/Graphics/SVG/1.1/DTD/svg11.dtd">
<svg xmlns="http://www.w3.org/2000/svg" xmlns:xlink="http://www.w3.org/1999/xlink" version="1.1" x="0px" y="0px" width="24px" height="24px" viewBox="0 0 24 24" enable-background="new 0 0 24 24" xml:space="preserve">
<g id="Outline_Icons">
	<g>
		<g>
			<polygon fill="none" stroke="#999" stroke-linecap="round" stroke-linejoin="round" stroke-miterlimit="10" points="     21.5,23.5 2.5,23.5 2.5,0.5 15.5,0.5 21.5,6.5    "/>
			<polyline fill="none" stroke="#999" stroke-linecap="round" stroke-linejoin="round" stroke-miterlimit="10" points="     15.5,0.5 15.5,6.5 21.5,6.5    "/>
		</g>
		<polyline fill="none" stroke="#999" stroke-linecap="round" stroke-linejoin="round" stroke-miterlimit="10" points="14,18.5     11.5,18.5 11.5,13.5   "/>
		<path fill="none" stroke="#999" stroke-linecap="round" stroke-linejoin="round" stroke-miterlimit="10" d="M16.26,17.258    c0.041,0.693,0.58,1.242,1.24,1.242c0.686,0,1.24-0.594,1.24-1.327c0-1.08-1.024-1.111-1.241-1.173    c-0.217-0.064-1.241-0.096-1.241-1.176c0-0.731,0.557-1.324,1.242-1.324c0.658,0,1.197,0.549,1.238,1.24"/>
		<g>
				<line fill="none" stroke="#999" stroke-linecap="round" stroke-linejoin="round" stroke-miterlimit="10" x1="5.5" y1="13.5" x2="8.5" y2="18.5"/>
				<line fill="none" stroke="#999" stroke-linecap="round" stroke-linejoin="round" stroke-miterlimit="10" x1="8.5" y1="13.5" x2="5.5" y2="18.5"/>
		</g>
	</g>
</g>
<g id="Invisible_Shape">
	<rect fill="none" width="24" height="24"/>
</g>
</svg>