<svg id="Multicolor" xmlns="http://www.w3.org/2000/svg" viewBox="0 0 100 112">
<defs>
<style>
.cls-1{
fill:#e8f4fa;
}
path.cls-1 {
    fill: #fff;
}
.cls-2,
.cls-4{
fill:#fff;
}
.cls-3{
fill:none;
}
.cls-3,
.cls-4
{
stroke:#999;stroke-linejoin:round;stroke-width: 0.5px;
}
.cls-4{
stroke-linecap:round;}
.cls-5{
fill:#231f20;opacity:0.15;
}
.cls-6{
fill:#6dd627;
}
.cls-7{
fill:#9ceb60;
}
</style>
</defs>
<title></title>
<g id="Background">
<g id="New_Symbol_1-3" data-name="New Symbol 1">
<circle class="cls-1" cx="50" cy="56" r="40" transform="translate(-21.21 79.78) rotate(-66.7)"/>
</g>
</g>
<g id="Scene">
<path class="cls-1" d="M58.53,70.16a1.15,1.15,0,0,1-1.15,1.15H28.15A1.14,1.14,0,0,1,27,70.16V29.91a1.15,1.15,0,0,1,1.15-1.15H52.3a1.13,1.13,0,0,1,.81.34l5.08,5.07a1.15,1.15,0,0,1,.34.82Z"/>
<path class="cls-2" d="M56.23,32.21,53.11,29.1a1.13,1.13,0,0,0-.81-.34H28.15A1.15,1.15,0,0,0,27,29.91v2.3Z"/>
<path class="cls-3" d="M58.53,70.16a1.15,1.15,0,0,1-1.15,1.15H28.15A1.14,1.14,0,0,1,27,70.16V29.91a1.15,1.15,0,0,1,1.15-1.15H52.3a1.13,1.13,0,0,1,.81.34l5.08,5.07a1.15,1.15,0,0,1,.34.82Z"/>
<path class="cls-4" d="M52.78,33.36a1.14,1.14,0,0,0,1.15,1.15h4.48a1,1,0,0,0-.22-.34L53.11,29.1a1.09,1.09,0,0,0-.33-.23Z"/>
<ellipse class="cls-5" cx="58.63" cy="81.51" rx="9.2" ry="1.72"/>
<ellipse class="cls-5" cx="41.95" cy="72.46" rx="13.8" ry="1.15"/>
<path class="cls-6" d="M73,59.22a1.85,1.85,0,0,0-1.85-1.86H63.73a.92.92,0,0,1-.93-.92V49a1.86,1.86,0,0,0-1.86-1.86H56.31A1.86,1.86,0,0,0,54.45,49v7.42a.92.92,0,0,1-.93.92H46.1a1.85,1.85,0,0,0-1.85,1.86v4.64a1.85,1.85,0,0,0,1.85,1.85h7.42a.93.93,0,0,1,.93.93v7.42a1.85,1.85,0,0,0,1.86,1.85h4.63a1.85,1.85,0,0,0,1.86-1.85V66.64a.93.93,0,0,1,.93-.93h7.42A1.85,1.85,0,0,0,73,63.86Z"/>
<path class="cls-7" d="M60.94,47.16H56.31A1.86,1.86,0,0,0,54.45,49v7.42a.92.92,0,0,1-.93.92H46.1a1.85,1.85,0,0,0-1.85,1.86v4.64a1.85,1.85,0,0,0,1.85,1.85h4.11L62.8,53.12V49A1.86,1.86,0,0,0,60.94,47.16Z"/>
<path class="cls-3" d="M73,59.22a1.85,1.85,0,0,0-1.85-1.86H63.73a.92.92,0,0,1-.93-.92V49a1.86,1.86,0,0,0-1.86-1.86H56.31A1.86,1.86,0,0,0,54.45,49v7.42a.92.92,0,0,1-.93.92H46.1a1.85,1.85,0,0,0-1.85,1.86v4.64a1.85,1.85,0,0,0,1.85,1.85h7.42a.93.93,0,0,1,.93.93v7.42a1.85,1.85,0,0,0,1.86,1.85h4.63a1.85,1.85,0,0,0,1.86-1.85V66.64a.93.93,0,0,1,.93-.93h7.42A1.85,1.85,0,0,0,73,63.86Z"/></g>
</svg>

