<svg xmlns="http://www.w3.org/2000/svg" id="Duotone" viewBox="0 0 100 112"><defs>
<style>line.cls-4 {stroke: #999;}.cls-1{fill:none;}.cls-2{fill:none;}.cls-3,.cls-5{fill:#fff;}.cls-4,.cls-6,.cls-7{fill:none;}.cls-4,.cls-5,.cls-6{stroke:#999;}.cls-4,.cls-5{stroke-linecap:round;}.cls-4,.cls-5,.cls-7{stroke-linejoin:round;}.cls-7{stroke: #999;}.cls-6{stroke-miterlimit:10;}</style>
</defs><title/>
<rect class="cls-3" x="46.09" y="81.59" width="7" height="3"/>
<rect class="cls-4" x="46.09" y="81.59" width="7" height="3"/>
<path class="cls-2" d="M66.09,76.59h-33v-17a3,3,0,0,1,3-3h27a3,3,0,0,1,3,3Z"/>
<path class="cls-5" d="M55.09,84.59h-11a2,2,0,0,0-2,2v1h15v-1A2,2,0,0,0,55.09,84.59Z"/>
<path class="cls-5" d="M63.09,81.59h-27a3,3,0,0,1-3-3v-2h33v2A3,3,0,0,1,63.09,81.59Z"/>

<path class="cls-4" d="M66.09,76.59h-33v-17a3,3,0,0,1,3-3h27a3,3,0,0,1,3,3Z"/>
<circle class="cls-6" cx="49.59" cy="79.09" r="0.5"/>
<path class="cls-5" d="M43.37,64.8a.92.92,0,0,1-.65,1.13L30.85,69.11a.92.92,0,0,1-1.13-.65L25.93,54.31a.91.91,0,0,1,.65-1.12L34.79,51l5.77,3.33Z"/>
<polygon class="cls-5" points="34.79 50.99 36.01 55.53 40.56 54.32 34.79 50.99"/>
<line class="cls-4" x1="29.19" y1="57.36" x2="33.74" y2="56.14"/>
<line class="cls-4" x1="29.8" y1="59.64" x2="38.52" y2="57.3"/>
<line class="cls-4" x1="30.41" y1="61.91" x2="39.13" y2="59.58"/>
<line class="cls-4" x1="31.02" y1="64.19" x2="39.74" y2="61.85"/>
<path class="cls-3" d="M71.84,67.33a.89.89,0,0,1-1.08.63L56.24,64.07A.9.9,0,0,1,55.61,63l3-11.1a.87.87,0,0,1,1.08-.62l2.56.68,1.25,2.17,10.25,2.74a.9.9,0,0,1,.63,1.09Z"/>
<path class="cls-4" d="M71.84,67.33a.89.89,0,0,1-1.08.63L56.24,64.07A.9.9,0,0,1,55.61,63l3-11.1a.87.87,0,0,1,1.08-.62l2.56.68,1.25,2.17,10.25,2.74a.9.9,0,0,1,.63,1.09Z"/>


<path class="cls-2" d="M57.91,30a2,2,0,0,1-2.83,0L52,26.91V45.09a2.5,2.5,0,0,1-5,0V26.91L43.91,30a2,2,0,0,1-2.83-2.83l7-7a2,2,0,0,1,1.42-.58,2,2,0,0,1,1.41.58l7,7A2,2,0,0,1,57.91,30Z"/>
<path class="cls-7" d="M57.91,30a2,2,0,0,1-2.83,0L52,26.91V45.09a2.5,2.5,0,0,1-5,0V26.91L43.91,30a2,2,0,0,1-2.83-2.83l7-7a2,2,0,0,1,1.42-.58,2,2,0,0,1,1.41.58l7,7A2,2,0,0,1,57.91,30Z"/>
</svg>