<?xml version="1.0" encoding="utf-8"?>
<!-- Generator: Adobe Illustrator 16.0.3, SVG Export Plug-In . SVG Version: 6.00 Build 0)  -->
<!DOCTYPE svg PUBLIC "-//W3C//DTD SVG 1.1//EN" "http://www.w3.org/Graphics/SVG/1.1/DTD/svg11.dtd">
<svg version="1.1" xmlns="http://www.w3.org/2000/svg" xmlns:xlink="http://www.w3.org/1999/xlink" x="0px" y="0px" width="24px"
	 height="24px" viewBox="0 0 24 24" enable-background="new 0 0 24 24" xml:space="preserve">
<g id="Outline_Icons">
	<g>
		<path fill="none" stroke="#999" stroke-linecap="round" stroke-linejoin="round" stroke-miterlimit="10" d="M4.26,17.258
			C4.301,17.951,4.84,18.5,5.5,18.5c0.686,0,1.24-0.594,1.24-1.327c0-1.08-1.024-1.112-1.241-1.173
			c-0.217-0.064-1.241-0.096-1.241-1.175c0-0.732,0.557-1.325,1.242-1.325c0.658,0,1.197,0.548,1.238,1.241"/>
		<path fill="none" stroke="#999" stroke-linecap="round" stroke-linejoin="round" stroke-miterlimit="10" d="M16.359,14.5
			c-0.168-0.746-0.547-1-1.359-1c-1.258,0-1.5,1.035-1.5,2.5c0,1.462,0.242,2.5,1.5,2.5c1.048,0,1.42-0.878,1.5-2H15"/>
		<polyline fill="none" stroke="#999" stroke-linecap="round" stroke-linejoin="round" stroke-miterlimit="10" points="8.5,13.5 
			10,18.5 11.5,13.5 		"/>
		<g>
			<g>
				<g>
					<g>
						<polygon fill="none" stroke="#999" stroke-linecap="round" stroke-linejoin="round" stroke-miterlimit="10" points="
							19.5,23.5 0.5,23.5 0.5,0.5 13.5,0.5 19.5,6.5 						"/>
						<polyline fill="none" stroke="#999" stroke-linecap="round" stroke-linejoin="round" stroke-miterlimit="10" points="
							13.5,0.5 13.5,6.5 19.5,6.5 						"/>
					</g>
				</g>
			</g>
		</g>
	</g>
</g>
<g id="Invisible_Shape">
	<rect fill="none" width="24" height="24"/>
</g>
</svg>
