<svg width="200" height="250" xmlns="http://www.w3.org/2000/svg">
 <!-- Created with Method Draw - http://github.com/duopixel/Method-Draw/ -->

 <g>

  
  <g display="none" overflow="visible" y="0" x="0" height="100%" width="100%" id="canvasGrid">
   <rect fill="url(#gridpattern)" stroke-width="0" y="0" x="0" height="100%" width="100%"/>
  </g>
 </g>
 <g>
  <title>Layer 1</title>
  <defs>
   <clipPath id="svg_28" clipPathUnits="userSpaceOnUse">
    <rect fill="#000000" fill-rule="nonzero" stroke-linejoin="round" stroke-miterlimit="4" stroke-dashoffset="0" y="141.44913" x="-74.033661" height="67.886459" width="68.688263" id="svg_29"/>
   </clipPath>
  </defs>
  <metadata transform="matrix(2.0730817798180965,0,0,2.0730817798180965,0,0) " id="svg_27">image/svg+xmlPDF file icon08/10/2018Adobe SystemsCMetalCoreFuente del texto "PDF":
Franklin Gothic Medium Cond</metadata>
  <g id="svg_31">
   <g transform="matrix(2.0730817798180965,0,0,2.0730817798180965,0,0) " id="svg_17">
    <g transform="matrix(1.4843054,0,0,1.4843054,17.471885,-90.243502) " id="svg_18">
     <g id="svg_19">
      <path clip-rule="nonzero" fill="#ff2116" fill-rule="nonzero" stroke-width="2.116667" stroke-linecap="round" stroke-linejoin="round" stroke-miterlimit="4" stroke-dashoffset="0" id="svg_26" d="m2.47186,69.89821c-3.55197,0 -6.44336,2.89347 -6.44336,6.44531l0,49.49804c0,3.55185 2.89139,6.44532 6.44336,6.44532l37.84961,0c3.55196,0 6.44336,-2.89335 6.44336,-6.44532l0,-40.70117c0,0 0.10135,-1.19181 -0.41602,-2.35156c-0.48497,-1.08711 -1.27539,-1.84375 -1.27539,-1.84375a1.05844,1.05844 0 0 0 -0.0059,-0.008l-9.39063,-9.21094a1.05844,1.05844 0 0 0 -0.01562,-0.0156c0,0 -0.80174,-0.76344 -1.99023,-1.27344c-1.3994,-0.6005 -2.8418,-0.53711 -2.8418,-0.53711l0.02148,-0.002l-28.37886,0.00022z"/>
      <path clip-rule="nonzero" fill="#f5f5f5" fill-rule="nonzero" stroke-width="2.116667" stroke-linecap="round" stroke-linejoin="round" stroke-miterlimit="4" stroke-dashoffset="0" id="svg_25" d="m2.47186,72.01539l28.3789,0a1.05844,1.05844 0 0 0 0.02149,0c0,0 1.1348,0.011 1.96484,0.36719c0.7989,0.34282 1.36537,0.86176 1.36914,0.86524c0.00001,0.00001 0.00391,0.004 0.00391,0.004l9.36719,9.18945c0,0 0.56435,0.59582 0.83789,1.20899c0.22078,0.49491 0.23437,1.40039 0.23437,1.40039a1.05844,1.05844 0 0 0 -0.002,0.0449l0,40.74609c0,2.41592 -1.91025,4.32813 -4.32617,4.32813l-37.84956,0c-2.41592,0 -4.32617,-1.91209 -4.32617,-4.32813l0,-49.49804c0,-2.41603 1.91025,-4.32813 4.32617,-4.32813l0,-0.00008z"/>
      <path fill="#ff2116" stroke-width="0.264583" id="svg_24" d="m8.69701,107.04393c-1.45669,-1.45669 0.11934,-3.45839 4.39648,-5.58397l2.69124,-1.33743l1.04845,-2.29399c0.57665,-1.26169 1.43729,-3.32036 1.91254,-4.5748l0.8641,-2.28082l-0.59546,-1.68793c-0.73217,-2.07547 -0.99326,-5.19438 -0.52872,-6.31588c0.62923,-1.51909 2.69029,-1.36323 3.50626,0.26515c0.63727,1.27176 0.57212,3.57488 -0.18329,6.47946l-0.6193,2.38125l0.5455,0.92604c0.30003,0.50932 1.1764,1.71867 1.9475,2.68743l1.44924,1.80272l1.80337,-0.23533c5.72901,-0.74758 7.69125,0.523 7.69125,2.34476c0,2.29921 -4.49849,2.48899 -8.27609,-0.16423c-0.84996,-0.59698 -1.43366,-1.19001 -1.43366,-1.19001c0,0 -2.36653,0.48178 -3.5317,0.79583c-1.20271,0.32417 -1.80274,0.52719 -3.56451,1.12186c0,0 -0.61814,0.89767 -1.02094,1.55026c-1.49858,2.4279 -3.24833,4.43998 -4.49793,5.1723c-1.3991,0.81993 -2.86584,0.87582 -3.60433,0.13733zm2.28605,-0.81668c0.81883,-0.50607 2.47616,-2.46625 3.62341,-4.28553l0.46449,-0.73658l-2.11497,1.06339c-3.26655,1.64239 -4.76093,3.19033 -3.98386,4.12664c0.43653,0.52598 0.95874,0.48237 2.01093,-0.16792zm21.21809,-5.95578c0.80089,-0.56097 0.68463,-1.69142 -0.22082,-2.1472c-0.70466,-0.35471 -1.27261,-0.42759 -3.10316,-0.40057c-1.1249,0.0767 -2.93376,0.3034 -3.24033,0.37237c0,0 0.99371,0.68678 1.43489,0.93922c0.58731,0.33544 2.01452,0.95811 3.05652,1.27706c1.02785,0.31461 1.6224,0.28144 2.0729,-0.0409l0,0.00002zm-8.53152,-3.54594c-0.4847,-0.50952 -1.30889,-1.57296 -1.83152,-2.3632c-0.68353,-0.89643 -1.02629,-1.52887 -1.02629,-1.52887c0,0 -0.4996,1.60694 -0.90948,2.57394l-1.27876,3.16076l-0.37075,0.71695c0,0 1.97104,-0.64627 2.97389,-0.90822c1.06217,-0.27744 3.21787,-0.70134 3.21787,-0.70134l-0.77496,-0.95002zm-2.74938,-11.02573c0.12363,-1.0375 0.1761,-2.07346 -0.15724,-2.59587c-0.9246,-1.01077 -2.04057,-0.16787 -1.85154,2.23517c0.0636,0.8084 0.26443,2.19033 0.53292,3.04209l0.48817,1.54863l0.34358,-1.16638c0.18897,-0.64151 0.47882,-2.02015 0.64411,-3.06364z"/>
      <g id="svg_20">
       <path fill="#2c2c2c" stroke-width="0.358247px" d="m11.17425,113.78956l2.36498,0q1.13352,0 1.84022,0.2169q0.70669,0.20991 1.18948,0.9446q0.4828,0.72769 0.4828,1.75625q0,0.94459 -0.39183,1.6233q-0.39184,0.67871 -1.05655,0.97958q-0.65772,0.30087 -2.02913,0.30087l-0.81865,0l0,3.72941l-1.58132,0l0,-9.55091zm1.58132,1.22447l0,3.33058l0.78366,0q1.04955,0 1.44838,-0.39184q0.40583,-0.39183 0.40583,-1.27345q0,-0.65772 -0.26589,-1.06355q-0.26588,-0.41282 -0.58774,-0.50378q-0.31487,-0.098 -1.00058,-0.098l-0.78366,0.00004z" id="svg_23"/>
       <path fill="#2c2c2c" stroke-width="0.358247px" d="m18.26221,113.78956l2.14808,0q1.56033,0 2.49093,0.55276q0.9376,0.55276 1.4134,1.6443q0.48279,1.09153 0.48279,2.42096q0,1.3994 -0.43381,2.49793q-0.42682,1.09153 -1.31544,1.76324q-0.88162,0.67172 -2.51892,0.67172l-2.26703,0l0,-9.55091zm1.58133,1.26645l0,7.018l0.65771,0q1.37841,0 2.00114,-0.9516q0.62274,-0.95858 0.62274,-2.5539q0,-3.5125 -2.62388,-3.5125l-0.65771,0z" id="svg_22"/>
       <path fill="#2c2c2c" stroke-width="0.358247px" d="m26.31576,113.78956l5.30373,0l0,1.26645l-3.7224,0l0,2.85478l2.98072,0l0,1.26646l-2.98072,0l0,4.16322l-1.58133,0l0,-9.55091z" id="svg_21"/>
      </g>
     </g>
    </g>
   </g>
  </g>
 </g>
</svg>