<?xml version="1.0" encoding="utf-8"?>
<!-- Generator: Adobe Illustrator 16.0.3, SVG Export Plug-In . SVG Version: 6.00 Build 0)  -->
<!DOCTYPE svg PUBLIC "-//W3C//DTD SVG 1.1//EN" "http://www.w3.org/Graphics/SVG/1.1/DTD/svg11.dtd">
<svg version="1.1" xmlns="http://www.w3.org/2000/svg" xmlns:xlink="http://www.w3.org/1999/xlink" x="0px" y="0px" width="24px"
	 height="24px" viewBox="0 0 24 24" enable-background="new 0 0 24 24" xml:space="preserve">
<g id="Outline_Icons">
	<g>
		<path fill="none" stroke="#999" stroke-linecap="round" stroke-linejoin="round" stroke-miterlimit="10" d="M16.359,14.5
			c-0.168-0.746-0.547-1-1.359-1c-1.258,0-1.5,1.035-1.5,2.5c0,1.462,0.242,2.5,1.5,2.5c1.048,0,1.42-0.878,1.5-2H15"/>
		<g>
			<g>
				<g>
					<g>
						<polygon fill="none" stroke="#999" stroke-linecap="round" stroke-linejoin="round" stroke-miterlimit="10" points="
							19.5,23.5 0.5,23.5 0.5,0.5 13.5,0.5 19.5,6.5 						"/>
						<polyline fill="none" stroke="#999" stroke-linecap="round" stroke-linejoin="round" stroke-miterlimit="10" points="
							13.5,0.5 13.5,6.5 19.5,6.5 						"/>
					</g>
				</g>
			</g>
		</g>
		<path fill="none" stroke="#999" stroke-linecap="round" stroke-linejoin="round" stroke-miterlimit="10" d="M9.5,18.499V13.5
			h1.25c0.69,0,1.25,0.56,1.25,1.25S11.44,16,10.75,16H9.5"/>
		<path fill="none" stroke="#999" stroke-linecap="round" stroke-linejoin="round" stroke-miterlimit="10" d="M3.5,17
			c0,0.829,0.672,1.5,1.5,1.5s1.5-0.671,1.5-1.5v-3.5"/>
	</g>
</g>
<g id="Invisible_Shape">
	<rect fill="none" width="24" height="24"/>
</g>
</svg>
