<?xml version="1.0" encoding="utf-8"?>
<!-- Generator: Adobe Illustrator 16.0.3, SVG Export Plug-In . SVG Version: 6.00 Build 0)  -->
<!DOCTYPE svg PUBLIC "-//W3C//DTD SVG 1.1//EN" "http://www.w3.org/Graphics/SVG/1.1/DTD/svg11.dtd">
<svg version="1.1" xmlns="http://www.w3.org/2000/svg" xmlns:xlink="http://www.w3.org/1999/xlink" x="0px" y="0px" width="24px"
	 height="24px" viewBox="0 0 24 24" enable-background="new 0 0 24 24" xml:space="preserve">
<g id="Outline_Icons">
	<g>
		<g>
			<polyline fill="none" stroke="#999" stroke-linecap="round" stroke-linejoin="round" stroke-miterlimit="10" points="
				13.5,18.5 13.5,13.5 15.5,13.5 			"/>
			
				<line fill="none" stroke="#999" stroke-linecap="round" stroke-linejoin="round" stroke-miterlimit="10" x1="13.5" y1="15.5" x2="15" y2="15.5"/>
		</g>
		<path fill="none" stroke="#999" stroke-linecap="round" stroke-linejoin="round" stroke-miterlimit="10" d="M7.359,14.5
			c-0.168-0.746-0.547-1-1.359-1c-1.258,0-1.5,1.035-1.5,2.5c0,1.462,0.242,2.5,1.5,2.5c1.048,0,1.42-0.878,1.5-2H6"/>
		
			<line fill="none" stroke="#999" stroke-linecap="round" stroke-linejoin="round" stroke-miterlimit="10" x1="10.5" y1="18.5" x2="10.5" y2="13.5"/>
		<g>
			<g>
				<g>
					<g>
						<polygon fill="none" stroke="#999" stroke-linecap="round" stroke-linejoin="round" stroke-miterlimit="10" points="
							19.5,23.5 0.5,23.5 0.5,0.5 13.5,0.5 19.5,6.5 						"/>
						<polyline fill="none" stroke="#999" stroke-linecap="round" stroke-linejoin="round" stroke-miterlimit="10" points="
							13.5,0.5 13.5,6.5 19.5,6.5 						"/>
					</g>
				</g>
			</g>
		</g>
	</g>
</g>
<g id="Invisible_Shape">
	<rect fill="none" width="24" height="24"/>
</g>
</svg>
