<?xml version="1.0" encoding="utf-8"?>
<!-- Generator: Adobe Illustrator 16.0.3, SVG Export Plug-In . SVG Version: 6.00 Build 0)  -->
<!DOCTYPE svg PUBLIC "-//W3C//DTD SVG 1.1//EN" "http://www.w3.org/Graphics/SVG/1.1/DTD/svg11.dtd">
<svg version="1.1" xmlns="http://www.w3.org/2000/svg" xmlns:xlink="http://www.w3.org/1999/xlink" x="0px" y="0px" width="24px"
	 height="24px" viewBox="0 0 24 24" enable-background="new 0 0 24 24" xml:space="preserve">
<g id="Outline_Icons">
	<g>
		<path fill="none" stroke="#999" stroke-linecap="round" stroke-linejoin="round" stroke-miterlimit="10" d="M16.262,14.74
			c0.021-0.482,0.242-1.24,1.238-1.24c1.057,0,1.24,0.85,1.24,1.323c0,0.476-0.297,1.177-1.354,1.177
			c1.057,0,1.354,0.701,1.354,1.177c0,0.473-0.184,1.323-1.24,1.323c-0.996,0-1.217-0.757-1.238-1.239"/>
		<polyline fill="none" stroke="#999" stroke-linecap="round" stroke-linejoin="round" stroke-miterlimit="10" points="
			9.5,18.502 9.5,13.5 7.5,16.001 5.5,13.5 5.5,18.502 		"/>
		<polygon fill="none" stroke="#999" stroke-linecap="round" stroke-linejoin="round" stroke-miterlimit="10" points="21.5,23.5 
			2.5,23.5 2.5,0.5 15.5,0.5 21.5,6.5 		"/>
		<polyline fill="none" stroke="#999" stroke-linecap="round" stroke-linejoin="round" stroke-miterlimit="10" points="15.5,0.5 
			15.5,6.5 21.5,6.5 		"/>
		<path fill="none" stroke="#999" stroke-linecap="round" stroke-linejoin="round" stroke-miterlimit="10" d="M11.5,18.5v-5h1.25
			c0.69,0,1.25,0.56,1.25,1.25S13.44,16,12.75,16H11.5"/>
	</g>
</g>
<g id="Invisible_Shape">
	<rect fill="none" width="24" height="24"/>
</g>
</svg>
