<svg xmlns="http://www.w3.org/2000/svg" xmlns:xlink="http://www.w3.org/1999/xlink" id="Duotone" viewBox="0 0 100 112"><defs><style>.cls-1,.cls-10,.cls-7,.cls-8{fill:none;}.cls-2{fill:#f0f2ff;}.cls-3,.cls-5,.cls-6{fill:#fff;}.cls-10,.cls-3,.cls-5,.cls-7,.cls-8,.cls-9{stroke:#999;}.cls-3,.cls-7,.cls-8{stroke-linecap:round;}.cls-10,.cls-3,.cls-8,.cls-9{stroke-linejoin:round;}.cls-4{clip-path:url(#clip-path);}.cls-5,.cls-7{stroke-miterlimit:10;}.cls-9{fill:#d6daff;}</style><clipPath id="clip-path"><circle class="cls-1" cx="50" cy="56" r="40"/></clipPath></defs><title></title><g id="Icons"><g id="Background"><g id="New_Symbol_4-12" data-name="New Symbol 4"><circle class="cls-2" cx="50" cy="56" r="40"/></g></g><g id="Scene"><g class="cls-4"><path class="cls-5" d="M41.36,63.61a2.5,2.5,0,0,1-2.45-2,43.72,43.72,0,0,1,0-17.76l.21-1a2.5,2.5,0,0,1,4.9,1l-.21,1a38.59,38.59,0,0,0,0,15.73,2.51,2.51,0,0,1-1.94,3A2.21,2.21,0,0,1,41.36,63.61Z"/><path class="cls-6" d="M66.67,58.39a2.5,2.5,0,0,0-2.76,2.21,5.16,5.16,0,1,1-1.21-3.93,2.5,2.5,0,1,0,3.79-3.26,10.14,10.14,0,0,0-17.15,2.92l-.18,0a39.14,39.14,0,0,1,7.05-15.64l.64-.85a2.5,2.5,0,1,0-4-3l-.64.85c-.62.81-1.19,1.66-1.75,2.51a2.49,2.49,0,0,0-4.21-2.66c-14,20.94-3.88,32.59-3.88,41.11V83H56.75V80.7c0-6.82.88-9.17,5.77-11.23a10.28,10.28,0,0,0,6.36-8.32A2.5,2.5,0,0,0,66.67,58.39Z"/><path class="cls-7" d="M44.12,56a44.21,44.21,0,0,1,8.1-18.31"/><path class="cls-8" d="M66.67,58.39a2.5,2.5,0,0,0-2.76,2.21,5.16,5.16,0,1,1-1.21-3.93,2.5,2.5,0,1,0,3.79-3.26,10.14,10.14,0,0,0-17.15,2.92l-.18,0a39.14,39.14,0,0,1,7.05-15.64l.64-.85a2.5,2.5,0,1,0-4-3l-.64.85c-.62.81-1.19,1.66-1.75,2.51a2.49,2.49,0,0,0-4.21-2.66c-14,20.94-3.88,32.59-3.88,41.11V83H56.75V80.7c0-6.82.88-9.17,5.77-11.23a10.28,10.28,0,0,0,6.36-8.32A2.5,2.5,0,0,0,66.67,58.39Z"/><rect class="cls-9" x="42.03" y="80.82" width="15" height="19.37" rx="1.25" ry="1.25" transform="translate(-40.97 140.03) rotate(-90)"/><rect class="cls-10" x="42.03" y="80.82" width="15" height="19.37" rx="1.25" ry="1.25" transform="translate(-40.97 140.03) rotate(-90)"/><path class="cls-3" d="M48.9,72.69h2.5a0,0,0,0,1,0,0V89.56a0,0,0,0,1,0,0H48.9a1.25,1.25,0,0,1-1.25-1.25V73.94A1.25,1.25,0,0,1,48.9,72.69Z" transform="translate(130.65 31.6) rotate(90)"/></g></g></g></svg>