<svg xmlns="http://www.w3.org/2000/svg" xmlns:xlink="http://www.w3.org/1999/xlink" version="1.1" id="Layer_1" x="0px" y="0px" viewBox="0 0 100 112" style="enable-background:new 0 0 100 112;" xml:space="preserve">
<style type="text/css">
	.st0{clip-path:url(#SVGID_2_);fill:#fff;}
	.st1{clip-path:url(#SVGID_2_);fill:#FFFFFF;}
	.st2{clip-path:url(#SVGID_2_);fill:none;stroke:#333;stroke-linecap:round;stroke-linejoin:round;stroke-miterlimit:10;}
	.st3{clip-path:url(#SVGID_2_);fill:#D6DAFF;}
	.st4{clip-path:url(#SVGID_2_);fill:#333;}
</style>
<g xmlns="http://www.w3.org/2000/svg">
	<defs>
		<rect id="SVGID_1_" width="100" height="112"/>
	</defs>
	<clipPath id="SVGID_2_">
		<use xmlns:xlink="http://www.w3.org/1999/xlink" xlink:href="#SVGID_1_" style="overflow:visible;"/>
	</clipPath>
	<path class="st0" d="M90,56.5c0,22.1-17.9,40-40,40c-22.1,0-40-17.9-40-40s17.9-40,40-40C72.1,16.5,90,34.4,90,56.5"/>
	<path class="st1" d="M59.6,70.1c-0.2-1.8-1.7-3.1-3.5-3.1H41.5c-1.8,0-3.3,1.4-3.5,3.1l-1.3,13.3c-0.1,0.6,0.3,1.2,0.9,1.4   c7.3,2.6,15.2,2.6,22.4,0c0.6-0.2,0.9-0.8,0.9-1.4L59.6,70.1z"/>
	<path class="st1" d="M61.1,43.7c0.2-1.1,0-2.4-0.9-3c-2.1-1.3-24.1-2-23,5.3l1.6,11c0.3,1.7,1.7,3,3.4,3h13.2   c1.7,0,3.2-1.2,3.4-2.9L61.1,43.7z"/>
	<path class="st2" d="M61.1,43.7c0.2-1.1,0-2.4-0.9-3c-2.1-1.3-24.1-2-23,5.3l1.6,11c0.3,1.7,1.7,3,3.4,3h13.2   c1.7,0,3.2-1.2,3.4-2.9L61.1,43.7z"/>
	
	<path class="st1" d="M56.7,66.9c0-1.9-1.6-3.5-3.5-3.5h-8.7c-1.9,0-3.5,1.6-3.5,3.5H56.7z"/>
	<path class="st2" d="M56.7,66.9c0-1.9-1.6-3.5-3.5-3.5h-8.7c-1.9,0-3.5,1.6-3.5,3.5H56.7z"/>
	<path class="st3" d="M55,52.9c0,2.4,1.2,4.6,3.1,5.8c0.5-0.6,0.7-1.2,0.8-1.9l1.8-10.7C57.5,46.8,55.1,49.6,55,52.9"/>
	<path class="st2" d="M55,52.9c0,2.4,1.2,4.6,3.1,5.8c0.5-0.6,0.7-1.2,0.8-1.9l1.8-10.7C57.5,46.8,55.1,49.6,55,52.9z"/>
	<path class="st3" d="M53.2,59.1c0,2.4-2,4.4-4.4,4.4c-2.4,0-4.4-2-4.4-4.4c0-2.4,2-4.4,4.4-4.4C51.2,54.8,53.2,56.7,53.2,59.1"/>
	<path class="st2" d="M53.2,59.1c0,2.4-2,4.4-4.4,4.4c-2.4,0-4.4-2-4.4-4.4c0-2.4,2-4.4,4.4-4.4C51.2,54.8,53.2,56.7,53.2,59.1z"/>
	<rect x="54.9" y="26.9" class="st1" width="5.2" height="7"/>
	<rect x="54.9" y="26.9" class="st2" width="5.2" height="7"/>
	<path class="st1" d="M60.1,26.9h-5.2v-2.6c0-1.4,1.2-2.6,2.6-2.6c1.4,0,2.6,1.2,2.6,2.6V26.9z"/>
	<path class="st2" d="M60.1,26.9h-5.2v-2.6c0-1.4,1.2-2.6,2.6-2.6c1.4,0,2.6,1.2,2.6,2.6V26.9z"/>
	
		<rect x="46" y="25.3" transform="matrix(0.9952 -9.776115e-02 9.776115e-02 0.9952 -2.5777 4.8861)" class="st1" width="5.2" height="7"/>
	
		<rect x="46" y="25.3" transform="matrix(0.9952 -9.776115e-02 9.776115e-02 0.9952 -2.5777 4.8861)" class="st2" width="5.2" height="7"/>
	<path class="st1" d="M50.8,25l-5.2,0.5l-0.3-2.6c-0.1-1.4,0.9-2.7,2.3-2.9c1.4-0.1,2.7,0.9,2.9,2.3L50.8,25z"/>
	<path class="st2" d="M50.8,25l-5.2,0.5l-0.3-2.6c-0.1-1.4,0.9-2.7,2.3-2.9c1.4-0.1,2.7,0.9,2.9,2.3L50.8,25z"/>
	<polygon class="st1" points="38,39.3 33.4,41.8 31.4,38 35.9,35.4  "/>
	<polygon class="st2" points="38,39.3 33.4,41.8 31.4,38 35.9,35.4  "/>
	<path class="st1" d="M35.9,35.4L31.4,38l-1.3-2.3c-0.7-1.3-0.3-2.9,1-3.6c1.3-0.7,2.9-0.3,3.6,1L35.9,35.4z"/>
	<path class="st2" d="M35.9,35.4L31.4,38l-1.3-2.3c-0.7-1.3-0.3-2.9,1-3.6c1.3-0.7,2.9-0.3,3.6,1L35.9,35.4z"/>
	<rect x="38.1" y="28.7" transform="matrix(0.9671 -0.2545 0.2545 0.9671 -6.713 11.3946)" class="st1" width="5.2" height="5.9"/>
	<rect x="38.1" y="28.7" transform="matrix(0.9671 -0.2545 0.2545 0.9671 -6.713 11.3946)" class="st2" width="5.2" height="5.9"/>
	<path class="st1" d="M42.5,28.1l-5.1,1.3l-0.7-2.5c-0.4-1.4,0.5-2.8,1.9-3.2c1.4-0.4,2.8,0.5,3.2,1.9L42.5,28.1z"/>
	<path class="st2" d="M42.5,28.1l-5.1,1.3l-0.7-2.5c-0.4-1.4,0.5-2.8,1.9-3.2c1.4-0.4,2.8,0.5,3.2,1.9L42.5,28.1z"/>
	<path class="st1" d="M60.1,40.7v-6.9h-5.2V40C57.5,40.1,59.5,40.4,60.1,40.7"/>
	<path class="st2" d="M60.1,40.7v-6.9h-5.2V40C57.5,40.1,59.5,40.4,60.1,40.7z"/>
	<path class="st4" d="M41.9,45.2c-0.5,0-0.9,0.4-0.9,0.9c0,0.5,0.4,0.9,0.9,0.9c0.5,0,0.9-0.4,0.9-0.9   C42.7,45.6,42.3,45.2,41.9,45.2"/>
	<path class="st4" d="M55.8,42.6c-0.5,0-0.9,0.4-0.9,0.9c0,0.5,0.4,0.9,0.9,0.9c0.5,0,0.9-0.4,0.9-0.9C56.7,43,56.3,42.6,55.8,42.6"/>
	<path class="st4" d="M41.9,52.1c-0.5,0-0.9,0.4-0.9,0.9s0.4,0.9,0.9,0.9c0.5,0,0.9-0.4,0.9-0.9S42.3,52.1,41.9,52.1"/>
	<path class="st1" d="M62.8,48.7c-2.5,0-4.4,2-4.4,4.4c0,2.4,1.9,4.4,4.4,4.4c2.2,0,5.3-2.6,8.7-5.8l-4.3-4.3   C65.6,48.1,64,48.7,62.8,48.7"/>
	<path class="st2" d="M62.8,48.7c-2.5,0-4.4,2-4.4,4.4c0,2.4,1.9,4.4,4.4,4.4c2.2,0,5.3-2.6,8.7-5.8l-4.3-4.3   C65.6,48.1,64,48.7,62.8,48.7z"/>
	<path class="st1" d="M77.6,45.9c0.5-0.4,0.7-1,0.6-1.6c-0.1-0.6-0.5-1.1-1.1-1.3c-1.7-0.7-3.7-0.5-5.2,0.8   c-0.3,0.3-0.5,0.5-0.8,0.8l3.8,3.8C75.8,47.5,76.7,46.6,77.6,45.9"/>
	<path class="st2" d="M77.6,45.9c0.5-0.4,0.7-1,0.6-1.6c-0.1-0.6-0.5-1.1-1.1-1.3c-1.7-0.7-3.7-0.5-5.2,0.8   c-0.3,0.3-0.5,0.5-0.8,0.8l3.8,3.8C75.8,47.5,76.7,46.6,77.6,45.9z"/>
	<path class="st1" d="M71.1,44.5c-1.2,1.1-2.6,2.1-4,2.8l4.3,4.3c1.1-1.1,2.3-2.2,3.5-3.3L71.1,44.5z"/>
	<path class="st2" d="M71.1,44.5c-1.2,1.1-2.6,2.1-4,2.8l4.3,4.3c1.1-1.1,2.3-2.2,3.5-3.3L71.1,44.5z"/>
	<path class="st1" d="M52.5,39.9l-1-8l-5.2,0.5l0.7,7.8C48.9,40,50.7,39.9,52.5,39.9"/>
	<path class="st2" d="M52.5,39.9l-1-8l-5.2,0.5l0.7,7.8C48.9,40,50.7,39.9,52.5,39.9z"/>
	<path class="st1" d="M45.9,40.4L44,33.8l-5.1,1.3l2,6.5C42.3,41,44.1,40.6,45.9,40.4"/>
	<path class="st2" d="M45.9,40.4L44,33.8l-5.1,1.3l2,6.5C42.3,41,44.1,40.6,45.9,40.4z"/>
	<path class="st1" d="M37.1,46c-0.3-1.7,0.8-3,2.5-3.9L38,39.3l-4.6,2.6l4.1,7.1L37.1,46z"/>
	<path class="st2" d="M37.1,46c-0.3-1.7,0.8-3,2.5-3.9L38,39.3l-4.6,2.6l4.1,7.1L37.1,46z"/>
	<path class="st2" d="M59.6,70.1c-0.2-1.8-1.7-3.1-3.5-3.1H41.5c-1.8,0-3.3,1.4-3.5,3.1l-1.3,13.3c-0.1,0.6,0.3,1.2,0.9,1.4   c7.3,2.6,15.2,2.6,22.4,0c0.6-0.2,0.9-0.8,0.9-1.4L59.6,70.1z"/>
</g>
</svg>