<svg xmlns="http://www.w3.org/2000/svg" xmlns:xlink="http://www.w3.org/1999/xlink" id="Duotone" viewBox="0 0 100 112"><defs><style>.cls-1,.cls-5,.cls-7{fill:none;}.cls-2{fill:#f0f2ff;}.cls-3{clip-path:url(#clip-path);}.cls-4,.cls-6,.cls-8,.cls-9{fill:#fff;}.cls-5,.cls-6,.cls-7,.cls-8,.cls-9{stroke:#999;}.cls-5,.cls-6,.cls-8{stroke-miterlimit:10;}.cls-7,.cls-8,.cls-9{stroke-linecap:round;}.cls-7,.cls-9{stroke-linejoin:round;}.cls-10{fill:#d6daff;}</style><clipPath id="clip-path"><circle class="cls-1" cx="50" cy="56" r="40"/></clipPath></defs><title/><g id="Icons"><g id="Background"><g id="New_Symbol_4-12" data-name="New Symbol 4"><circle class="cls-2" cx="50" cy="56" r="40"/></g></g><g id="Scene"><g class="cls-3"><path class="cls-4" d="M57.76,53.14a2.76,2.76,0,0,0-5.52,0v1.38a2.76,2.76,0,1,0-5.51,0v1.37a2.76,2.76,0,0,0-5.52,0v3.84c0,7.11,2.76,8.35,2.76,12.41V96.89l15.86-.12V77.66a4.17,4.17,0,0,1,1.64-3.33l1.8-1.43.63-13.17L57.64,58Z"/><path class="cls-5" d="M57.76,53.14a2.76,2.76,0,0,0-5.52,0v1.38a2.76,2.76,0,1,0-5.51,0v1.37a2.76,2.76,0,0,0-5.52,0v3.84c0,7.11,2.76,8.35,2.76,12.41V96.89l15.86-.12V77.66a4.17,4.17,0,0,1,1.64-3.33l1.8-1.43.63-13.17L57.64,58Z"/><path class="cls-6" d="M60,58.54a2.74,2.74,0,0,1-2.32-3.13l3.12-21.14a2.76,2.76,0,0,1,5.46.8L63.16,56.22A2.76,2.76,0,0,1,60,58.54Z"/><line class="cls-7" x1="52.24" y1="54.52" x2="52.24" y2="55.89"/><path class="cls-6" d="M55,59.22a2.77,2.77,0,0,1-2.76-2.76V49.22a2.76,2.76,0,0,1,5.52,0v7.24A2.77,2.77,0,0,1,55,59.22Z"/><line class="cls-7" x1="57.76" y1="48.7" x2="57.76" y2="50.08"/><path class="cls-8" d="M41.23,56.49l-2.66-15.1a2.76,2.76,0,1,1,5.43-1l3,16.85"/><path class="cls-6" d="M49.49,59.56a2.75,2.75,0,0,1-2.76-2.76V48.87a2.76,2.76,0,0,1,5.51,0V56.8A2.75,2.75,0,0,1,49.49,59.56Z"/><path class="cls-9" d="M59.83,77.66a4.17,4.17,0,0,1,1.64-3.33l3.82-2.94A9.14,9.14,0,0,0,69,64.28V59.62a4.14,4.14,0,0,0-4.14-4.14H59A2.75,2.75,0,1,0,59,61h4.62a9.39,9.39,0,0,0-9.33,9.09v2.07"/><path class="cls-7" d="M59.83,77.66a4.17,4.17,0,0,1,1.64-3.33l3.82-2.94A9.14,9.14,0,0,0,69,64.28V59.62a4.14,4.14,0,0,0-4.14-4.14H59A2.75,2.75,0,1,0,59,61h4.62a9.39,9.39,0,0,0-9.33,9.09v2.07"/><line class="cls-7" x1="63.64" y1="60.98" x2="65.08" y2="60.98"/><rect class="cls-10" x="42.54" y="78.69" width="18.61" height="8.27" rx="1" ry="1"/><rect class="cls-7" x="42.54" y="78.69" width="18.61" height="8.27" rx="1" ry="1"/></g></g></g></svg>