<svg xmlns="http://www.w3.org/2000/svg" xmlns:xlink="http://www.w3.org/1999/xlink" id="Duotone" viewBox="0 0 100 112"><defs><style>.cls-1,.cls-6,.cls-8{fill:none;}.cls-2{fill:#f0f2ff;}.cls-3,.cls-7{fill:#d6daff;}.cls-3,.cls-6,.cls-8,.cls-9{stroke:#999;stroke-linejoin:round;}.cls-4{clip-path:url(#clip-path);}.cls-5,.cls-9{fill:#fff;}.cls-6,.cls-9{stroke-linecap:round;}</style><clipPath id="clip-path"><circle class="cls-1" cx="50.04" cy="55.82" r="40"/></clipPath></defs><title></title><g id="Icons"><g id="New_Symbol_13-2" data-name="New Symbol 13"><circle class="cls-2" cx="50.08" cy="55.82" r="40"/></g><circle class="cls-1" cx="50.08" cy="55.82" r="40"/><g class="cls-4"><path class="cls-5" d="M50.48,74.16c.29-3.75,1.21-11.72,4.28-11.17a2.25,2.25,0,0,1,1.82,2.61l-.14.73c-1,5.42.38,11.5,4.92,12.31L59.34,90l-.58-.1c-2.84-.51-4.53,1.22-9.62.31l-8.61-1.54a2,2,0,1,1,.7-3.93l-1-.18a2,2,0,1,1,.7-3.94l-1-.17a2,2,0,0,1,.71-3.94l-1-.18a2,2,0,1,1,.71-3.93Z"/><line class="cls-6" x1="52.45" y1="74.51" x2="50.48" y2="74.16"/><line class="cls-6" x1="41.23" y1="84.7" x2="42.22" y2="84.87"/><line class="cls-6" x1="40.95" y1="80.58" x2="41.93" y2="80.76"/><line class="cls-6" x1="40.67" y1="76.47" x2="41.65" y2="76.65"/><rect class="cls-7" x="63.11" y="79.23" width="24.5" height="15.5" rx="1" ry="1" transform="translate(134.26 185.85) rotate(-169.88)"/><rect class="cls-8" x="63.11" y="79.23" width="24.5" height="15.5" rx="1" ry="1" transform="translate(134.26 185.85) rotate(-169.88)"/><path class="cls-9" d="M61.32,77.81h2a0,0,0,0,1,0,0v13.5a0,0,0,0,1,0,0h-2a1,1,0,0,1-1-1V78.81A1,1,0,0,1,61.32,77.81Z" transform="translate(15.82 -9.55) rotate(10.12)"/><path class="cls-8" d="M50.48,74.16c.29-3.75,1.21-11.72,4.28-11.17a2.25,2.25,0,0,1,1.82,2.61l-.14.73c-1,5.42.38,11.5,4.92,12.31L59.34,90l-.58-.1c-2.84-.51-4.53,1.22-9.62.31l-8.61-1.54a2,2,0,1,1,.7-3.93l-1-.18a2,2,0,1,1,.7-3.94l-1-.17a2,2,0,0,1,.71-3.94l-1-.18a2,2,0,1,1,.71-3.93Z"/></g></g></svg>