<svg id="Duotone" xmlns="http://www.w3.org/2000/svg" viewBox="0 0 100 112"><defs><style>.cls-1{fill:#fff;}.cls-2{fill:#d6daff;}.cls-3{fill:none;}.cls-3,.cls-4{stroke:#333;stroke-linecap:round;stroke-linejoin:round;}.cls-4{fill:#fff;}</style></defs><title></title><g id="Icons"><g id="Background"></g><g id="Scene"><path class="cls-2" d="M50.66,30.17a24.6,24.6,0,1,0,24.6,24.6A24.6,24.6,0,0,0,50.66,30.17Zm0,38.09A13.49,13.49,0,1,1,64.15,54.77,13.49,13.49,0,0,1,50.66,68.26Z"/><path class="cls-3" d="M50.66,30.17a24.6,24.6,0,1,0,24.6,24.6A24.6,24.6,0,0,0,50.66,30.17Zm0,38.09A13.49,13.49,0,1,1,64.15,54.77,13.49,13.49,0,0,1,50.66,68.26Z"/><rect class="cls-4" x="46.69" y="26.99" width="7.93" height="15.87" rx="1" ry="1"/><rect class="cls-4" x="46.69" y="66.67" width="7.93" height="15.87" rx="1" ry="1"/><rect class="cls-4" x="66.53" y="46.83" width="7.94" height="15.87" rx="1" ry="1" transform="translate(125.26 -15.73) rotate(90)"/><rect class="cls-4" x="26.85" y="46.83" width="7.94" height="15.87" rx="1" ry="1" transform="translate(85.59 23.95) rotate(90)"/><path class="cls-3" d="M24.47,58.73l1.78,13.33a11.1,11.1,0,0,0,11.93,9.6L46.69,81"/><path class="cls-3" d="M76.84,58.73,75.07,72.06a11.12,11.12,0,0,1-11.94,9.6L54.63,81"/></g></g></svg>