<svg id="Duotone" xmlns="http://www.w3.org/2000/svg" viewBox="0 0 100 112"><defs><style>.cls-1{fill:#fff;}.cls-2{fill:#d6daff;}.cls-3,.cls-5{fill:#fff;}.cls-4,.cls-6{fill:none;}.cls-4,.cls-5,.cls-6{stroke:#999;}.cls-4,.cls-5{stroke-linecap:round;stroke-linejoin:round;}.cls-6{stroke-miterlimit:10;}</style></defs><title></title><circle class="cls-1" cx="50.59" cy="58.09" r="40"/><ellipse class="cls-2" cx="50.59" cy="87.99" rx="12" ry="1.5"/><path class="cls-2" d="M67.09,76.59h-33v-17a3,3,0,0,1,3-3h27a3,3,0,0,1,3,3Z"/><rect class="cls-3" x="47.09" y="81.59" width="7" height="3"/><rect class="cls-4" x="47.09" y="81.59" width="7" height="3"/><path class="cls-5" d="M56.09,84.59h-11a2,2,0,0,0-2,2v1h15v-1A2,2,0,0,0,56.09,84.59Z"/><path class="cls-5" d="M64.09,81.59h-27a3,3,0,0,1-3-3v-2h33v2A3,3,0,0,1,64.09,81.59Z"/><path class="cls-3" d="M34.09,76.59v-17a3,3,0,0,1,3-3h17Z"/><path class="cls-4" d="M67.09,76.59h-33v-17a3,3,0,0,1,3-3h27a3,3,0,0,1,3,3Z"/><circle class="cls-6" cx="50.59" cy="79.09" r="0.5"/><rect class="cls-2" x="37.09" y="59.59" width="27" height="14" rx="1" ry="1"/><path class="cls-3" d="M51.09,59.59h-13a1,1,0,0,0-1,1v12a1,1,0,0,0,.29.7Z"/><rect class="cls-4" x="37.09" y="59.59" width="27" height="14" rx="1" ry="1"/><line class="cls-4" x1="42.09" y1="59.59" x2="42.09" y2="73.59"/><line class="cls-4" x1="39.09" y1="62.59" x2="40.09" y2="62.59"/><line class="cls-4" x1="39.09" y1="64.59" x2="40.09" y2="64.59"/><line class="cls-4" x1="39.09" y1="66.59" x2="40.09" y2="66.59"/><line class="cls-4" x1="39.09" y1="68.59" x2="40.09" y2="68.59"/><line class="cls-4" x1="39.09" y1="70.59" x2="40.09" y2="70.59"/><line class="cls-4" x1="44.09" y1="62.59" x2="47.09" y2="62.59"/><line class="cls-4" x1="46.09" y1="64.59" x2="54.09" y2="64.59"/><line class="cls-4" x1="46.09" y1="66.59" x2="49.09" y2="66.59"/><line class="cls-4" x1="44.09" y1="68.59" x2="49.09" y2="68.59"/><line class="cls-4" x1="46.09" y1="70.59" x2="52.59" y2="70.59"/><path class="cls-3" d="M70.32,19.82a7.1,7.1,0,0,0,.2-1.61,6.92,6.92,0,0,0-11.13-5.52,13.9,13.9,0,0,0-24.49,9s0,0,0,.08a8.27,8.27,0,0,0-.87-.08,6.95,6.95,0,1,0,0,13.9H65.31a8.68,8.68,0,0,0,5-15.77Z"/><path class="cls-4" d="M70.32,19.82a7.1,7.1,0,0,0,.2-1.61,6.92,6.92,0,0,0-11.13-5.52,13.9,13.9,0,0,0-24.49,9s0,0,0,.08a8.27,8.27,0,0,0-.87-.08,6.95,6.95,0,1,0,0,13.9H65.31a8.68,8.68,0,0,0,5-15.77Z"/><path class="cls-2" d="M40,35.81l-4.5,5.46a2,2,0,0,0,3.09,2.54l1.2-1.45a11,11,0,0,0,10.76,8.73,2,2,0,0,0,0-4,7,7,0,0,1-6.87-5.65l2.05,1.69a2,2,0,0,0,2.81-.27A2,2,0,0,0,49,41.59,2,2,0,0,0,48.31,40l-5.45-4.5a2,2,0,0,0-2.82.27Z"/><path class="cls-4" d="M40,35.81l-4.5,5.46a2,2,0,0,0,3.09,2.54l1.2-1.45a11,11,0,0,0,10.76,8.73,2,2,0,0,0,0-4,7,7,0,0,1-6.87-5.65l2.05,1.69a2,2,0,0,0,2.81-.27A2,2,0,0,0,49,41.59,2,2,0,0,0,48.31,40l-5.45-4.5a2,2,0,0,0-2.82.27Z"/><path class="cls-2" d="M50.59,29.09a2,2,0,1,0,0,4,7,7,0,0,1,6.86,5.64L55.4,37a2,2,0,0,0-2.54,3.09l5.45,4.5a2,2,0,0,0,2.82-.27l4.5-5.46a2,2,0,0,0,.46-1.27,2,2,0,0,0-.73-1.54,2,2,0,0,0-2.82.27l-1.19,1.45A11,11,0,0,0,50.59,29.09Z"/><path class="cls-4" d="M50.59,29.09a2,2,0,1,0,0,4,7,7,0,0,1,6.86,5.64L55.4,37a2,2,0,0,0-2.54,3.09l5.45,4.5a2,2,0,0,0,2.82-.27l4.5-5.46a2,2,0,0,0,.46-1.27,2,2,0,0,0-.73-1.54,2,2,0,0,0-2.82.27l-1.19,1.45A11,11,0,0,0,50.59,29.09Z"/></svg>