<?xml version="1.0" standalone="no"?>
<!DOCTYPE svg PUBLIC "-//W3C//DTD SVG 20010904//EN"
 "http://www.w3.org/TR/2001/REC-SVG-20010904/DTD/svg10.dtd">
<svg version="1.0" xmlns="http://www.w3.org/2000/svg"
 width="266.000000pt" height="342.000000pt" viewBox="0 0 266.000000 342.000000"
 preserveAspectRatio="xMidYMid meet">

<g transform="translate(0.000000,342.000000) scale(0.100000,-0.100000)"
fill="rgba(0,0,0,0.1)" stroke="none">
<path d="M1320 3224 c-28 -24 -34 -25 -55 -14 -24 13 -35 11 -67 -12 -13 -10
-22 -9 -42 2 -24 12 -28 11 -55 -14 -24 -23 -34 -26 -65 -21 -32 6 -37 5 -46
-19 -6 -18 -17 -26 -33 -26 -13 0 -34 -11 -47 -25 -13 -14 -29 -25 -37 -25
-15 0 -56 -35 -135 -115 -103 -105 -108 -110 -108 -125 0 -8 -14 -33 -30 -54
-17 -22 -30 -48 -30 -58 0 -10 -9 -36 -19 -56 -40 -78 -57 -216 -42 -332 15
-121 24 -148 90 -267 23 -43 176 -183 199 -183 5 0 15 -7 22 -15 7 -8 19 -15
28 -15 8 0 23 -6 31 -14 18 -15 91 -31 91 -19 0 4 -30 24 -67 43 -88 47 -211
163 -250 237 -52 97 -66 161 -61 282 7 176 71 315 202 446 124 123 256 183
422 192 284 17 487 -112 502 -318 6 -91 -3 -101 -82 -99 -34 1 -67 2 -73 1
-21 -2 -15 -42 12 -77 l26 -34 -20 -37 c-11 -21 -34 -68 -51 -105 -17 -37 -60
-104 -96 -150 -36 -45 -81 -113 -100 -150 -33 -65 -183 -257 -224 -285 -11 -8
-88 -29 -172 -48 -230 -53 -274 -70 -386 -156 -78 -60 -106 -75 -167 -89 -97
-22 -178 29 -207 132 l-16 53 -16 -37 c-22 -52 -20 -86 10 -146 43 -86 112
-128 192 -115 33 6 36 5 24 -10 -8 -9 -29 -21 -48 -27 -38 -13 -43 -25 -15
-40 26 -13 58 -12 103 4 41 15 43 14 28 -15 -9 -15 -7 -19 5 -19 19 0 73 27
99 49 18 15 18 15 10 -9 -9 -24 -10 -214 -3 -370 4 -93 -11 -125 -84 -178 -78
-58 -92 -78 -92 -126 0 -32 9 -54 42 -101 126 -179 141 -205 159 -274 l18 -71
103 0 c57 0 103 2 103 4 0 26 -29 61 -73 90 -90 57 -155 164 -142 234 9 50 92
128 189 177 43 22 91 55 106 73 41 50 125 217 148 297 30 99 75 143 163 155
35 5 89 10 119 10 85 1 180 25 300 76 73 31 122 59 145 82 l33 35 89 -48 c160
-88 263 -155 263 -174 0 -35 -46 -71 -148 -116 l-62 -28 -50 47 c-27 25 -55
46 -63 46 -7 0 -31 -18 -52 -41 l-40 -41 38 -33 c58 -51 124 -78 187 -79 47
-1 66 5 130 42 102 59 233 157 242 183 12 32 -13 75 -137 228 l-112 141 -7 74
c-8 91 -29 164 -56 199 -12 15 -26 53 -31 85 -9 47 -19 67 -51 103 -56 60 -80
120 -86 207 -3 39 -2 72 1 72 3 0 17 -5 30 -11 25 -12 37 -47 37 -117 0 -41
22 -84 56 -111 33 -26 58 -27 84 -1 30 30 25 42 -15 34 -31 -5 -36 -3 -47 21
-21 47 31 86 70 52 40 -34 101 -25 120 18 35 76 22 128 -56 233 -25 32 -43 72
-51 108 -10 45 -22 66 -56 100 -24 24 -40 46 -34 49 18 12 9 49 -18 78 -26 26
-28 35 -28 105 l0 76 -51 36 c-35 24 -60 52 -78 87 -37 70 -55 83 -122 92 -50
7 -63 13 -91 46 l-33 38 -51 -11 c-55 -13 -70 -9 -108 32 -31 33 -42 33 -81 0z"/>
<path d="M2265 2023 c-76 -50 -205 -158 -205 -171 0 -7 7 -23 15 -35 13 -20
29 -75 59 -201 7 -27 10 -23 67 75 117 203 131 213 173 127 28 -58 56 -157 56
-198 0 -16 -17 -45 -45 -77 -25 -28 -45 -55 -45 -60 0 -7 49 -49 78 -67 18
-11 67 36 94 89 18 35 20 52 15 140 -9 158 -53 287 -125 367 -42 47 -79 50
-137 11z"/>
<path d="M1180 1152 c-66 -30 -89 -63 -115 -162 -9 -36 -37 -108 -61 -161 -24
-53 -44 -108 -44 -123 0 -36 27 -87 96 -176 65 -86 110 -175 120 -236 l6 -41
51 -7 c94 -11 157 -8 157 9 0 31 -26 68 -61 85 -64 33 -126 129 -154 238 -23
89 2 190 73 294 24 36 31 60 40 146 18 153 21 142 -40 141 -29 0 -60 -3 -68
-7z"/>
</g>
</svg>
