<!DOCTYPE svg PUBLIC "-//W3C//DTD SVG 20010904//EN" "http://www.w3.org/TR/2001/REC-SVG-20010904/DTD/svg10.dtd">
<svg version="1.0" xmlns="http://www.w3.org/2000/svg" width="400px" height="400px" viewBox="0 0 4000 4000" preserveAspectRatio="xMidYMid meet">
<g id="layer101" fill="#3c3c3c" stroke="none">
 <path d="M455 3922 c-104 -35 -168 -77 -249 -162 -70 -74 -123 -172 -147 -270 -12 -45 -14 -314 -14 -1490 0 -1576 -4 -1479 63 -1620 46 -99 167 -222 262 -269 133 -64 33 -61 1632 -61 l1457 0 79 25 c183 58 329 205 387 388 l25 78 0 1459 0 1459 -25 78 c-58 183 -204 330 -387 388 l-79 25 -1462 0 -1462 0 -80 -28z"/>
 </g>
<g id="layer102" fill="#3c3c3c" stroke="none">
 <path d="M455 3922 c-104 -35 -168 -77 -249 -162 -70 -74 -123 -172 -147 -270 -12 -45 -14 -314 -14 -1490 0 -1576 -4 -1479 63 -1620 46 -99 167 -222 262 -269 133 -64 33 -61 1632 -61 l1457 0 79 25 c183 58 329 205 387 388 l25 78 0 1459 0 1459 -25 78 c-58 183 -204 330 -387 388 l-79 25 -1462 0 -1462 0 -80 -28z m1015 -387 c0 -33 -30 -71 -69 -88 -71 -32 -142 -137 -143 -212 -2 -72 68 -143 199 -206 35 -17 75 -45 93 -67 40 -49 124 -212 144 -283 31 -111 93 -169 180 -169 90 0 229 -20 296 -42 109 -36 229 -95 259 -129 l29 -32 104 58 c174 97 248 146 248 164 0 25 -36 55 -106 90 -100 49 -103 49 -169 -8 l-58 -50 -40 50 -40 50 29 30 c61 64 180 101 250 79 44 -14 243 -143 293 -189 52 -49 40 -77 -124 -274 l-96 -117 -14 -103 c-15 -113 -27 -152 -56 -183 -11 -11 -24 -45 -28 -75 -12 -71 -18 -85 -45 -102 -12 -8 -37 -43 -55 -76 -25 -48 -34 -78 -38 -137 l-6 -76 32 17 c30 15 32 20 27 51 -4 18 -2 53 5 76 14 52 76 118 111 118 30 0 61 -31 56 -56 -4 -22 -28 -31 -28 -10 0 26 -39 19 -52 -8 -25 -55 16 -80 77 -46 71 39 119 6 132 -89 6 -43 -14 -87 -76 -170 -23 -30 -41 -62 -41 -71 0 -42 -34 -111 -70 -144 -22 -19 -35 -38 -30 -41 19 -12 10 -46 -21 -85 -30 -38 -31 -40 -20 -87 16 -64 6 -86 -54 -126 -36 -23 -59 -50 -86 -97 -41 -73 -64 -90 -129 -90 -41 0 -49 -4 -82 -42 -36 -42 -37 -43 -70 -30 -62 26 -66 25 -104 -12 -44 -43 -62 -45 -94 -11 -28 30 -41 31 -65 5 l-18 -20 -27 25 c-24 23 -29 24 -59 12 -31 -11 -34 -10 -58 17 -23 27 -27 28 -60 18 -34 -10 -36 -10 -46 19 -10 25 -16 29 -38 24 -22 -5 -31 0 -49 24 -12 17 -30 31 -40 31 -10 0 -28 13 -40 30 -12 16 -30 30 -40 30 -12 0 -22 9 -25 23 -3 12 -19 30 -36 39 -16 10 -33 28 -39 42 -5 14 -18 30 -30 36 -11 6 -20 19 -20 30 0 11 -13 35 -30 53 -16 19 -30 43 -30 53 0 11 -11 43 -25 72 -14 30 -25 68 -25 85 -1 18 -6 42 -13 55 -14 25 -12 253 2 262 5 3 12 24 16 47 3 23 13 47 21 54 8 6 14 17 14 25 0 30 149 214 174 214 5 0 18 7 28 17 49 44 202 110 213 92 3 -5 -8 -17 -24 -26 -17 -10 -58 -34 -92 -53 -71 -40 -172 -144 -211 -216 -54 -101 -73 -250 -47 -376 15 -74 88 -222 143 -290 134 -167 335 -257 546 -244 147 9 254 46 334 117 69 60 114 203 87 273 -11 28 -13 28 -69 23 -31 -3 -67 -8 -79 -12 -20 -7 -23 -4 -23 23 0 21 11 43 31 66 l31 36 -21 26 c-12 15 -21 32 -21 38 0 31 -73 157 -119 206 -34 35 -68 88 -96 145 -28 57 -70 121 -116 175 -39 47 -78 95 -86 107 -20 30 -74 48 -226 78 -173 34 -265 71 -352 141 -93 75 -155 104 -225 104 -91 0 -146 -51 -166 -155 l-7 -39 -18 23 c-46 57 -30 143 42 224 45 52 93 72 150 63 21 -3 39 -4 39 -1 0 10 -59 35 -89 37 -41 3 -39 12 5 33 36 17 74 17 133 -1 l23 -7 -18 28 -18 28 24 -8 c36 -11 82 -35 104 -54 18 -15 19 -15 12 4 -36 98 -44 214 -21 291 33 110 9 212 -61 254 -58 34 -102 80 -109 110 -8 38 12 82 78 167 95 122 127 185 142 276 l6 37 104 0 c88 0 105 -2 105 -15z m594 -82 c-10 -44 -30 -69 -71 -90 -22 -11 -54 -43 -75 -73 -104 -147 -104 -301 -1 -451 27 -40 33 -59 43 -150 6 -57 14 -114 17 -126 5 -21 2 -23 -38 -23 -108 0 -171 41 -194 128 -34 122 -56 184 -82 224 -35 57 -45 103 -29 147 7 20 46 81 87 136 78 105 112 172 124 242 6 40 8 42 48 48 23 3 65 7 92 8 28 2 58 4 68 5 14 2 16 -3 11 -25z m1073 -1180 c34 -37 61 -93 69 -140 6 -42 -17 -194 -43 -274 -26 -81 -85 -171 -126 -194 l-37 -20 -42 23 c-39 20 -116 78 -208 155 -28 24 -32 31 -22 45 27 38 46 92 60 179 l15 93 62 -108 c119 -208 129 -217 171 -154 19 27 64 184 64 220 0 6 -23 37 -51 69 l-50 58 43 37 c24 21 49 38 56 38 7 0 24 -12 39 -27z"/>
 </g>

</svg>