<!DOCTYPE svg PUBLIC "-//W3C//DTD SVG 20010904//EN" "http://www.w3.org/TR/2001/REC-SVG-20010904/DTD/svg10.dtd">
<svg version="1.0" xmlns="http://www.w3.org/2000/svg" width="400px" height="400px" viewBox="0 0 4000 4000" preserveAspectRatio="xMidYMid meet">
<g id="layer102" fill="#333" stroke="none">
 <path d="M455 3922 c-104 -35 -168 -77 -249 -162 -70 -74 -123 -172 -147 -270 -12 -45 -14 -314 -14 -1490 0 -1576 -4 -1479 63 -1620 46 -99 167 -222 262 -269 133 -64 33 -61 1632 -61 l1457 0 79 25 c183 58 329 205 387 388 l25 78 0 1459 0 1459 -25 78 c-58 183 -204 330 -387 388 l-79 25 -1462 0 -1462 0 -80 -28z m1015 -386 c0 -1 -5 -17 -11 -35 -8 -23 -24 -38 -55 -53 -68 -32 -131 -114 -148 -195 -15 -69 56 -151 193 -220 40 -21 86 -53 101 -71 41 -50 125 -217 148 -297 30 -99 75 -143 163 -155 35 -5 89 -10 119 -10 84 -1 179 -24 301 -76 74 -31 122 -58 144 -81 l34 -35 88 48 c165 89 263 154 263 174 0 24 -53 68 -117 96 -92 41 -95 41 -152 -10 -28 -25 -56 -46 -61 -46 -5 0 -25 20 -46 45 l-37 46 29 30 c37 39 117 77 177 85 42 6 56 2 120 -29 96 -49 257 -165 268 -195 14 -36 -8 -74 -132 -227 l-113 -140 -13 -100 c-14 -108 -26 -148 -55 -181 -10 -11 -23 -48 -29 -81 -8 -47 -19 -68 -49 -102 -57 -62 -82 -122 -88 -207 l-5 -74 32 11 c30 11 31 12 31 75 0 38 6 77 15 93 19 38 71 81 97 81 27 0 58 -28 58 -51 0 -24 -19 -34 -26 -15 -10 25 -43 19 -56 -10 -24 -53 29 -82 81 -44 25 20 33 21 64 11 27 -9 39 -21 51 -52 9 -22 16 -48 16 -60 0 -32 -28 -89 -71 -147 -26 -34 -47 -78 -59 -120 -15 -54 -26 -74 -60 -104 -23 -21 -36 -39 -30 -43 19 -12 10 -47 -19 -81 -28 -32 -29 -36 -24 -107 l6 -73 -55 -33 c-44 -27 -60 -44 -87 -97 -38 -73 -51 -83 -124 -91 -44 -4 -58 -11 -89 -44 -42 -44 -47 -45 -89 -23 -37 18 -58 13 -93 -26 -32 -37 -55 -38 -86 -5 -29 30 -37 31 -66 4 l-22 -20 -20 25 c-20 27 -46 34 -57 16 -11 -19 -44 -10 -61 15 -15 23 -21 25 -60 19 -41 -6 -43 -5 -50 20 -5 23 -11 27 -38 24 -24 -2 -33 2 -41 20 -6 14 -22 26 -38 29 -16 3 -36 17 -44 30 -9 14 -27 29 -41 34 -13 5 -26 18 -29 28 -2 10 -16 24 -29 30 -13 6 -30 23 -37 38 -6 16 -22 36 -34 46 -13 10 -23 24 -23 31 0 7 -13 30 -30 51 -16 21 -30 47 -30 59 0 11 -12 44 -25 71 -14 28 -25 62 -25 76 0 15 -7 42 -15 62 -8 19 -12 36 -10 39 3 2 5 51 6 109 1 57 6 107 11 110 5 3 12 25 15 47 3 23 12 47 19 53 8 6 14 19 14 29 0 9 9 25 20 35 11 10 20 24 20 31 0 16 122 144 137 144 6 0 17 7 24 16 7 9 22 20 34 25 11 5 39 20 62 33 24 13 62 27 85 31 39 7 41 6 29 -9 -7 -9 -19 -16 -26 -16 -26 0 -163 -100 -218 -159 -97 -106 -137 -208 -137 -354 0 -154 53 -296 156 -421 129 -156 314 -246 506 -246 272 0 468 142 468 338 0 72 -14 86 -86 80 -32 -3 -67 -9 -76 -13 -32 -13 -23 49 13 89 l31 36 -20 27 c-11 16 -23 39 -27 53 -14 45 -74 159 -89 167 -29 16 -97 113 -130 185 -21 44 -62 106 -106 158 -40 47 -79 95 -87 107 -20 30 -68 47 -223 78 -199 40 -260 65 -369 153 -178 143 -331 124 -373 -45 l-14 -58 -19 29 c-44 67 -10 179 77 249 33 26 45 30 99 30 71 -1 68 11 -12 36 l-52 17 36 17 c43 21 77 21 122 3 40 -17 41 -15 18 21 -17 25 -17 26 7 18 36 -11 82 -35 104 -54 18 -15 19 -15 13 1 -36 100 -42 242 -13 326 15 45 16 60 6 101 -16 67 -43 107 -87 130 -62 32 -98 76 -97 120 1 42 12 60 103 181 71 93 95 141 112 218 l11 52 104 0 c57 0 104 -2 104 -4z m595 -78 c-16 -51 -32 -73 -70 -92 -46 -25 -105 -104 -136 -185 -40 -106 -24 -214 50 -328 35 -54 39 -68 51 -173 6 -63 15 -121 18 -129 4 -12 -5 -13 -61 -8 -119 11 -147 37 -182 165 -29 105 -47 150 -81 203 -17 27 -24 53 -24 87 0 51 14 76 115 207 48 63 92 156 101 211 l6 42 77 7 c72 6 116 10 134 14 5 0 5 -9 2 -21z m1070 -1185 c71 -75 84 -158 51 -321 -41 -196 -133 -322 -213 -291 -31 12 -143 94 -213 157 -44 39 -45 40 -27 60 24 26 53 120 62 200 l7 62 71 -123 c96 -166 111 -185 134 -171 28 16 62 94 80 181 l17 80 -52 59 -52 58 42 38 c24 20 48 37 55 38 7 0 24 -12 38 -27z"/>
 </g>

</svg>