<svg width="802" height="602" xmlns="http://www.w3.org/2000/svg">

 <g>
  <g stroke="null" id="svg_16">
   <g stroke="null" transform="matrix(0.7821803571246594,0,0,0.7825783704626456,-6363.5113732353375,-4784.92016785577) " id="svg_13" fill="#1ea69a">
    <path stroke="null" id="svg_14" d="m9158.56896,6445.103101c-1.6,-11.7 -3.1,-24 -9.6,-34.2c-5.3,-8.1 -10.6,-16.5 -17.9,-23c-5.7,-3.6 -12.6,-5 -19.2,-5.8c-4.7,-0.8 -8.5,2.5 -12.2,4.8c0.4,-1.1 1,-3.3 1.3,-4.4c4.3,-1 8,-3.2 9.4,-7.6c8.8,-1.3 16,-8.2 18.2,-16.7c0.9,-3.2 -0.3,-6.3 -2.7,-8.5c-2.6,1.3 -5.2,2.6 -7.7,3.8c4.1,-15.5 3.6,-31.7 3.1,-47.6c-1.5,-31.3 -19.3,-61.1 -45.6,-77.9c-16.1,-10.1 -35.6,-10.7 -54.1,-11.4c-5.2,0.2 -10.6,-0.7 -15.6,1c-1.3,3.3 3.1,4.4 5,5.8c0.5,1.8 -0.9,5.2 2.4,5c1.8,-1 4.5,-1.5 4.1,-4.2c-1.3,0.4 -3.8,1.2 -5,1.6c1.3,-3.4 -2.3,-4.9 -4.3,-6.8c19.6,-0.7 40,-0.6 58.5,6.8c18.8,7.7 32,24.3 41.9,41.3c8.6,15.2 10.8,33 11.1,50.2c0.1,10.8 -0.2,21.8 -2.9,32.2c-0.6,1.8 -0.9,4.1 -2.8,5.2c-3.2,0.4 -6.6,0.5 -9.7,-0.4c-6.5,-4.7 -8.9,-12.8 -13.3,-19.2c-3.6,-3.4 -8.6,-4.9 -13.1,-6.6c-16.1,-5.7 -32.4,-10.9 -47.8,-18.3c-10.6,-4.7 -20.5,-10.9 -31.1,-15.5c-6.2,-2.8 -13.1,-2.2 -19.8,-3.2c-7.5,-1.2 -15.4,-4.4 -19.3,-11.3c-2.1,-3.4 -0.3,-7.4 1.2,-10.6c6.3,-12.3 14.3,-23.8 23.8,-34c3.8,-3.8 7.9,-7.7 12.9,-9.9c3.8,-2.1 7.9,1.6 11.7,-0.5c-5.9,-4 -13.7,-2.2 -18.7,2.3c-11.7,10 -21.2,22.4 -28.8,35.8c-2.6,5.2 -6.3,11.3 -3.7,17.3c3.6,7.6 12,11.6 19.8,13.1c6,1.4 12.3,0.1 18.1,2.4c9.2,3.5 17.9,8.5 26.8,12.6c17.8,8.8 36.2,15.9 55,22.2c4.4,1.8 10,2.9 12.3,7.6c2.9,5.6 7.1,10.4 9.7,16.2c-17.6,-2.2 -35,-6.4 -51.2,-13.7c-17.9,-7.5 -35.3,-16.1 -52.5,-24.9c-7.6,-4 -15.3,-8 -22.3,-13c-7.6,-5.5 -12.6,-13.8 -20.3,-19.2c-4.5,-2.4 -8.1,2.1 -12.2,3.2c-12.7,3.5 -25.7,5.9 -38.5,8.6c-65.9,13.6 -132,26.1 -197.9,39.8c-2.3,0.3 -4.3,2.5 -6.6,1.5c-2,-11.4 -4.1,-23 -8.8,-33.7c-5.7,-12.8 -16.2,-22.7 -27.8,-30.1c-19.8,-12.4 -44.8,-17.7 -67.6,-11.6c-16.6,3.8 -32.3,14 -40.3,29.4c-4.9,8.9 -6.3,19 -7.8,28.9c0.4,1.7 0.8,3.5 1.2,5.2c1.8,-12.6 3.6,-25.8 10.6,-36.9c6.7,-11.9 19.4,-19.1 32,-23.3c19.3,-6 40.9,-4.6 59.2,4.3c11.6,5.5 22.8,12.6 30.9,22.7c8.5,10.2 12.3,23.3 14.6,36.1c1,6.4 2.6,12.9 1.6,19.4c-2.5,-9.9 -3.3,-20.2 -6.9,-29.9c-4,-10.8 -10,-21.5 -19.1,-28.7c-11.1,-7.2 -24,-10.7 -36.6,-13.9c-14.9,-3.2 -31.4,-6.4 -45.7,1c-19,10 -32.8,28.8 -37.9,49.6c0.4,0.9 1.1,2.6 1.5,3.4c4.4,-22.7 19.5,-43.7 41,-52.8c6.7,-3.2 14.2,-2.4 21.3,-2.4c11.5,0.5 22.6,4 33.6,7.2c11.7,3.6 23.7,9.1 30.8,19.6c10.2,13.7 14,30.9 14.6,47.7c-13.9,4.4 -28.3,7.6 -42.3,11.8c-22.6,6.7 -46.8,5.8 -69.8,1.8c-9.7,-1.9 -19.5,-3.8 -28.4,-8.2c-4.3,-2.1 -7.4,-5.8 -9.6,-9.9c-5.4,4 -4,11.5 -3.2,17.3c1.1,8.4 6.6,16.2 15,18.7c14,4.7 29.1,6.2 43.9,5.2c24.6,-2.1 48.5,-10 73.2,-11.2c1.8,0.2 4.5,-0.5 5.7,1.3c0.7,4.6 -1.3,9.2 -3.9,13c-2.7,4.3 -8.5,4.4 -11.4,8.5c-2.9,3 -2.8,7.4 -4.1,11.1c-2.3,-2.7 -3.3,-7.5 -7.4,-8c-2.8,0.7 -2.7,4.2 -2.6,6.4c-0.2,5.6 4,10.3 3.2,15.9c-3.6,0.1 -8.9,0.9 -10.3,-3.4c-2.2,-6.2 -1.9,-13.1 -1,-19.6c0.9,-5.9 6.2,-11 12.3,-10.4c4.2,1.8 3,7.8 6.4,10.6c-0.3,-5.3 -1.1,-10.8 -4.3,-15.2c-2.3,-3 -6.4,-1.7 -9.4,-0.5c-9,3.8 -16.4,11.1 -20.9,19.8c-4.1,7.7 -11.2,14.7 -20.4,15.2c-8.1,0.2 -16.1,-2.7 -22.7,-7.2c-6,-4.2 -7.4,-11.7 -10.6,-17.7c-2.4,3.3 -2.4,7.4 -3.1,11.2c-1.6,10.7 -2.2,22.3 2.9,32.2c5.1,9.5 13,17.8 22.9,22.1c4.7,2.1 10.1,2.1 15.1,3.2c3.5,1.3 5.8,4.6 8.8,6.7c8.2,5.8 17.5,10.6 24.3,18.2c-11.2,8 -25.9,10 -39.2,6.9c-13.4,-3.8 -25.2,-11.9 -35.6,-21.1c-8.5,-7.8 -16.4,-17.3 -18.1,-29.1c-1.5,-12.3 0.5,-25.4 6.5,-36.3c3.6,-7.2 10.5,-12.2 13.8,-19.5c-12.5,2.5 -28,4.5 -34.7,16.9c-6.4,11.5 -8.8,24.7 -11.4,37.4c-4.5,22.6 -3,46 2.1,68.3c5.5,25.3 13.7,50.1 25,73.4c11.5,24 24.6,47.2 37.8,70.3c3.1,5 5.7,10.4 9.6,14.8c4.7,1.6 1.7,-6.3 2.7,-8.3c-1.2,1.4 -1.9,3 -2.4,4.7c-8.5,-12.4 -15.6,-25.8 -23.1,-38.9c-13.9,-25.4 -28.3,-50.8 -37,-78.6c-7.5,-23.3 -14.5,-47.3 -15.4,-72c-0.7,-15.1 1.6,-30.2 5.1,-44.9c2.2,-9.1 4.2,-18.7 9.4,-26.7c6.2,-8.9 17.6,-11.2 27.4,-14c-5.7,9.5 -14.2,18 -16.2,29.4c-1.2,8.9 -1.8,17.9 -1.1,26.9c2.6,11.4 10.6,20.7 19,28.5c14.3,12.8 32.7,23.3 52.5,22.1c9.6,0.8 17.5,-5.7 26.1,-8.2c3.3,4.3 9.2,8.9 7.5,14.8c-7.5,7.3 -19.6,4.7 -27.9,10.6c-0.9,2.7 2.2,4.1 3.9,5.5c9.5,6.1 20.1,10.2 30.1,15.5c-2.9,5.2 -6.2,10.9 -11.9,13.4c-10.6,2.2 -21.3,-1.5 -30.5,-6.7c-24.9,-14.2 -45.6,-34.2 -68.3,-51.4c-3.8,-2.4 -7.2,-6.3 -11.9,-6.3c-2.8,2.5 -0.1,6.2 0.9,8.9c9.2,18.4 20.6,35.5 32.5,52.2c9.7,13.5 19.9,26.8 31.2,39c22.8,24.3 36.2,55.8 59.4,79.7c4.1,4.3 9.1,7.7 14.8,9.4c0.9,-0.7 1.7,-1.4 2.6,-2.1c-2.5,0 -4.9,-0.5 -7,-1.9c-8.5,-5 -14.8,-12.6 -20.7,-20.3c-14.7,-19.2 -25.9,-41 -41.7,-59.5c-22.9,-25.1 -43,-52.5 -60.4,-81.6c-3.8,-7 -8.3,-13.7 -10.3,-21.5c4.9,1.3 8.7,5 12.6,8c19.3,15.4 37.7,31.9 58.5,45.2c10,6.2 21.2,12.2 33.3,12c8.9,-0.2 15.1,-7.7 18.8,-15c1.5,-1.9 -1.2,-3.1 -2.6,-4c-10.1,-5.9 -20.9,-10.6 -30.8,-16.8c5,-3.9 11.8,-3.8 17.6,-5.8c4.2,-1.5 9.9,-2.7 11.4,-7.5c-0.9,-6.3 -7,-10.5 -7.9,-16.8c10.5,-3.6 21.6,-4.1 32.6,-5.2c7.2,-0.7 14.9,-0.2 21.2,3.8c11.1,6.7 21,15 31.8,22.2c0.2,0.4 0.4,1.1 0.6,1.5c-9.8,0.1 -19.6,-2.4 -29.5,-1.3c-6,0.2 -11.4,3 -16.2,6.3c-12,8 -21.8,18.8 -29.5,31.1c-4.4,7.1 -7.8,14.9 -8.8,23.2c-2.6,20 -2.4,40.4 0.3,60.4c1.2,10.9 6.9,20.9 14.5,28.5c5.2,4.6 13.3,9.8 20,5.2c9.7,-7.2 12.5,-19.7 19.8,-28.8c0.1,7.3 -1.2,14.5 -2.4,21.6c-1,5 -1.8,10.9 -6.1,14.3c-5.2,3.9 -12.1,3.5 -18.3,3.5c0,0.7 0,2 0,2.6c6.9,-0.8 15.3,0.5 20.5,-5.2c8,-8.3 5,-20.9 8.8,-31c6.6,8.6 11.2,18.4 16.5,27.8c2.2,4.7 5.8,10.5 2.4,15.5c-2.6,4.1 -8,2.4 -11.9,2c-11.1,-2.1 -22.4,-1.9 -33.6,-2.8c-8.3,-0.5 -15,-6 -21.1,-11c-19.8,-16.7 -38.1,-34.8 -57.6,-51.7c-2.9,-2.4 -5.7,-5.5 -9.7,-5.7c1.6,7 7.3,12 11.4,17.6c6.4,8.6 14.4,16.1 19.5,25.7c-12.2,-3.4 -22,-12.3 -34.2,-15.8c2.5,6.7 7.7,12.6 8.2,20c0.7,0.1 2.1,0.4 2.9,0.5c-1.5,-5.7 -3.9,-10.9 -5.7,-16.5c9.5,4.9 18.5,10.9 28.8,14c1.6,0.9 5.1,-0.7 3,-2.6c-8.4,-13.6 -20.6,-24.4 -29.1,-37.9c1.5,0.7 2.8,1.6 4.1,2.7c18.1,16.1 35.6,32.8 53.8,48.7c6.4,5.4 13.2,11.1 21.6,13.1c14,2.9 28.6,1 42.5,4.8c-4,5.5 -11.4,6.7 -17.4,8.8c-7.3,1.6 -13.9,5.1 -20.3,8.8c-5.8,3.3 -12.2,-0.5 -16.8,-4.3c-11.7,-9.8 -22.1,-21 -33.4,-31.2c-1.6,-1.5 -3.5,-2.6 -5.5,-3.6c-0.1,2.3 -0.2,4.7 0.7,6.9c5.2,13.1 15.5,23.2 22.9,34.9c-5.4,-2.2 -9.4,-6.7 -15.1,-8.2c0.7,3 1.5,6.1 2.2,9.1c-15.1,-8.3 -25.1,-23.2 -34.8,-36.8c-0.9,0 -1.8,0 -2.6,0c0.4,0.5 0.7,1.2 0.9,1.8c0.1,0 0.2,0 0.2,0c9.9,13.3 19.3,28 34.2,36.3c17.8,9.9 30.1,26.9 47.9,36.8c6.9,3.8 13.1,8.6 20.6,11.5c5.2,4.3 9.1,10.6 16.1,12.2c2.6,4 3.3,11 9.5,11.1c16.2,0.4 31.2,-7.6 44.5,-16.1c8.8,-5.7 18.2,-10.5 26.8,-16.4c7.5,-5.1 11.9,-13.6 14.3,-22.1c1,-4.3 1,-9.2 -2.2,-12.6c-4,-5.4 -11.4,-4 -17.2,-3.7c-8.8,0.7 -16.4,5.8 -25.1,6.8c-0.7,-2.7 -1.3,-5.4 -1.6,-8.1c-0.6,0.9 -1.3,1.8 -1.9,2.7c0,2.5 2.3,6.9 -2.3,6.1c3.2,3.7 6.3,9.1 3.7,14c-4,5 -10.2,7.6 -14.8,12c-4.7,4.4 -5.7,11.8 -11.4,15.3c-6,3.7 -13,5.5 -19.9,7.1c-0.1,-6.1 6.8,-7.5 10.9,-10.4c6.7,-4.3 14.8,-10.7 13.4,-19.7c-4.2,0.2 -7.7,2.7 -11.7,3.5c6.6,-7 17.5,-10.9 19.9,-21.1c-2,-0.1 -4,0.2 -5.8,1.1c-6.7,3.1 -13.4,6.6 -20.9,7.7c9.9,-11.4 23.5,-18.8 33.5,-30.2c0.8,5.4 1.3,10.7 2.1,16.1l1.9,1.3c-0.3,-3.5 -1.4,-7.1 -0.3,-10.5l0,4.3c0.7,0.2 2.2,0.5 3,0.7c-2.5,-11.2 -4.4,-22.6 -6.1,-34c-0.7,-6.3 -1.3,-12.9 0.1,-19.2c2.5,-7.9 7.2,-15 8.5,-23.3c1.6,-7.1 -0.4,-14.2 -1.2,-21.3c4,2.5 8.1,6 13.1,4.6c35,-7 69.6,-15.4 104.4,-23c4.1,-1 8.4,-1.5 12.6,-1.9c5.9,15.9 5.5,33.5 12.1,49.2c5.4,10.4 14.2,18.9 24,25.2c3.2,2.1 7.2,2.8 10.3,5c6.1,8.8 14.3,15.9 23,22.1c4,2.9 8.8,4.6 12.5,8c-11.9,-2.2 -22,-9.5 -33.3,-13.3c-1.3,6.1 4.5,10.2 6,15.6c-8.4,-6.6 -16.5,-13.6 -25.7,-19.1c-1.9,-1.3 -4.3,-1.8 -6.6,-1.7c5.8,8.3 15.3,12.9 21.5,20.8c-2.6,1.8 -5.4,4.5 -8.9,3.6c-8.9,-1.5 -19.7,-2.4 -25.2,-10.6c-5.4,-8.7 -11.5,-18.3 -10,-29.1c0.5,-8.7 6.9,-15.3 8.8,-23.5c-2.6,1 -5.1,2.3 -7.7,3.3c-6.7,-7.4 -13.7,-15 -23.4,-18.3c-4.7,-2.1 -10.4,0 -13.6,3.8c-4.6,5.5 -5.3,13.7 -1.8,19.9c5,9.6 11.2,18.6 18.4,26.8c10.5,10.3 22.3,19.4 34.5,27.5c6.7,4.4 15.4,8 23.2,4.6c11.3,-2.7 23.3,-0.7 34.5,-4.1c3.9,-1 7.8,-3 12,-1.8c6.3,1.6 12.5,4 19,4.2c10.8,0.8 20.7,-4 30.9,-6.5c12.5,-3 23.3,-10.3 35.2,-15.1c5.2,-4.6 8.1,-11.2 11.9,-17c-8.2,2.6 -7.6,15.1 -16.7,16.5c7.5,-12.2 18.2,-22.3 30,-30.5c7.5,-5.4 15.4,-10.6 21.8,-17.3c11.4,-13.8 10.2,-32.9 18,-48.4c1.5,-3.4 4,-6.4 5,-10c3,-17.8 9.3,-34.7 14.4,-51.9c3.3,-11.6 7.5,-23 8.6,-35.1c1,-16.7 -0.1,-32.8 -2,-48.7zm-437,323c7.8,-2.6 16.4,-4 22.8,-9.5c3.8,-4 5.2,-9.6 9.2,-13.4c4.4,-4.5 10.9,-6.6 14.3,-12c1.8,-4.1 1.6,-8.9 2.2,-13.3c9.6,-3.3 19.1,-8 29.5,-8.4c5.1,-0.1 11.6,2.4 12.2,8.2c0.4,6.3 -3,12 -5.7,17.5c-4.9,9.7 -15.5,14.2 -24.3,19.6c-12,6.3 -22.7,15.4 -35.9,19.3c-6.3,2 -12.9,3.6 -19.5,2.4c-3.8,-1.6 -5.5,-6.7 -4.8,-10.4zm145.3,-109.1c-2.7,-4.4 -5.9,-8.9 -6.4,-14.1c-0.2,-5.7 1.7,-12.5 7.4,-14.8c5.9,-2 12.1,0.8 16.8,4.3c5.2,3.6 8.7,9 13.1,13.4c1.3,0 3.9,0 5.2,-0.1c-2.2,5 -5.8,9.7 -6.4,15.3c-0.5,5.1 -0.6,10.3 0.5,15.3c1.9,6.4 6.1,11.9 8.1,18.4c-15.3,-9.6 -28.6,-22.5 -38.3,-37.7zm49.5,45.6c5.8,1.5 12.3,1.7 17.5,5.1c-6.2,1.3 -12.9,-1.2 -17.5,-5.1zm25.3,2.4c0.8,-2.2 3.5,-4.3 2.6,-6.6c-3.4,-3.6 -8.1,-5.9 -10.9,-10.2c7.3,4.9 14.9,10 20.2,17.1c-4,0.7 -8,0.7 -11.9,-0.3zm16.8,-0.5c-3.2,-5.3 -6.4,-10.6 -9.1,-16.2c8.9,2.9 17.2,7.5 25.7,11.4c-4.4,4.2 -11,3.6 -16.6,4.8zm135.7,-316.3c0.5,5.8 -4.3,12.2 -10.5,11.5c-9.9,-0.2 -20,0.1 -29.6,-2.6c-14.9,-6.4 -20.7,-22.7 -31.3,-33.7c-6.4,-7.1 -15,-14.4 -25.2,-12.2c-4.5,-0.1 -8.5,4.1 -6.8,8.6c6.7,-0.1 12.8,4 16.9,8.9c3.9,6.9 2.2,15.2 1,22.6c-0.5,4.1 -3.4,7.4 -7.1,9.2c-1.6,1.3 -3.7,0.1 -4.7,-1.3c-2.4,-3.7 -3.9,-8.1 -3.6,-12.6c2.4,-0.9 7.4,-0.1 7.2,-3.8c-0.3,-3 -3.2,-4.3 -5.2,-6.1c-1,-3.1 -1.3,-6.4 -2.1,-9.5c-1.6,1.1 -3,2.6 -5,3.1c-7.7,-8.9 -3.8,-22 -9.4,-31.8c-4.9,-7.2 -10.5,-13.7 -16.1,-20.4c25.7,7.3 47.4,23.3 70,36.8c12.4,7.4 25.2,15.1 39.7,17.1c9.2,1.7 18.8,0.4 27.8,3.3c-2.9,3.6 -6.4,7.7 -6,12.9zm16.8,55c-10,10.1 -22.9,17.1 -36.3,21.6c-9.6,3.2 -19.8,1.2 -29.6,0.5c-10.5,-1.2 -21.3,-1.9 -31.4,-5.1c-3.5,-0.9 -6.1,-3.7 -6.4,-7.3c18.4,2.6 36.9,5 55.6,4.7c10,-0.2 20.9,1 30,-4.3c4.9,-2.9 11.9,-5.4 12.9,-11.7c0.5,-10.1 -6.1,-18.8 -6.7,-28.7c7.7,8 9.3,19.8 11.9,30.3zm-1.4,-18.6c2.2,4.6 4.1,9.5 3.5,14.7c-2,-4.6 -4,-9.6 -3.5,-14.7zm-101.4,23c1.8,0.9 1.9,1.8 0.1,2.9c-2,-0.9 -2,-1.8 -0.1,-2.9zm86.5,-38.9c2.1,9.2 5.7,17.9 8.3,26.9c0.6,3 1.5,6.5 -0.6,9.1c-3.2,3.8 -8.2,5.4 -12.5,7.7c-2.9,1.3 -5.7,3.3 -8.9,3.7c-23,-0.1 -46.3,-0.3 -69,-4.8c4.9,-7.2 1.4,-16.1 -1.2,-23.5c-1.9,-5.2 -8.3,-4.7 -12.8,-5c-4.6,-0.4 -10.7,0.5 -13,-4.5c-7.4,-13.6 -11.2,-28.8 -15.9,-43.4c-2.4,-7 -2.4,-14.3 -1.9,-21.6c0.5,-5.8 -2.7,-10.8 -3.9,-16.2c-1.2,-5.5 -2.1,-11.1 -1.9,-16.8c6.9,6.5 12,14.6 18.1,21.8c0.8,8.5 0.9,17.4 4.4,25.3c1,3.2 4.4,4 6.8,5.7c2.1,3.3 4.2,6.6 7.2,9.1c-1.8,1.3 -3.8,2.4 -5.8,3.5c-0.9,5.5 0.1,11.8 3.8,16.2c2.9,3.5 7.4,0.8 9.9,-1.6c6.4,-5.8 6.3,-15.1 6.3,-23c0.2,-5.1 -2.3,-10.1 -6.3,-13.2c-4,-3.5 -9.2,-5.2 -13,-8.9c6.1,-2.3 13.6,-2.9 19.2,1.2c7.8,5.8 14.2,13.3 19.5,21.3c6.3,9.4 13.7,20 25.6,22.3c12,2.4 24.7,3.3 36.5,-0.1c3.6,2.1 4.7,6.7 6.3,10.3c-1.3,-0.6 -3.9,-1.2 -5.2,-1.5zm1.3,-10.6c0.1,-2.3 0.4,-4.6 0.7,-6.8l1.3,0.1c-0.5,2.2 0,5 -2,6.7zm30.3,-48.3c2.4,6.1 -1.6,12.2 -5.8,16.4c-3.5,3.3 -8.8,3.5 -13.2,2.5c4,-8.2 10.7,-15.2 19,-18.9zm-22.3,5.9c3.2,-0.2 6.4,-0.3 9.5,0.1c-2,3.2 -4.7,6 -6.9,9.1c-0.9,2.2 -0.3,4.9 -0.6,7.2c-3,-4.8 -1.9,-11 -2,-16.4zm3.6,18.7c0.2,2.9 -4,2.6 -5.9,3.1c0.2,-3.1 3.3,-5.6 5.9,-3.1zm-159.8,-91.8c6.7,-0.1 10.8,5.9 14.6,10.5c7,8.9 17.4,14 27.1,19.3c20.2,10.5 40.4,21 61.5,29.7c15.9,6.7 32.9,10.5 50,12.8c0.4,5.5 0.2,11 0.2,16.5c-14.3,-0.7 -29.2,0.1 -42.6,-5.8c-27.1,-11.4 -49.8,-30.8 -76.7,-42.6c-10,-4.5 -20.6,-8 -30.1,-13.7c-3.5,-2.3 -7.4,-5.1 -7.9,-9.5c0.1,-5.5 3.5,-10.5 7.7,-13.9c-1.5,-0.9 -2.7,-2 -3.8,-3.3zm-239.6,52.4c70.7,-14.5 141.5,-28.6 212.3,-42.6c7.2,-1.3 14.3,-2.9 21.6,-4c-1.5,5.6 -3.5,10.9 -5.2,16.5c-7.6,2.1 -15.4,3 -23.2,4.5c-58.1,9.9 -116.4,19.5 -174.7,28c-10.3,1.3 -20.5,3 -30.8,3.5c-2.6,0.4 -5,-0.9 -5.6,-3.5c1.1,-1.9 3.7,-1.8 5.6,-2.4zm-7.2,12c8.9,3 19.2,8 22.8,17.3c-10.4,2.8 -21.4,3 -32.1,3.1c1.5,-3.4 4.7,-5.5 6.7,-8.6c2,-3.6 0.3,-8.3 2.6,-11.8zm-36.3,23.1c-18.6,1.7 -36.7,6.9 -55.1,9.2c-17.5,2.2 -35.4,1.9 -52.5,-2.8c-5.7,-1.5 -10.9,-5.4 -13.1,-10.9c-2.6,-6.5 -4.1,-13.8 -2.4,-20.7c3.2,4.1 7.1,7.8 12,9.7c15.5,6.3 32.4,8.3 49,9.6c12.3,0.5 24.8,0.9 36.9,-1.6c17.9,-3.5 35.1,-10.3 53.3,-13c0.9,1.5 1.8,3.1 2.9,4.5l0.2,-4.7l2.5,-0.1c0,6.7 -3.6,13.3 -10.3,15.4c0.9,-2.9 3.1,-5.1 5.4,-7.1c-0.7,-0.7 -1.3,-1.5 -2,-2.2c-2.9,3.8 -6,7.6 -9,11.3c-5.7,2.4 -11.9,2.7 -17.8,3.4zm-78.1,80.8c-7.7,-6 -13.9,-14.2 -17,-23.5c-2.2,-6.7 -1.3,-13.8 -0.7,-20.7c0.4,-2.6 0,-5.8 2.2,-7.7c2.4,4.4 4.6,9.2 9,12c5.7,3.6 12,6 18.6,7.5c7.1,1.6 14.3,-1.7 19.6,-6.3c4.4,-3.7 6.8,-9 9.7,-13.9c4.9,-8.4 13.7,-14.3 23.2,-16.2c0.5,0.4 1.5,1.2 2,1.6c-3.9,0.9 -8.2,1.5 -11,4.7c-6.8,7 -6.6,17.9 -4.1,26.7c1.2,5.5 7.5,7.8 12.6,7.4c3.3,-1.6 3.6,-6.2 2,-9.1c-2.1,-4.3 -2.7,-9.1 -1.6,-13.7c2.6,1.9 3.2,5.2 4.6,8c1.4,0.7 2.6,0.5 3.5,-0.9c2.4,-3.6 2.4,-8.3 5.1,-11.7c3.8,-2.7 8.8,-4 11.7,-7.8c3.5,-4.6 3.2,-10.6 4,-16.1c4.4,-0.2 8.7,-0.2 13.1,0.4c1,3.2 2.1,6.5 1.2,9.8c-1.2,2.6 -3.2,4.6 -4.8,6.9c2.9,5.8 5.3,12 6.3,18.6c1.2,4.1 -4.6,3.9 -5.8,6.9c-3.6,8.8 -2.3,19.3 -7.8,27.3c-2.9,2.2 -4.2,5.4 -5.2,8.8c-3.6,4.8 -10.3,6 -16,5.8c-6,-1.2 -7.1,-8.4 -9.3,-13.1c-1.7,-3.2 -2.1,-8.1 -6,-9.4c-0.5,7.6 1.8,15 2.2,22.6c-7.3,-0.1 -14.8,-0.3 -21.8,-2.7c-11.6,-5.8 -22.1,-13.7 -33.3,-20.1c-2.3,-1.2 -4.9,-3 -7.4,-1.5c-0.5,2.4 0.9,4.7 2.1,6.7c3,4.9 6.7,9.4 10.8,13.3c2.5,2.5 6.2,3.5 8.3,6.5c-7.4,-1.4 -14.5,-2.8 -20,-7.1zm96.2,7.1c-3.7,-0.1 -7.7,0.5 -11.1,-1.2c2.6,-2.4 5.3,-4.7 8.1,-6.7c1.2,2.6 2.2,5.2 3,7.9zm-89.6,-15c-2.9,-3.2 -5.8,-6.8 -6.3,-11.3c13.4,7.2 25.1,17.8 39.5,23.2c7.4,2.7 15.3,2.6 23,3.4c-0.3,-5 -0.8,-10 -0.7,-15.1c3,3.7 3.8,8.6 6.5,12.5c2.9,1.6 6.4,0.6 9.5,1.1c-4.4,4.9 -11.3,6.7 -17.6,5.8c-10.6,-1.2 -21.2,-2.5 -31.7,-4.6c-9.2,-1.7 -16,-8.5 -22.2,-15zm95.3,33.9c-15,0.2 -30.6,0.9 -44.8,6.5c-8.9,-8.8 -21.3,-13.1 -29.6,-22.6c16.5,-0.2 34.1,7.9 49.9,-0.1c7.1,-3.5 14.7,0.5 20,5.2c3.9,3.8 10.3,2.9 13.9,7.1c3.1,3.3 6.7,6.4 8.6,10.5c-5.2,-3.5 -11.2,-7.1 -18,-6.6zm-4.4,-23.1c2.6,2.9 5.2,6.1 5.8,10.2c-4.4,-1.3 -6.4,-5.7 -5.8,-10.2zm4.6,158.1c-7.6,-3.5 -13.9,-9.4 -22.1,-11.7c4,6.4 10.5,10.6 15.3,16.2c-0.2,0.4 -0.7,1.3 -1,1.7c-5.8,2.9 -12.7,4 -17.8,8.2c-0.8,4.4 6.7,1.6 9.4,2.4l0,-2c-1.4,0.1 -4.2,0.3 -5.6,0.4c5.2,-4.9 13,-5.4 18.5,-9.9c0.2,-3.8 -5.7,-4.7 -7.2,-8.1c7.5,3.6 14.9,8 23.3,8.9c-8.5,4.7 -18.2,6.5 -27.5,8.6l-1.3,1.6c10.6,-0.5 20.4,-5.2 30.8,-6.6c-0.5,0.7 -1.6,2.2 -2.2,2.9c-0.3,2.7 -0.7,5.5 -1.9,8.1c-3.6,8.1 -7.7,16.2 -13.6,22.9c-2.7,2.7 -6.6,5.6 -10.5,3.5c-13.6,-5.9 -22,-20.2 -23.8,-34.6c-2.1,-15.3 -3.2,-30.8 -1.5,-46.1c1.2,-13 3.5,-26.5 11.4,-37.3c9.1,-12.8 20.1,-24.9 34.4,-31.7c15.8,-6.6 32.7,0.5 48.9,0.8c10.9,1.5 22.5,-2.2 33,1.4c3.3,8 -0.7,17.3 3.2,25.1c1.3,-6.1 1.1,-12.4 1.7,-18.6c4.9,3.6 9.1,8.3 14.5,11.2c0.5,-0.1 1.6,-0.4 2.2,-0.5c-0.7,-6.1 -5.7,-10.4 -8.5,-15.6c7.5,0.2 14.5,3.7 22.1,3.7c-6.9,-7.2 -18.2,-5.8 -26.8,-9.6c-1.7,-1.9 1.3,-3.4 2.4,-4.6c14.7,-10.8 30.8,-19.6 44.9,-31.2c4.4,-3.3 6.7,-8.5 10.3,-12.4c3.4,-1.3 7.1,0.5 10.4,1.4c6.8,2.1 13.9,6.1 16.3,13.4c1.4,4.9 3.5,9.6 5.1,14.4c-2.1,5.5 -6.4,9.8 -9.1,15c-9.4,17.6 -20.8,34.1 -33.4,49.6c-4.2,5.1 -8.5,10.2 -14,14c-15.6,10.8 -33.3,17.9 -50.3,26c-3.5,1.4 -5.7,4.5 -8.5,6.8c-3.1,1.5 -6.5,2.2 -9.8,3.1c-15.4,3.9 -30.4,9.3 -45.9,13c-5.5,1.2 -10.9,-1.6 -15.8,-3.8zm16.8,15.9c-0.6,-3.3 -0.9,-6.7 -0.5,-10c18.1,-5.1 36.1,-11.1 54.4,-15.3c2.4,-1.5 4.5,1.6 1.8,2.9c-10.6,5.5 -23.3,6.6 -33,14c-4.5,6.1 -2.8,14.2 -5,21.2c-3.8,-4.1 -4.2,-9.9 -6.4,-14.8c-1,-2 -1.7,-5.2 -4.4,-5.2c-3.2,1.3 -4.7,4.8 -6.9,7.2zm43.8,33.7c-0.9,1.9 -1.5,4.3 -3.6,5.2c-0.5,-16.4 -1.6,-32.7 -3.3,-49c-0.8,-2.7 1.9,-3.7 3.8,-4.5c4.9,-1.8 10,-3.5 15.3,-4c1.8,18.3 -5.3,35.7 -12.2,52.3zm4.3,-0.8c-0.9,-1.7 0.3,-3.8 1.6,-4.9c3.4,-1.2 0.7,5.7 -1.6,4.9zm-44.3,-33.2c0.9,-1.6 1.2,-6 3.9,-3.8c3.8,6.4 4.4,14.5 9.1,20.4c5.4,-4 3.8,-12.2 5.4,-18.1c0.2,-5 5.1,-7.7 9.1,-9.5c-0.4,15.3 1.4,30.7 -0.2,46c0,2.1 -1,4 -2.5,5.5c-7.8,-11.1 -15.8,-22 -23.3,-33.3c-1.5,-2.1 -3,-4.7 -1.5,-7.2zm-72.4,73.6c5.3,2.6 9.9,7 16.1,7.4c-0.5,-1.8 -1.2,-3.6 -2.2,-5.2c-8.8,-11.7 -19.6,-22.8 -24.4,-36.9c13.1,10 23.1,23.3 36.1,33.5c4.4,3.3 9.8,7.3 15.6,5.4c9.4,-3 18,-8.1 27.6,-10.7c8.9,-2.5 16.1,-8.8 25.2,-10.9c4.5,-1.3 7.8,-4.7 11.7,-7c-0.7,-0.6 -1.3,-1.2 -1.9,-1.8c-3.3,3.8 -7.9,6.3 -12.6,7.8c0.3,-4.3 1.3,-8.8 -0.2,-13c-2.2,-6 -5.6,-11.3 -8.2,-17.1c5.4,4.6 8.1,11.7 13.9,15.7c1.9,1.6 4.7,0.4 5,-2.1c1.9,-13 0.5,-26.3 2.9,-39.2c1.5,15.9 0.7,32 2.1,47.9c1.8,-2.4 3.6,-4.7 5.7,-7c-3.4,11.6 -14.2,18.2 -23.2,25.1c-6.7,4.7 -12.9,10.5 -20.9,12.8c-12.7,3.8 -25.7,7.1 -38.9,8.6c-8.5,0.2 -17.5,-1.6 -24.6,-6.4c-2.8,-1.3 -3.8,-4.3 -4.8,-6.9zm27.5,27.9c-4.7,-4.6 -10.2,-8.5 -14,-13.9c4.8,0.9 10.2,0.9 14.3,4c3.4,2.4 7.4,3.6 10.8,6c1.5,1.9 2.2,4.3 3.3,6.4c2.6,5.3 7.5,8.9 10.3,14c-9.2,-3.9 -17.5,-9.7 -24.7,-16.5zm14.9,-2.8c5,-0.2 10.2,1.9 13.4,5.7c1.3,4.3 0.5,9 0.9,13.4c-5.8,-5.4 -13.1,-10.7 -14.3,-19.1zm77.9,-30.3c-9.1,6.9 -17.9,14.2 -26.6,21.6c-2.9,2.8 -6.9,5.3 -7.3,9.7c9.7,0.4 17.6,-6 26.8,-8c-3.2,5.5 -8.8,8.9 -13.8,12.5c-4.1,3 -9.4,5 -11.9,9.9c6.7,-0.4 12.6,-4.1 19.4,-4.7c-3.3,9.6 -12.4,14.9 -21,19c-3.6,1.2 -4.7,4.8 -5.2,8.1c-5,0.5 -7.9,-3.8 -10.7,-7.2c-3.2,-4.3 -7.1,-8 -10.3,-12.3c-3.5,-4.4 0.8,-10.9 -2.9,-15.3c-3.5,-4.1 -10.2,-3.5 -13.3,-8.1c-1.5,-2.5 -5.5,-1.5 -6.4,-4.6c10.2,-3.1 20.6,-5.3 30.8,-8.5c8.6,-2.7 15.7,-8.1 22.9,-13.4c7.1,-5.4 14.5,-10.8 19.5,-18.4c3.6,-5 6,-10.7 9.9,-15.4c-0.1,11.8 0.8,23.4 0.1,35.1zm7.7,-56.7c-1.7,4.1 -3.4,8.3 -5.8,12.1c-3.7,-1.6 -0.1,-6.4 0.2,-9.2c3.3,-10 3.8,-20.6 5.5,-30.9l1.9,0.1c0.7,9.2 1.5,18.9 -1.8,27.9zm202.8,48.3c-5.8,-4.4 -12.1,-8.4 -16.4,-14.4c3.3,0.5 6.7,1.1 9.9,2.1c15.1,4.4 30.5,7.7 45.9,10.3c4.1,0.8 8.5,1.2 12.3,3.2c-9.7,3.2 -19.9,3.6 -29.8,5.8c-8,2.5 -15.4,-2.7 -21.9,-7zm79.4,-54.2c12.5,-1.6 25.3,-1.2 37.8,-3.5c4.6,-0.9 9.3,-1.9 14,-2c-2.7,3.3 -6.9,4.9 -10.4,7.2c-9.2,5.8 -19,10.9 -27.8,17.3c-0.4,0.5 -1.3,1.6 -1.7,2.2c4.6,0 9.2,-0.3 13.9,-0.3c-0.9,4.7 -4.9,7.6 -8.1,10.5c-10.6,8.6 -22.3,16.2 -35,21c-2.6,1.3 -5.3,-0.2 -7.8,-0.9c-5.4,-1.8 -10.9,-2.7 -15.9,-5.4c6.2,0.2 12.8,1.6 18.7,-1.4c9.3,-4.7 18.1,-12.1 21.5,-22.3c2.4,-7.1 1.3,-14.8 0.8,-22.4zm-55.5,69.6c-3,-0.7 -6.5,-1.1 -8.3,-4c7.3,0.4 14.3,3.2 21.7,3c4.4,0.5 9.2,-1.2 13.4,0.9c-8.7,2.8 -18,1.6 -26.8,0.1zm120.4,-65.6c-12,10.6 -26.4,18.5 -37.6,30.1c-8.4,8.5 -15.3,19.2 -26.6,24c-6.9,3 -14,6 -21.6,6.9c-7.5,0.9 -15.1,1 -22.6,1c-4.9,-0.2 -10.2,0.2 -14.5,-2.5c17.6,-3.3 35.8,-5.7 52,-13.6c11.2,-6.2 22,-13.4 31,-22.6c1.4,-1.8 3.9,-3.6 3.3,-6.3c-2.7,-2.9 -6.8,-2.1 -10.3,-1.9c8.3,-7.3 18.7,-11.6 27.8,-17.6c4.4,-3.1 9.9,-5.4 12.7,-10.2c-18.1,1.4 -35.9,6.7 -54.2,6c1.6,-1.5 3.5,-2.7 5.7,-3.5c19.9,-8.3 40,-16.1 58.7,-27c4.1,-2.5 8.1,-5.3 12.5,-7.4c-4.2,15.3 -6.1,32 -16.3,44.6zm20.6,-55.1c-3,7.8 -11.2,11.6 -17.8,16c-21.8,12.9 -45.5,22.3 -69.2,31.4c-2.2,-4.2 -5.4,-8.8 -4.5,-13.7c2,-4.1 6.8,-5.7 10.6,-7.8c14.6,-6.6 30,-12 43,-21.6c13.1,-9.3 23,-22.3 35.6,-32.2c1.6,4.9 3.3,9.9 4.6,14.9c1.3,4.4 -0.8,8.9 -2.3,13zm25.3,-83.4c-5,19.2 -10.9,38 -16.8,56.9c-1.3,3.7 -1.9,7.8 -4.7,10.8c-2.1,-5 -2.7,-10.4 -3.5,-15.7c-2.1,0.9 -4,1.9 -5.7,3.4c-12.5,10.5 -23.1,23.2 -36.6,32.4c-14.5,9.9 -31.7,14.8 -46.9,23.5c-3.2,1.5 -4.8,4.7 -5.7,8c-7.8,-14.8 -18.8,-27.8 -31.3,-38.9c-10.9,-9.6 -25.9,-10.8 -39.5,-13.3c-6.6,-1.3 -13.2,-0.4 -19.8,-0.4c-4,-6.8 -5.1,-15 -7.7,-22.4c7.1,-17.6 23,-29.5 32,-46c-0.7,-0.9 -1.3,-1.8 -1.9,-2.6c-6.7,15.4 -20.4,26.4 -29,40.7c-1.7,1.9 -1,7.4 -4.6,6.3c-1.2,-2.4 0.2,-4.7 1.3,-6.7c4,-7.9 6.6,-16.5 7.7,-25.2c0.5,-2.5 -0.3,-6 -3.5,-5.8c-5.5,0.2 -8.1,6.4 -8.9,11.1c-5.6,-7.5 -8.3,-16.5 -12.9,-24.6c-1.8,-3 -3.4,-6.4 -6.6,-8.1c-2.6,0.1 -2.6,2.8 -2.7,4.7c0.1,4 1.1,7.8 1.4,11.7c-4.9,-6.5 -6.7,-15.9 -13.9,-20.3c-3.5,6.4 1.1,13.7 2.6,20.2c-4.4,-3.8 -5.2,-11.1 -11.4,-13c-0.7,4.1 0,8.2 0.6,12.3c-1.8,0.5 -4.6,0.9 -4.3,3.3c1.2,13.1 8.9,24.3 12.8,36.6c1.6,2.5 -1.5,3.3 -3.2,4.1c-23.3,9.3 -47.4,16.6 -70.5,26.5c2.8,-0.1 5.6,-0.7 8.3,-1.6c17.9,-5.5 35.6,-11.7 53,-18.4c6,-2.2 11.7,-5.5 18.1,-6.7c0.1,5.7 -3.5,10.3 -5.2,15.4c0.8,-0.2 2.4,-0.7 3.3,-0.9c0.4,0.8 1,2.4 1.3,3.2c0,-3.4 2.2,-6.6 6,-6.7c8.8,-0.9 19.4,-1.3 26.1,5.4c2.2,5.5 2.7,11.9 0.5,17.5c-8.4,1.6 -17,1.6 -25.4,3.1c-1.9,0.1 -3.3,1.3 -4.6,2.6c9.6,-0.1 19,-2.4 28.6,-2.6c-6,4.9 -12.9,8.6 -19,13.4c-1.9,1.3 -3.2,3.4 -4.1,5.6c10.3,-2.9 17,-12.8 27.1,-16.2c6.3,0.3 13,0.5 18.7,-2.6c3.4,-1.7 8.8,-4.5 7,-9.2c-8.3,-0.5 -14.2,6.6 -22,7.9c2,-6.7 8.9,-11.3 16,-10.5c11.9,1 23.7,3.8 35.1,7.1c7.1,1.9 12.2,7.5 17.5,12.2c5.5,5.3 10.6,10.9 15.3,17c6.7,8.5 10.2,19 12.9,29.4l2.2,1.9c-0.5,-4.4 -1.8,-8.6 -2.7,-12.9c4.3,7.2 6.5,15.7 6.9,24.1c0.2,14.5 -10.9,26.8 -24,31.4c-11.1,2.4 -22,-2.6 -32.1,-6.5c-3.2,-1 -6.5,-2.9 -9.9,-1.5c6.7,6.5 16.2,8.4 24.1,13.1c-2.6,0 -5.2,-0.2 -7.7,-0.7c-14,-3 -28,-6.3 -41.7,-10.3c-1.9,-0.5 -3.6,-1.5 -5.4,-2.4c26.6,-1.9 53.3,-5.4 79.1,-12.6c4.3,-1.5 9.1,-2.3 12.5,-5.4c2.1,-4.1 1.8,-9.1 1.4,-13.6l-1.9,-2c-0.9,4.7 2.4,10 -0.5,14.2c-4.7,2.9 -10.2,4.1 -15.5,5.7c-17.6,4.6 -35.7,7.7 -53.8,10c-10.9,1.1 -22.6,2.6 -32.7,-2.8c-11.2,-6.1 -20.9,-15.6 -26.4,-27.2c-6.5,-15.6 -4.8,-33.4 -11.6,-48.9c-41.2,7.1 -81.4,18.7 -122.6,25.9c-4.3,-4.3 -11.9,-5.8 -12.7,-12.7c-0.7,-2.2 1.8,-3 3.2,-3.8c16.3,-7.9 33.6,-14 48.6,-24.4c10.5,-7.2 18.5,-17.3 26.2,-27.2c6.5,-8.6 13,-17.5 18.4,-26.8c7.6,-14.7 18,-27.7 24.3,-43c1.9,-7.1 11.3,-5 15.4,-10c3.2,-3.8 2.6,-9.2 2.1,-13.8c-0.7,-5.2 -1.1,-11 -4.8,-15.1c-3.1,-3 -7.2,-4.7 -10.8,-6.9c3.2,-6.3 7.5,-12 9.7,-18.7c1.1,-2.2 -1.3,-5.7 -3.6,-3.8c-10.7,6.9 -18.1,17.8 -26.7,27c-5.8,7.2 -13.4,13.4 -16.5,22.3c6.3,-1.6 9,-8 12.8,-12.6c10.2,3.5 18.1,12.5 19.6,23.3c-0.1,4.6 -1.9,9 -3.4,13.3c-0.7,1.3 -0.8,3.6 -2.8,3.3c-2.5,-5.8 -3.8,-12.5 -8.5,-17.1c-6.2,-6.1 -15.1,-7.6 -23,-10.1c-4.4,4.7 -7.7,10.5 -12.8,14.6c-16.5,13.3 -35.2,23.5 -51.7,36.8c2.3,1.5 5,2.4 7.1,4.3c2.2,5.8 7.6,9.5 9.4,15.6c-4.7,-2.7 -8.1,-6.9 -12.6,-9.9c-3.8,-2.4 -4.1,-8.9 -9.6,-8.7c-12.8,-0.8 -25.8,1.5 -38.5,-0.4l-0.7,-0.9c-1.1,-4.6 -5.5,-6.9 -8.6,-10c-15.9,-13.6 -31.7,-28.1 -41.6,-46.8c-2.7,-3.8 -0.1,-8.1 0.9,-12c2.1,-6.7 3,-13.7 4.6,-20.6c0.7,-3.7 4.6,-5 7.1,-7.4c1.5,-7.5 -4.1,-14 -4.9,-21.3c3.8,-5.5 3,-12.2 2.9,-18.5c10.3,-1.4 21,-0.9 30.8,-4.7c-3.1,-10.6 -13.9,-17.1 -24,-19.9c-3.3,-0.6 -3.5,-5.2 -2.6,-7.8c2.4,0.2 1.9,3.8 4.3,4.3c7.4,2.1 15.1,-0.2 22.5,-0.7c62.6,-9.1 125,-19.3 187.3,-29.7c8.3,-1.7 16.8,-2.5 25,-4.8c1.6,-2.1 1.2,-5.1 2,-7.5c2,2.4 2.3,5.8 4.6,8c4.4,4.7 10.8,6.6 15.6,10.6c-0.7,1.9 -2.3,3.6 -2.3,5.8c0.1,7.9 3.2,15.4 5.2,23c1.9,6.9 -0.7,14.2 1.2,21.1c3.2,13.2 7.3,26.2 12,39c2.2,5.4 4.1,11.3 8.5,15.4c6.6,4.9 16.2,0.6 22.6,5.4c3,6 4.7,13 4.1,19.6c-1.9,-1.5 -3.3,-3.4 -4.7,-5.3c-1.3,2.6 -2.1,5.3 -2.7,8c-6.3,2.4 -8.7,9.3 -13.9,13.1c-2.8,2.7 -7.2,4.3 -10.8,2.2c-9.3,-4.8 -16.1,-14.9 -27.2,-15.6c-7.7,0.1 -17.3,1.8 -20.6,9.7c-2.3,5.6 -4,11.6 -4.6,17.6c-0.4,2.9 3.2,2.4 5,3.2c2,2.2 4,4.7 6.9,6c5.2,2.9 11.6,1.9 17.1,3.9c3.7,1.3 7.5,2.1 11.6,1.8c2.2,-0.7 3.1,1.6 4.4,3c1.2,-5.8 4.7,-10.8 7.8,-15.7c6.9,-9.7 14.5,-19.4 24.4,-26.3c0.5,4.3 2.4,8.9 7.2,9.7c20.7,5.4 42.6,5.2 63.8,5c12.4,-5.2 24.4,-11.8 34.7,-20.4c0.2,4.1 0,8.5 -3.3,11.5c-9,9.5 -19.3,20.4 -33.3,20.7c-15.9,0.2 -31.1,-5.4 -46.5,-9c-6.4,-1.5 -13.1,-0.3 -19.6,0.5c-6.1,1 -12.2,1.8 -18,4.1c-4.3,2.2 -6.7,6.9 -8,11.4c-0.5,2.6 -1.1,6.4 1.9,7.7c12.9,-1 25.2,-7.3 38.3,-5.6c2.2,2.6 -1.8,4.3 -3.5,5.4c-11.1,5.9 -23.5,9.2 -35.1,14c-1.8,0.6 -3.3,1.8 -4.6,3.1c3.8,1.5 8,0.6 11.8,-0.5c0.3,-0.7 0.9,-2.3 1.2,-3c11.4,-5.8 25.4,-7.6 34.2,-17.5c-1.2,-1.2 -1.9,-3.1 -3.6,-3.5c-13.4,-1.8 -26,5.1 -39.2,5.1c-0.8,-7.8 5.6,-15.9 13.5,-16.6c8.8,-1.2 17.5,-3.5 26.3,-3.2c17.8,3.4 35.1,10.8 53.5,9.5c13.1,-1 22.8,-11.3 31.4,-20.2c6.6,-6.6 4.6,-16.5 7.4,-24.6c-1.6,-12.5 -11.3,-21.5 -16.4,-32.6c5.1,0.5 9.1,4.2 12.8,7.4c6.6,6.4 12,14.2 14.4,23.2c1.7,6.2 0.4,12.8 -2.4,18.5c-5,10.7 -12.8,19.8 -20.7,28.4c-8.8,9.1 -17.9,18.1 -28.9,24.4c-4.4,2.4 -9.3,4.7 -14.4,3.6c-3.5,-1.5 -4.3,-5.5 -5.8,-8.6c-1.9,1.5 -3.7,3.1 -5,5.2c-8,11.7 -14.9,24.1 -23.5,35.4c-4.9,6.1 -10.9,12.2 -19.2,13c-11.9,1.2 -23.5,-2.6 -35,-5c-6.7,-1.8 -13.9,-1.9 -20.2,-4.6c1.6,-1.8 3.3,-3.5 5.5,-4.6c15.6,-8.7 32,-16.1 46.5,-26.6c3.2,-2.6 7.3,-5.1 7.9,-9.6c-6.5,-0.2 -12.8,2.2 -18.7,4.7l-1.3,1.5c5.6,-1 11,-3.1 16.7,-3.5c-2.8,4 -7.2,6.3 -11.2,8.9c-13.6,8.8 -28.4,15.3 -42.3,23.5c-2.5,1.3 -4.3,3.5 -6,5.8c3.3,3.8 8.6,3.6 13.2,4.6c14,2.3 27.7,7.3 42,7.3c8.6,0 16.6,-4.8 21.5,-11.8c8.7,-11.6 16.6,-23.8 24.4,-36.1c1,-1.3 1.7,-3.2 3.3,-3.8c2.2,2 3.7,5.3 7,5.8c8.1,1.6 15.7,-3.2 22.3,-7.5c16.4,-11.5 30.2,-26.8 40.6,-43.9c4.6,-8.3 9.5,-18.5 5.6,-28c-5.1,-11.7 -13.2,-22.7 -24.6,-29c-2.9,-1.5 -4.9,-4.8 -4,-8c1.2,-5.5 4.7,-11.7 11,-12c9.4,-0.4 18.8,3.8 24.9,11.1c8.5,10 15.7,21.5 18.7,34.5c3.5,15.1 4,30.7 5.4,46.1c0.4,8 0.7,16.5 -1.6,24.6zm-267,-9.8c6.4,5.5 7.5,15.2 14.6,20.1c-0.7,-9.7 -6.1,-18.4 -7.3,-28c8.5,7.5 10.3,20.2 18.6,27.9c-0.9,-8.6 -4.3,-16.8 -4.7,-25.5c1.8,1.3 3.3,2.9 4.3,4.8c5.7,9.8 10.1,20.3 16.1,29.9c4.1,-2.6 2.6,-8.9 6.7,-11.4c1,-0.2 3.2,-0.5 4.3,-0.7c0.1,8 -2.9,15.6 -5.6,23.1c-1.3,2.8 -2.2,6.2 -4.9,8.1c-4.1,-0.3 -8,-2.1 -12.2,-2c-6.3,-0.1 -12.5,1.8 -18.5,3.8c-3.4,-6.2 -6.1,-12.8 -8.9,-19.3c-2.4,-5.9 -5,-12 -5.1,-18.5c5,4.4 6.6,11.4 10.9,16.4c-1.5,-10 -7.4,-18.7 -8.3,-28.7zm20.5,50.5c5.8,-0.9 11.8,0.5 17.3,2.4c3.2,1.4 3.2,5.4 4.3,8.2c0.6,-2.4 0.8,-4.8 1,-7.2c3.6,3.2 3.6,8.6 5.8,12.7c-0.7,0 -2.3,0.1 -3,0.1c-3.5,-2.4 -7.3,-4.9 -11.7,-5.3c-6.8,-0.6 -13.6,0.5 -20.4,0.2c0.9,-4 1.7,-9.9 6.7,-11.1zm28.7,16.9c0.8,6.4 6,14 0,19.5c-1.8,-4.6 -1.2,-9.6 -1.5,-14.4c-0.7,-2 0.6,-3.6 1.5,-5.1zm8.6,22.6c3.5,-4.4 9.2,-6.4 14.4,-8.3c-1.3,6.4 -9.2,7.2 -14.4,8.3zm-80.7,-136.7c-1.5,-0.9 -5.1,-1.9 -3.3,-4.2c5.4,-7.7 12,-14.3 18.4,-21.2c3.4,-3.4 6.6,-7.3 10.9,-9.6c-0.7,8.3 -6.8,14.6 -10,22c5,3.2 11.8,5 14.2,10.9c2.3,6.1 3.8,13 2.1,19.5c-2.6,5.5 -9.3,6.5 -14.6,7.4c-3.4,-9.5 -7.5,-20.6 -17.7,-24.8zm84.5,30c-1.5,-3.6 -5.8,-5 -9.3,-5.5c-6.3,-0.1 -8.4,7.2 -12.7,10.5c-0.2,-4.3 0.5,-8.9 3.3,-12.4c4.1,-4.4 10.5,-5.7 14.2,-10.6c-4.7,0.4 -8.6,3.1 -13.1,4.2c1.9,-3.8 6.3,-4.9 10,-5.8c6.2,-1.1 13.4,-1.4 18.6,2.7c6.6,5 12.8,10.9 20.7,13.7c-3.5,4.4 -7.4,8.6 -9.9,13.7c-1.6,2.9 -3.2,6.9 -7.1,7c-6.7,0.2 -12.8,-3.6 -19.6,-3.8c-4.7,-0.1 -9.4,-1.9 -11.7,-6.3c4.7,-4.3 13.2,-1.5 16.6,-7.4zm-17.5,3.4c2,-2.6 3.4,-6.4 6.8,-7.2c2.8,0.4 6.4,1.1 7.7,4c-4.2,2.9 -9.7,2.4 -14.5,3.2z"/>
    <path stroke="null" id="svg_15" d="m8673.26896,6722.503101"/>
   </g>
  </g>
 </g>
</svg>