<?xml version="1.0" encoding="utf-8"?>
<!-- Generator: Adobe Illustrator 16.0.3, SVG Export Plug-In . SVG Version: 6.00 Build 0)  -->
<!DOCTYPE svg PUBLIC "-//W3C//DTD SVG 1.1//EN" "http://www.w3.org/Graphics/SVG/1.1/DTD/svg11.dtd">
<svg version="1.1" xmlns="http://www.w3.org/2000/svg" xmlns:xlink="http://www.w3.org/1999/xlink" x="0px" y="0px" width="24px"
	 height="24px" viewBox="0 0 24 24" enable-background="new 0 0 24 24" xml:space="preserve">
<g id="Outline_Icons">
	<g>
		<path fill="none" stroke="#000000" stroke-linecap="round" stroke-linejoin="round" stroke-miterlimit="10" d="M10.5,21.5
			c0,1.104-0.896,2-2,2h-6c-1.104,0-2-0.896-2-2v-6c0-1.104,0.896-2,2-2h6c1.104,0,2,0.896,2,2V21.5z"/>
		<path fill="none" stroke="#000000" stroke-linecap="round" stroke-linejoin="round" stroke-miterlimit="10" d="M23.5,21.5
			c0,1.104-0.896,2-2,2h-6c-1.104,0-2-0.896-2-2v-6c0-1.104,0.896-2,2-2h6c1.104,0,2,0.896,2,2V21.5z"/>
		<path fill="none" stroke="#000000" stroke-linecap="round" stroke-linejoin="round" stroke-miterlimit="10" d="M16.5,9.5
			c0,1.104-0.896,2-2,2h-6c-1.104,0-2-0.896-2-2v-6c0-1.104,0.896-2,2-2h6c1.104,0,2,0.896,2,2V9.5z"/>
		<g>
			<path fill="none" stroke="#000000" stroke-linejoin="round" stroke-miterlimit="10" d="M3.5,15.5H6c0.828,0,1.5,0.672,1.5,1.5
				S6.828,18.5,6,18.5H3.5V15.5z"/>
			<path fill="none" stroke="#000000" stroke-linejoin="round" stroke-miterlimit="10" d="M3.5,18.5H6c0.828,0,1.5,0.672,1.5,1.5
				S6.828,21.5,6,21.5H3.5V18.5z"/>
		</g>
		<g>
			<polyline fill="none" stroke="#000000" stroke-linecap="round" stroke-linejoin="round" stroke-miterlimit="10" points="9,9.484 
				11.578,3.516 14,9.484 			"/>
			
				<line fill="none" stroke="#000000" stroke-linecap="round" stroke-linejoin="round" stroke-miterlimit="10" x1="9.864" y1="7.5" x2="13.188" y2="7.5"/>
		</g>
		<path fill="none" stroke="#000000" stroke-linecap="round" stroke-linejoin="round" stroke-miterlimit="10" d="M21.061,20.621
			c-0.543,0.543-1.293,0.879-2.121,0.879c-1.657,0-3-1.343-3-3s1.343-3,3-3c0.789,0,1.508,0.306,2.043,0.804"/>
	</g>
</g>
<g id="invisible_shape">
	<rect fill="none" width="24" height="24"/>
</g>
</svg>
