<svg id="Duotone" xmlns="http://www.w3.org/2000/svg" viewBox="0 0 100 112"><defs><style>.cls-1{fill:#f0f2ff;}.cls-2,.cls-4{fill:none;}.cls-2,.cls-4,.cls-6{stroke:#999;stroke-linejoin:round;}.cls-2{stroke-linecap:round;}.cls-3{fill:#fff;}.cls-5,.cls-6{fill:#fff;}</style></defs><title></title><g id="Icons">
<g id="Background"><circle class="cls-1" cx="50.34" cy="56" r="40"/></g>
<g id="Scene"><path class="cls-3" d="M56.82,49.31,51.47,43A5.41,5.41,0,0,0,49,41.33L37.35,37.66v4L47.84,45a1.58,1.58,0,0,1,.73.49l6.31,7.46Z"/><path class="cls-4" d="M56.82,49.31,51.47,43A5.41,5.41,0,0,0,49,41.33L37.35,37.66v4L47.84,45a1.58,1.58,0,0,1,.73.49l6.31,7.46Z"/><rect class="cls-3" x="23.15" y="58.15" width="2.53" height="7.59" transform="translate(-25.87 18.3) rotate(-27.53)"/><rect class="cls-4" x="23.15" y="58.15" width="2.53" height="7.59" transform="translate(-25.87 18.3) rotate(-27.53)"/><path class="cls-5" d="M20.27,34.59a1.9,1.9,0,0,1,1.9-1.9h3.16V39H20.27Z"/><path class="cls-4" d="M20.27,34.59a1.9,1.9,0,0,1,1.9-1.9h3.16V39H20.27Z"/><path class="cls-5" d="M33.55,37.75,26,29.83a1.83,1.83,0,0,0-3.11,1.65l6.84,31.57,3.79,1.27Z"/><path class="cls-3" d="M26,29.83l2.46,2.6V28.27a1.9,1.9,0,1,0-3.79,0v1A1.74,1.74,0,0,1,26,29.83Z"/><path class="cls-4" d="M26,29.83l2.46,2.6V28.27a1.9,1.9,0,1,0-3.79,0v1A1.74,1.74,0,0,1,26,29.83Z"/><path class="cls-4" d="M33.55,37.75,26,29.83a1.83,1.83,0,0,0-3.11,1.65l6.84,31.57,3.79,1.27Z"/><path class="cls-5" d="M74,71.28H51.9a3.16,3.16,0,0,0,0,6.32H74a3.16,3.16,0,1,0,0-6.32Z"/><path class="cls-4" d="M74,71.28H51.9a3.16,3.16,0,0,0,0,6.32H74a3.16,3.16,0,1,0,0-6.32Z"/><circle class="cls-3" cx="51.9" cy="74.44" r="3.16"/><circle class="cls-4" cx="51.9" cy="74.44" r="3.16"/><circle class="cls-3" cx="74.03" cy="74.44" r="3.16"/><circle class="cls-4" cx="74.03" cy="74.44" r="3.16"/><path class="cls-5" d="M74,68.75H51.9a5.69,5.69,0,1,0,0,11.38H74a5.69,5.69,0,1,0,0-11.38Zm0,8.85H51.9a3.16,3.16,0,0,1,0-6.32H74a3.16,3.16,0,1,1,0,6.32Z"/><path class="cls-4" d="M74,68.75H51.9a5.69,5.69,0,1,0,0,11.38H74a5.69,5.69,0,1,0,0-11.38Zm0,8.85H51.9a3.16,3.16,0,0,1,0-6.32H74a3.16,3.16,0,1,1,0,6.32Z"/><circle class="cls-4" cx="51.9" cy="74.44" r="0.63"/><circle class="cls-4" cx="74.03" cy="74.44" r="0.63"/><rect class="cls-3" x="58.22" y="64.95" width="9.49" height="3.8"/><rect class="cls-4" x="58.22" y="64.95" width="9.49" height="3.8"/><path class="cls-5" d="M52.53,62.42a1.27,1.27,0,1,0,0,2.53H74.67a1.26,1.26,0,0,0,1.26-1.26V62.42Z"/><path class="cls-4" d="M52.53,62.42a1.27,1.27,0,1,0,0,2.53H74.67a1.26,1.26,0,0,0,1.26-1.26V62.42Z"/><rect class="cls-5" x="68.98" y="51.67" width="6.96" height="10.75"/><rect class="cls-4" x="68.98" y="51.67" width="6.96" height="10.75"/><rect class="cls-3" x="66.44" y="51.67" width="2.53" height="10.75"/><rect class="cls-4" x="66.44" y="51.67" width="2.53" height="10.75"/><path class="cls-3" d="M75.93,51.67a3.8,3.8,0,0,0-3.79-3.8h-1.9A1.26,1.26,0,0,0,69,49.14v2.53Z"/><path class="cls-4" d="M75.93,51.67a3.8,3.8,0,0,0-3.79-3.8h-1.9A1.26,1.26,0,0,0,69,49.14v2.53Z"/><path class="cls-5" d="M65.35,47.87h-7.1a1.11,1.11,0,0,0-1,.58l-4,7.4a1.18,1.18,0,0,0-.13.52v6.05H66.44V49A1.1,1.1,0,0,0,65.35,47.87Z"/><path class="cls-4" d="M65.35,47.87h-7.1a1.11,1.11,0,0,0-1,.58l-4,7.4a1.18,1.18,0,0,0-.13.52v6.05H66.44V49A1.1,1.1,0,0,0,65.35,47.87Z"/><path class="cls-5" d="M63.91,51.67v7a1.26,1.26,0,0,1-1.26,1.27H57a1.28,1.28,0,0,1-1.27-1.27V57a1.15,1.15,0,0,1,.14-.55L58.5,51.1a1.27,1.27,0,0,1,1.14-.69h3A1.27,1.27,0,0,1,63.91,51.67Z"/><path class="cls-3" d="M63.8,51.15l-8,8a1.17,1.17,0,0,1-.12-.52V57a1.15,1.15,0,0,1,.14-.55L58.5,51.1a1.27,1.27,0,0,1,1.14-.69h3A1.26,1.26,0,0,1,63.8,51.15Z"/><path class="cls-4" d="M63.91,51.67v7a1.26,1.26,0,0,1-1.26,1.27H57a1.28,1.28,0,0,1-1.27-1.27V57a1.15,1.15,0,0,1,.14-.55L58.5,51.1a1.27,1.27,0,0,1,1.14-.69h3A1.27,1.27,0,0,1,63.91,51.67Z"/><path class="cls-5" d="M29.72,40.89l5.62,2.82a1.39,1.39,0,0,0,2-1.25V36.84a1.39,1.39,0,0,0-2-1.24l-5.62,2.81A1.38,1.38,0,0,0,29.72,40.89Z"/><path class="cls-4" d="M29.72,40.89l5.62,2.82a1.39,1.39,0,0,0,2-1.25V36.84a1.39,1.39,0,0,0-2-1.24l-5.62,2.81A1.38,1.38,0,0,0,29.72,40.89Z"/><circle class="cls-4" cx="32.92" cy="39.65" r="0.63"/><rect class="cls-3" x="21.54" y="39.02" width="2.53" height="10.12"/><rect class="cls-4" x="21.54" y="39.02" width="2.53" height="10.12"/><path class="cls-6" d="M24.07,49.14H21.54a1.27,1.27,0,1,0,0,2.53h2.53a1.27,1.27,0,0,0,0-2.53Z"/><rect class="cls-3" x="21.54" y="51.67" width="2.53" height="4.43"/><rect class="cls-4" x="21.54" y="51.67" width="2.53" height="4.43"/><path class="cls-5" d="M31,58c0,1.9-6.33,1.9-8.86,1.9a1.9,1.9,0,1,1,0-3.79C24.7,56.1,31,56.1,31,58Z"/><path class="cls-4" d="M31,58c0,1.9-6.33,1.9-8.86,1.9a1.9,1.9,0,1,1,0-3.79C24.7,56.1,31,56.1,31,58Z"/><path class="cls-3" d="M24.47,65.79h0a1.89,1.89,0,0,0-1,1.85,2,2,0,0,0,2,1.73h8.08v-5a1.94,1.94,0,0,0-2.82-1.73Z"/><path class="cls-4" d="M24.47,65.79h0a1.89,1.89,0,0,0-1,1.85,2,2,0,0,0,2,1.73h8.08v-5a1.94,1.94,0,0,0-2.82-1.73Z"/><path class="cls-5" d="M40.51,80.13H28a5.06,5.06,0,0,1-2.91-9.19l6.86-4.85a1.65,1.65,0,0,1,2.44.66Z"/><path class="cls-4" d="M40.51,80.13H28a5.06,5.06,0,0,1-2.91-9.19l6.86-4.85a1.65,1.65,0,0,1,2.44.66Z"/><path class="cls-6" d="M43,77.6H39.35l-5-10.85a1.65,1.65,0,0,0-2.44-.66l-.77.55,6.18,13.49H43a1.27,1.27,0,1,0,0-2.53Z"/></g></g></svg>