<svg id="Duotone" xmlns="http://www.w3.org/2000/svg" viewBox="0 0 100 112">
<defs><style>.cls-1{fill:#999;}.cls-2,.cls-5{fill:none;}.cls-3,.cls-6{fill:none;}.cls-4,.cls-7{fill:none;}.cls-4,.cls-5,.cls-6,.cls-7{stroke:#999;}.cls-4,.cls-6{stroke-miterlimit:10;}.cls-5,.cls-7{stroke-linejoin:round;}.cls-7{stroke-linecap:round;}.cls-8{fill:#999;}</style></defs><title></title>
<g id="Icons"><g id="Icons-2" data-name="Icons"><g id="New_Symbol_69-7" data-name="New Symbol 69">
</g><rect class="cls-2" x="29.57" y="30.04" width="35.88" height="48.3" rx="2.4" ry="2.4"/>
<path class="cls-3" d="M36.47,30H32.33a2.75,2.75,0,0,0-2.76,2.76V75.58a2.76,2.76,0,0,0,2.76,2.76h4.14Z"/>
<rect class="cls-4" x="29.57" y="30.04" width="35.88" height="48.3" rx="2.4" ry="2.4"/>
<path class="cls-4" d="M36.47,30H32.33a2.75,2.75,0,0,0-2.76,2.76V75.58a2.76,2.76,0,0,0,2.76,2.76h4.14Z"/>
<path class="cls-5" d="M65.45,62.52h4a1,1,0,0,1,1,1v4.74a1,1,0,0,1-1,1h-4a0,0,0,0,1,0,0V62.52A0,0,0,0,1,65.45,62.52Z"/>
<path class="cls-5" d="M65.45,55.78h4a1,1,0,0,1,1,1v4.74a1,1,0,0,1-1,1h-4a0,0,0,0,1,0,0V55.78A0,0,0,0,1,65.45,55.78Z"/>
<path class="cls-5" d="M65.45,49h4a1,1,0,0,1,1,1v4.74a1,1,0,0,1-1,1h-4a0,0,0,0,1,0,0V49A0,0,0,0,1,65.45,49Z"/>
<path class="cls-5" d="M65.45,42.3h4a1,1,0,0,1,1,1V48a1,1,0,0,1-1,1h-4a0,0,0,0,1,0,0V42.3A0,0,0,0,1,65.45,42.3Z"/>
<path class="cls-5" d="M65.45,35.56h4a1,1,0,0,1,1,1v4.74a1,1,0,0,1-1,1h-4a0,0,0,0,1,0,0V35.56A0,0,0,0,1,65.45,35.56Z"/>
<line class="cls-7" x1="44.75" y1="59.02" x2="57.17" y2="59.02"/>
<line class="cls-7" x1="44.75" y1="62.47" x2="57.17" y2="62.47"/>
<line class="cls-7" x1="44.75" y1="65.92" x2="57.17" y2="65.92"/>
<path class="cls-8" d="M51.16,39.07a5.16,5.16,0,1,0,0,10.3c1.87,0,4.22-1.4,4.22-2.18a.33.33,0,0,0-.35-.33c-.8,0-1.37,1.57-3.78,1.57A4.21,4.21,0,1,1,51.16,40c2,0,3.9,1.26,3.9,3.47,0,1.46-1,2.82-1.88,2.82a.37.37,0,0,1-.4-.42,2.56,2.56,0,0,1,.11-.58l.89-3a2.29,2.29,0,0,0,.11-.51c0-.23-.23-.31-.46-.31a.52.52,0,0,0-.57.41l-.18.57A1.74,1.74,0,0,0,51,41.34c-1.92,0-3.21,1.88-3.21,3.69A2.17,2.17,0,0,0,50,47.26a2.34,2.34,0,0,0,1.63-.81h0a.89.89,0,0,0,1,.81,3.81,3.81,0,0,0,3.53-3.95c0-2.52-2.29-4.24-5-4.24Zm-.94,7.11a1.2,1.2,0,0,1-1.17-1.28c0-1.07.67-2.48,2-2.48.71,0,1.06.33,1.06,1s-.52,2.73-1.93,2.73Z"/></g></g></svg>