<svg id="Duotone" xmlns="http://www.w3.org/2000/svg" viewBox="0 0 100 112">
<defs>
<style>
.cls-2{fill:none;}
.cls-3{fill:none;}
.cls-4{fill:none;stroke:#999;stroke-linecap:round;stroke-linejoin:round;}
</style>
</defs>
<title></title>
<g id="Icons">
<g id="Background"></g><g id="Scene">
<path class="cls-2" d="M42.1,50.11A1.29,1.29,0,0,0,42.25,49a1.32,1.32,0,0,0-.72-.83,3.41,3.41,0,0,1-1.16-.87,3.26,3.26,0,0,1-.63-3.14,3.3,3.3,0,0,1,4.92-1.78,2.57,2.57,0,0,1,.37.28,1.31,1.31,0,0,0,1.06.3A1.29,1.29,0,0,0,47,42.4L49.16,39a1.32,1.32,0,0,0-.4-1.82l-5-3.19a3.3,3.3,0,1,0-4.43-2.82l-5-3.2a1.33,1.33,0,0,0-1.83.41L30.3,31.77a1.34,1.34,0,0,0-.15,1.09,1.3,1.3,0,0,0,.73.82,3.41,3.41,0,0,1,1.16.88,3.24,3.24,0,0,1,.63,3.13,3.31,3.31,0,0,1-4.92,1.79c-.13-.09-.26-.18-.38-.28a1.31,1.31,0,0,0-2,.29l-2.15,3.38a1.31,1.31,0,0,0,.4,1.82l5,3.2a3.24,3.24,0,0,0-2,2.21,3.3,3.3,0,0,0,6,2.64,3.34,3.34,0,0,0,.5-2l5,3.2A1.31,1.31,0,0,0,40,53.49Z"/>
<path class="cls-3" d="M66.35,56.91a3.29,3.29,0,0,0-1.78-5.18,3.31,3.31,0,0,0-4.14,3.2,3.35,3.35,0,0,0,.67,2H53.83v7.27a3.3,3.3,0,1,1,2,5.93,3.25,3.25,0,0,1-2-.68v7.28H72.31a1.32,1.32,0,0,0,1.32-1.32V56.91Z"/>
<path class="cls-3" d="M56.79,63.65a3.3,3.3,0,0,0-3,.53V56.91H48.5a1.34,1.34,0,0,0-1,.45,1.31,1.31,0,0,0-.3,1.06,3.43,3.43,0,0,1-.12,1.44,3.26,3.26,0,0,1-2.3,2.22,3.31,3.31,0,0,1-4.15-3.19,3.59,3.59,0,0,1,0-.47,1.3,1.3,0,0,0-1.3-1.51h-4A1.32,1.32,0,0,0,34,58.23v6a3.3,3.3,0,1,0-2,5.93,3.25,3.25,0,0,0,2-.68v6a1.32,1.32,0,0,0,1.32,1.32H53.83V69.43a3.25,3.25,0,0,0,2,.68,3.3,3.3,0,0,0,1-6.46Z"/>
<path class="cls-3" d="M68.3,37.11a1.34,1.34,0,0,0-1,.45,1.31,1.31,0,0,0-.3,1.06,3.43,3.43,0,0,1-.12,1.44,3.26,3.26,0,0,1-2.3,2.22,3.31,3.31,0,0,1-4.15-3.19,3.59,3.59,0,0,1,0-.47,1.3,1.3,0,0,0-1.3-1.51h-4a1.32,1.32,0,0,0-1.32,1.32v6a3.3,3.3,0,1,0-2,5.93,3.25,3.25,0,0,0,2-.68v7.28H61.1a3.3,3.3,0,0,1,1.78-5.18,3.29,3.29,0,0,1,3.47,5.18h7.28V38.43a1.32,1.32,0,0,0-1.32-1.32Z"/>
<path class="cls-4" d="M56.79,63.65a3.3,3.3,0,0,0-3,.53V56.91H48.5a1.34,1.34,0,0,0-1,.45,1.31,1.31,0,0,0-.3,1.06,3.43,3.43,0,0,1-.12,1.44,3.26,3.26,0,0,1-2.3,2.22,3.31,3.31,0,0,1-4.15-3.19,3.59,3.59,0,0,1,0-.47,1.3,1.3,0,0,0-1.3-1.51h-4A1.32,1.32,0,0,0,34,58.23v6a3.3,3.3,0,1,0-2,5.93,3.25,3.25,0,0,0,2-.68v6a1.32,1.32,0,0,0,1.32,1.32H53.83V69.43a3.25,3.25,0,0,0,2,.68,3.3,3.3,0,0,0,1-6.46Z"/>
<path class="cls-4" d="M42.1,50.11A1.29,1.29,0,0,0,42.25,49a1.32,1.32,0,0,0-.72-.83,3.41,3.41,0,0,1-1.16-.87,3.26,3.26,0,0,1-.63-3.14,3.3,3.3,0,0,1,4.92-1.78,2.57,2.57,0,0,1,.37.28,1.31,1.31,0,0,0,1.06.3A1.29,1.29,0,0,0,47,42.4L49.16,39a1.32,1.32,0,0,0-.4-1.82l-5-3.19a3.3,3.3,0,1,0-4.43-2.82l-5-3.2a1.33,1.33,0,0,0-1.83.41L30.3,31.77a1.34,1.34,0,0,0-.15,1.09,1.3,1.3,0,0,0,.73.82,3.41,3.41,0,0,1,1.16.88,3.24,3.24,0,0,1,.63,3.13,3.31,3.31,0,0,1-4.92,1.79c-.13-.09-.26-.18-.38-.28a1.31,1.31,0,0,0-2,.29l-2.15,3.38a1.31,1.31,0,0,0,.4,1.82l5,3.2a3.24,3.24,0,0,0-2,2.21,3.3,3.3,0,0,0,6,2.64,3.34,3.34,0,0,0,.5-2l5,3.2A1.31,1.31,0,0,0,40,53.49Z"/>
<path class="cls-4" d="M68.3,37.11a1.34,1.34,0,0,0-1,.45,1.31,1.31,0,0,0-.3,1.06,3.43,3.43,0,0,1-.12,1.44,3.26,3.26,0,0,1-2.3,2.22,3.31,3.31,0,0,1-4.15-3.19,3.59,3.59,0,0,1,0-.47,1.3,1.3,0,0,0-1.3-1.51h-4a1.32,1.32,0,0,0-1.32,1.32v6a3.3,3.3,0,1,0-2,5.93,3.25,3.25,0,0,0,2-.68v7.28H61.1a3.3,3.3,0,0,1,1.78-5.18,3.29,3.29,0,0,1,3.47,5.18h7.28V38.43a1.32,1.32,0,0,0-1.32-1.32Z"/>
</g></g></svg>