<svg xmlns="http://www.w3.org/2000/svg" id="Duotone" viewBox="0 0 100 112"><defs><style>.cls-1{fill:#fff;}.cls-2{fill:#d6daff;}.cls-3,.cls-5{fill:#fff;}.cls-4{fill:none;}.cls-4,.cls-5{stroke:#999;stroke-linecap:round;stroke-linejoin:round;}</style></defs><title></title><g id="Icons"><g id="Background"><circle class="cls-1" cx="50" cy="56" r="40"/></g><g id="Scene"><rect class="cls-3" x="26.43" y="40.91" width="47.15" height="29.9" rx="2" ry="2"/><rect class="cls-4" x="26.43" y="40.91" width="47.15" height="29.9" rx="2" ry="2"/><path class="cls-5" d="M26.68,42.17,48.77,57.23a2.28,2.28,0,0,0,2.46,0L73.32,42.17a2.3,2.3,0,0,0-2-1.26H28.73A2.31,2.31,0,0,0,26.68,42.17Z"/><line class="cls-4" x1="28.16" y1="70.74" x2="45.59" y2="55.06"/><line class="cls-4" x1="71.83" y1="70.74" x2="54.43" y2="55.05"/><path class="cls-2" d="M67.06,47.81a17.83,17.83,0,0,0-30.17-6.9H50a12.09,12.09,0,0,1,10.91,6.9h-4l6.9,7.48,6.9-7.48Z"/><path class="cls-4" d="M67.06,47.81a17.83,17.83,0,0,0-30.17-6.9H50a12.09,12.09,0,0,1,10.91,6.9h-4l6.9,7.48,6.9-7.48Z"/><path class="cls-2" d="M32.94,63.91a17.83,17.83,0,0,0,30.17,6.9H50a12.07,12.07,0,0,1-10.91-6.9h4l-6.9-7.47-6.9,7.47Z"/><path class="cls-4" d="M32.94,63.91a17.83,17.83,0,0,0,30.17,6.9H50a12.07,12.07,0,0,1-10.91-6.9h4l-6.9-7.47-6.9,7.47Z"/></g></g></svg>