<?xml version="1.0" encoding="utf-8"?>
<!-- Generator: Adobe Illustrator 16.0.3, SVG Export Plug-In . SVG Version: 6.00 Build 0)  -->
<!DOCTYPE svg PUBLIC "-//W3C//DTD SVG 1.1//EN" "http://www.w3.org/Graphics/SVG/1.1/DTD/svg11.dtd">
<svg version="1.1" xmlns="http://www.w3.org/2000/svg" xmlns:xlink="http://www.w3.org/1999/xlink" x="0px" y="0px" width="24px"
	 height="24px" viewBox="0 0 24 24" enable-background="new 0 0 24 24" xml:space="preserve">
<g id="Outline_Icons">
	<g>
		<polyline fill="none" stroke="#999" stroke-linecap="round" stroke-linejoin="round" stroke-miterlimit="10" points="
			14.124,14 18.118,13.015 17.158,9.031 		"/>
		<g>
			<g>
				<path d="M21.5,2C21.225,2,21,2.224,21,2.5S21.225,3,21.5,3C21.777,3,22,2.776,22,2.5S21.777,2,21.5,2L21.5,2z"/>
			</g>
		</g>
		<g>
			<g>
				<path d="M19.5,2C19.225,2,19,2.224,19,2.5S19.225,3,19.5,3C19.777,3,20,2.776,20,2.5S19.777,2,19.5,2L19.5,2z"/>
			</g>
		</g>
		<g>
			<g>
				<path d="M17.5,2C17.225,2,17,2.224,17,2.5S17.225,3,17.5,3C17.777,3,18,2.776,18,2.5S17.777,2,17.5,2L17.5,2z"/>
			</g>
		</g>
		<g>
			<g>
				<path d="M15.5,2C15.225,2,15,2.224,15,2.5S15.225,3,15.5,3C15.777,3,16,2.776,16,2.5S15.777,2,15.5,2L15.5,2z"/>
			</g>
		</g>
		<g>
			<g>
				<path d="M21.5,22c-0.275,0-0.5,0.224-0.5,0.5s0.225,0.5,0.5,0.5c0.277,0,0.5-0.224,0.5-0.5S21.777,22,21.5,22L21.5,22z"/>
			</g>
		</g>
		<g>
			<g>
				<path d="M19.5,22c-0.275,0-0.5,0.224-0.5,0.5s0.225,0.5,0.5,0.5c0.277,0,0.5-0.224,0.5-0.5S19.777,22,19.5,22L19.5,22z"/>
			</g>
		</g>
		<g>
			<g>
				<path d="M17.5,22c-0.275,0-0.5,0.224-0.5,0.5s0.225,0.5,0.5,0.5c0.277,0,0.5-0.224,0.5-0.5S17.777,22,17.5,22L17.5,22z"/>
			</g>
		</g>
		<g>
			<g>
				<path d="M15.5,22c-0.275,0-0.5,0.224-0.5,0.5s0.225,0.5,0.5,0.5c0.277,0,0.5-0.224,0.5-0.5S15.777,22,15.5,22L15.5,22z"/>
			</g>
		</g>
		<g>
			<g>
				<path d="M13.5,2C13.225,2,13,2.224,13,2.5S13.225,3,13.5,3C13.777,3,14,2.776,14,2.5S13.777,2,13.5,2L13.5,2z"/>
			</g>
		</g>
		<g>
			<g>
				<path d="M13.5,22c-0.275,0-0.5,0.224-0.5,0.5s0.225,0.5,0.5,0.5c0.277,0,0.5-0.224,0.5-0.5S13.777,22,13.5,22L13.5,22z"/>
			</g>
		</g>
		<g>
			<g>
				<path d="M23.5,2C23.225,2,23,2.224,23,2.5S23.225,3,23.5,3C23.777,3,24,2.776,24,2.5S23.777,2,23.5,2L23.5,2z"/>
			</g>
		</g>
		<g>
			<g>
				<path d="M23.5,4C23.225,4,23,4.224,23,4.5S23.225,5,23.5,5C23.777,5,24,4.776,24,4.5S23.777,4,23.5,4L23.5,4z"/>
			</g>
		</g>
		<g>
			<g>
				<path d="M23.5,6C23.225,6,23,6.224,23,6.5S23.225,7,23.5,7C23.777,7,24,6.776,24,6.5S23.777,6,23.5,6L23.5,6z"/>
			</g>
		</g>
		<g>
			<g>
				<path d="M23.5,8C23.225,8,23,8.224,23,8.5S23.225,9,23.5,9C23.777,9,24,8.776,24,8.5S23.777,8,23.5,8L23.5,8z"/>
			</g>
		</g>
		<g>
			<g>
				<path d="M23.5,10c-0.275,0-0.5,0.224-0.5,0.5s0.225,0.5,0.5,0.5c0.277,0,0.5-0.224,0.5-0.5S23.777,10,23.5,10L23.5,10z"/>
			</g>
		</g>
		<g>
			<g>
				<path d="M23.5,12c-0.275,0-0.5,0.224-0.5,0.5s0.225,0.5,0.5,0.5c0.277,0,0.5-0.224,0.5-0.5S23.777,12,23.5,12L23.5,12z"/>
			</g>
		</g>
		<g>
			<g>
				<path d="M23.5,14c-0.275,0-0.5,0.224-0.5,0.5s0.225,0.5,0.5,0.5c0.277,0,0.5-0.224,0.5-0.5S23.777,14,23.5,14L23.5,14z"/>
			</g>
		</g>
		<g>
			<g>
				<path d="M23.5,16c-0.275,0-0.5,0.224-0.5,0.5s0.225,0.5,0.5,0.5c0.277,0,0.5-0.224,0.5-0.5S23.777,16,23.5,16L23.5,16z"/>
			</g>
		</g>
		<g>
			<g>
				<path d="M23.5,18c-0.275,0-0.5,0.224-0.5,0.5s0.225,0.5,0.5,0.5c0.277,0,0.5-0.224,0.5-0.5S23.777,18,23.5,18L23.5,18z"/>
			</g>
		</g>
		<g>
			<g>
				<path d="M23.5,20c-0.275,0-0.5,0.224-0.5,0.5s0.225,0.5,0.5,0.5c0.277,0,0.5-0.224,0.5-0.5S23.777,20,23.5,20L23.5,20z"/>
			</g>
		</g>
		<g>
			<g>
				<path d="M23.5,22c-0.275,0-0.5,0.224-0.5,0.5s0.225,0.5,0.5,0.5c0.277,0,0.5-0.224,0.5-0.5S23.777,22,23.5,22L23.5,22z"/>
			</g>
		</g>
		<polyline fill="none" stroke="#999" stroke-linecap="round" stroke-linejoin="round" stroke-miterlimit="10" points="9.5,22.5 
			0.5,22.5 0.5,2.5 9.5,2.5 		"/>
		
			<line fill="none" stroke="#999" stroke-linecap="round" stroke-linejoin="round" stroke-miterlimit="10" x1="11.5" y1="13.5" x2="11.5" y2="23.5"/>
		
			<line fill="none" stroke="#999" stroke-linecap="round" stroke-linejoin="round" stroke-miterlimit="10" x1="11.5" y1="0.5" x2="11.5" y2="7.5"/>
		<path fill="none" stroke="#999" stroke-linecap="round" stroke-linejoin="round" stroke-miterlimit="10" d="M18.118,13.003
			c-1.763-1.558-4.08-2.503-6.618-2.503c-2.513,0-4.81,0.927-6.567,2.458"/>
	</g>
</g>
<g id="Invisible_Shape">
	<rect fill="none" width="24" height="24"/>
</g>
</svg>
