<svg id="Duotone" xmlns="http://www.w3.org/2000/svg" viewBox="0 0 100 112"><defs><style>.cls-1{fill:#f0f2ff;}.cls-2{fill:none;}.cls-2,.cls-4,.cls-6{stroke:#999;stroke-linecap:round;stroke-linejoin:round;}.cls-3,.cls-6{fill:#fff;}.cls-4,.cls-5{fill:#d6daff;}</style></defs><title>28- apartment-condominium-building-construction</title><g id="Icons"><g id="Background"><path class="cls-1" d="M90,56A40,40,0,1,0,13.56,72.5H86.44A39.85,39.85,0,0,0,90,56Z"/><line class="cls-2" x1="11" y1="72.5" x2="89" y2="72.5"/><line class="cls-2" x1="6.5" y1="72.5" x2="9" y2="72.5"/><line class="cls-2" x1="91" y1="72.5" x2="93.5" y2="72.5"/></g><g id="Scene"><ellipse class="cls-1" cx="48.05" cy="90.81" rx="18.4" ry="1.73"/><rect class="cls-3" x="57.25" y="33.88" width="19.55" height="40.25"/><rect class="cls-2" x="57.25" y="33.88" width="19.55" height="40.25"/><rect class="cls-3" x="41.15" y="39.06" width="16.1" height="35.07"/><rect class="cls-3" x="41.15" y="39.06" width="16.1" height="3.45"/><rect class="cls-2" x="41.15" y="39.06" width="16.1" height="35.07"/><rect class="cls-4" x="60.7" y="38.48" width="3.45" height="2.88"/><rect class="cls-4" x="71.62" y="38.48" width="2.88" height="2.88"/><rect class="cls-4" x="60.7" y="44.23" width="3.45" height="2.88"/><rect class="cls-4" x="71.62" y="44.23" width="2.88" height="2.88"/><rect class="cls-4" x="60.7" y="49.98" width="3.45" height="2.88"/><rect class="cls-4" x="71.62" y="49.98" width="2.88" height="2.88"/><rect class="cls-4" x="60.7" y="55.73" width="3.45" height="2.88"/><rect class="cls-4" x="71.62" y="55.73" width="2.88" height="2.88"/><rect class="cls-4" x="60.7" y="61.48" width="3.45" height="2.88"/><rect class="cls-4" x="71.62" y="61.48" width="2.88" height="2.88"/><line class="cls-2" x1="68.17" y1="74.13" x2="68.17" y2="38.48"/><line class="cls-2" x1="52.65" y1="22.08" x2="29.07" y2="16.06"/><line class="cls-2" x1="16.82" y1="22.08" x2="29.07" y2="16.06"/><polygon class="cls-5" points="33.26 24.82 34.63 29.61 25.04 29.61 25.04 24.82 33.26 24.82"/><polygon class="cls-3" points="30.7 24.82 25.04 24.82 25.04 29.61 27.21 29.61 30.7 24.82"/><rect class="cls-6" x="13.4" y="22.08" width="40.4" height="2.74" rx="1" ry="1" transform="translate(67.2 46.91) rotate(180)"/><rect class="cls-6" x="26.41" y="32.35" width="5.48" height="41.78" transform="translate(58.3 106.49) rotate(180)"/><path class="cls-6" d="M27.18,22.08h3.93a.57.57,0,0,0,.55-.74l-1.41-4.59a1.15,1.15,0,0,0-2.2,0l-1.41,4.59A.57.57,0,0,0,27.18,22.08Z"/><path class="cls-4" d="M34.05,32.35H25.62a.57.57,0,0,1-.58-.57V29.61h9.59v2.17A.57.57,0,0,1,34.05,32.35Z"/><polygon class="cls-2" points="33.26 24.82 34.63 29.61 25.04 29.61 25.04 24.82 33.26 24.82"/><path class="cls-4" d="M46.64,24.82h3.48a1,1,0,0,1,1,1v1.74a0,0,0,0,1,0,0H45.64a0,0,0,0,1,0,0V25.82A1,1,0,0,1,46.64,24.82Z" transform="translate(96.76 52.38) rotate(180)"/><circle class="cls-4" cx="48.38" cy="28.93" r="1.37"/><line class="cls-2" x1="31.89" y1="45.36" x2="26.41" y2="50.84"/><line class="cls-2" x1="26.41" y1="45.36" x2="31.89" y2="50.84"/><line class="cls-2" x1="31.89" y1="51.52" x2="26.41" y2="57"/><line class="cls-2" x1="26.41" y1="51.52" x2="31.89" y2="57"/><line class="cls-2" x1="31.89" y1="57.16" x2="26.41" y2="62.63"/><line class="cls-2" x1="26.41" y1="57.16" x2="31.89" y2="62.63"/><line class="cls-2" x1="31.89" y1="62.91" x2="26.41" y2="68.38"/><line class="cls-2" x1="26.41" y1="62.91" x2="31.89" y2="68.38"/><line class="cls-2" x1="31.89" y1="39.2" x2="26.41" y2="44.68"/><line class="cls-2" x1="26.41" y1="39.2" x2="31.89" y2="44.68"/><line class="cls-2" x1="31.89" y1="33.04" x2="26.41" y2="38.52"/><line class="cls-2" x1="26.41" y1="33.04" x2="31.89" y2="38.52"/><path class="cls-4" d="M16.35,71.83H35.47a.5.5,0,0,1,.5.5v1.8a0,0,0,0,1,0,0H15.85a0,0,0,0,1,0,0v-1.8A.5.5,0,0,1,16.35,71.83Z"/><path class="cls-4" d="M26.12,69.53H32.6a.5.5,0,0,1,.5.5v1.8a0,0,0,0,1,0,0H25.62a0,0,0,0,1,0,0V70A.5.5,0,0,1,26.12,69.53Z"/><rect class="cls-6" x="17" y="69.53" width="5.75" height="2.3"/><rect class="cls-6" x="17" y="67.23" width="5.75" height="2.3"/><path class="cls-6" d="M18,64.93h3.75a1,1,0,0,1,1,1v1.3a0,0,0,0,1,0,0H17a0,0,0,0,1,0,0v-1.3A1,1,0,0,1,18,64.93Z"/><polygon class="cls-2" points="48.38 30.3 44.36 33.89 52.41 33.89 48.38 30.3"/><path class="cls-4" d="M44.36,33.89h8.05a0,0,0,0,1,0,0v1.3a1,1,0,0,1-1,1H45.36a1,1,0,0,1-1-1v-1.3A0,0,0,0,1,44.36,33.89Z"/><path class="cls-4" d="M61.2,28.71h1.3a.5.5,0,0,1,.5.5v4.67a0,0,0,0,1,0,0H60.7a0,0,0,0,1,0,0V29.21A.5.5,0,0,1,61.2,28.71Z"/><path class="cls-4" d="M52.91,33.88h1.3a.5.5,0,0,1,.5.5v4.68a0,0,0,0,1,0,0h-2.3a0,0,0,0,1,0,0V34.38A.5.5,0,0,1,52.91,33.88Z"/><path class="cls-4" d="M73.27,30.43h1.3a.5.5,0,0,1,.5.5v2.95a0,0,0,0,1,0,0h-2.3a0,0,0,0,1,0,0V30.93A.5.5,0,0,1,73.27,30.43Z"/><rect class="cls-4" x="44.6" y="42.51" width="4.6" height="25.3"/><path class="cls-6" d="M39.92,42.51H57.25a0,0,0,0,1,0,0v2.3a0,0,0,0,1,0,0H39.92a.5.5,0,0,1-.5-.5V43A.5.5,0,0,1,39.92,42.51Z"/><path class="cls-6" d="M39.92,48.26H57.25a0,0,0,0,1,0,0v2.3a0,0,0,0,1,0,0H39.92a.5.5,0,0,1-.5-.5v-1.3A.5.5,0,0,1,39.92,48.26Z"/><path class="cls-6" d="M39.92,54H57.25a0,0,0,0,1,0,0v2.3a0,0,0,0,1,0,0H39.92a.5.5,0,0,1-.5-.5v-1.3A.5.5,0,0,1,39.92,54Z"/><path class="cls-6" d="M39.92,59.76H57.25a0,0,0,0,1,0,0v2.3a0,0,0,0,1,0,0H39.92a.5.5,0,0,1-.5-.5v-1.3A.5.5,0,0,1,39.92,59.76Z"/><path class="cls-6" d="M39.92,65.51H57.25a0,0,0,0,1,0,0v2.3a0,0,0,0,1,0,0H39.92a.5.5,0,0,1-.5-.5V66A.5.5,0,0,1,39.92,65.51Z"/><rect class="cls-4" x="43.45" y="70.11" width="13.8" height="4.02"/><rect class="cls-5" x="51.5" y="67.81" width="30.48" height="9.77" rx="1" ry="1"/><rect class="cls-2" x="51.5" y="67.81" width="30.48" height="9.77" rx="1" ry="1"/><line class="cls-2" x1="54.37" y1="71.26" x2="54.37" y2="74.13"/><line class="cls-2" x1="57.82" y1="71.26" x2="57.82" y2="74.13"/><line class="cls-2" x1="61.27" y1="71.26" x2="61.27" y2="74.13"/><line class="cls-2" x1="64.72" y1="71.26" x2="64.72" y2="74.13"/><line class="cls-2" x1="68.17" y1="71.26" x2="68.17" y2="74.13"/><line class="cls-2" x1="71.62" y1="71.26" x2="71.62" y2="74.13"/><line class="cls-2" x1="79.67" y1="71.26" x2="79.67" y2="74.13"/><path class="cls-6" d="M73.42,73.83,75.08,71a.57.57,0,0,1,1,0l1.65,2.86a.57.57,0,0,1-.5.86h-3.3A.58.58,0,0,1,73.42,73.83Z"/><path class="cls-4" d="M36.06,84.12l1,.5a10.5,10.5,0,0,0,3.23,1.07h0a10.83,10.83,0,0,0,3.41,0l1.07-.18a1.15,1.15,0,0,0,1-1L46,82.79a1.14,1.14,0,0,0-.6-1.2l-1-.5A10.5,10.5,0,0,0,41.17,80h0a10.27,10.27,0,0,0-3.41,0l-1.06.17a1.17,1.17,0,0,0-1,1l-.28,1.77A1.15,1.15,0,0,0,36.06,84.12Z"/><rect class="cls-6" x="39.27" y="79.69" width="2.88" height="6.33" transform="translate(64.53 172.04) rotate(-168.79)"/><path class="cls-4" d="M44.6,87.93h6.32a.57.57,0,0,0,.58-.57V83.91l-1.73-3.45H44.6Z"/><path class="cls-6" d="M44.6,86.78v2.3H34.25a1.15,1.15,0,0,1-1.15-1.15V82.76a1.15,1.15,0,1,1,2.3,0v3.45a.57.57,0,0,0,.57.57Z"/><circle class="cls-4" cx="45.75" cy="88.51" r="1.72"/><circle class="cls-4" cx="35.97" cy="88.51" r="1.72"/><circle class="cls-4" cx="39.42" cy="88.51" r="1.72"/><polygon class="cls-5" points="49.77 80.46 51.5 83.91 46.9 83.91 46.9 80.46 49.77 80.46"/><polygon class="cls-3" points="49.84 80.59 49.77 80.46 46.9 80.46 46.9 83.91 47.42 83.91 49.84 80.59"/><polygon class="cls-2" points="49.77 80.46 51.5 83.91 46.9 83.91 46.9 80.46 49.77 80.46"/><polyline class="cls-2" points="54.95 90.23 56.67 85.63 57.82 90.23"/><polyline class="cls-2" points="61.27 90.23 63 85.63 64.15 90.23"/><polygon class="cls-6" points="63.57 87.93 57.25 87.93 56.67 85.63 63 85.63 63.57 87.93"/><polygon class="cls-4" points="58.4 85.63 59.55 87.93 61.85 87.93 60.7 85.63 58.4 85.63"/></g></g></svg>