<svg xmlns="http://www.w3.org/2000/svg" id="Duotone" viewBox="0 0 100 112"><defs><style>.cls-1{fill:#fff;}.cls-2,.cls-6{fill:none;}.cls-2,.cls-3,.cls-6{stroke:#999;}.cls-2,.cls-3{stroke-linecap:round;stroke-linejoin:round;}.cls-3,.cls-5{fill:#fff;}.cls-4{fill:#d6daff;}.cls-6{stroke-miterlimit:10;}</style></defs><title>38- programming-macbook-finding-bug</title><g id="Icons"><g id="Background"><path class="cls-1" d="M90.34,56A40,40,0,1,0,13.9,72.5H86.77A39.7,39.7,0,0,0,90.34,56Z"/></g><g id="Scene"><path class="cls-3" d="M20.47,47.92H65.35a2,2,0,0,1,2,2V79a0,0,0,0,1,0,0H18.47a0,0,0,0,1,0,0v-29A2,2,0,0,1,20.47,47.92Z"/><path class="cls-4" d="M23,51.37H62.9a1,1,0,0,1,1,1V79a0,0,0,0,1,0,0H22a0,0,0,0,1,0,0V52.37A1,1,0,0,1,23,51.37Z"/><path class="cls-5" d="M53.5,51.37,23.89,79H22V52.52a1.16,1.16,0,0,1,1.15-1.15Z"/><path class="cls-2" d="M23,51.37H62.9a1,1,0,0,1,1,1V79a0,0,0,0,1,0,0H22a0,0,0,0,1,0,0V52.37A1,1,0,0,1,23,51.37Z"/><ellipse class="cls-1" cx="44.06" cy="85.85" rx="27.6" ry="1.72"/><path class="cls-3" d="M15.16,79h55.5a1,1,0,0,1,1,1V82.4a0,0,0,0,1,0,0H14.16a0,0,0,0,1,0,0V80A1,1,0,0,1,15.16,79Z"/><path class="cls-3" d="M71.66,82.4a59.63,59.63,0,0,1-16.42,2.3H30.58a59.63,59.63,0,0,1-16.42-2.3h57.5Z"/><rect class="cls-3" x="69.66" y="56.51" width="4.77" height="8.35" transform="translate(-21.81 68.71) rotate(-45)"/><circle class="cls-3" cx="57.28" cy="46.77" r="17.89" transform="translate(-15.99 36.78) rotate(-31.46)"/><circle class="cls-4" cx="57.28" cy="46.77" r="14.31" transform="translate(-8.27 81.01) rotate(-66.81)"/><path class="cls-5" d="M67.41,36.67A14.3,14.3,0,1,0,47.18,56.9Z"/><path class="cls-6" d="M67.4,36.65a14.31,14.31,0,1,1-20.23,0A14.31,14.31,0,0,1,67.4,36.65Z"/><path class="cls-4" d="M88.14,76.63l-.16.16a3.49,3.49,0,0,1-4.9,0L72.43,66.14a1.15,1.15,0,0,1,0-1.63l3.43-3.43a1.15,1.15,0,0,1,1.63,0L88.14,71.73A3.45,3.45,0,0,1,88.14,76.63Z"/><path class="cls-6" d="M88.14,76.63l-.16.16a3.49,3.49,0,0,1-4.9,0L72.43,66.14a1.15,1.15,0,0,1,0-1.63l3.43-3.43a1.15,1.15,0,0,1,1.63,0L88.14,71.73A3.45,3.45,0,0,1,88.14,76.63Z"/></g></g></svg>