<svg id="Duotone" xmlns="http://www.w3.org/2000/svg" viewBox="0 0 100 112"><defs>
<style>.cls-1{fill:#f0f2ff;}.cls-2{fill:none;}.cls-2,.cls-3{stroke:#999;stroke-linecap:round;stroke-linejoin:round;stoke-width: 0.5px;}.cls-3,.cls-5{fill:#fff;}.cls-4{fill:#fff;}</style></defs><title></title><g id="Icons">
<g id="Background"><circle class="cls-1" cx="50.34" cy="56" r="40"/></g>
<g id="Scene"><path class="cls-3" d="M66.45,61.82,67.61,57a.59.59,0,0,1,.7-.43L73.89,58a.57.57,0,0,1,.43.69l-1.17,4.81Z"/><line class="cls-2" x1="71.1" y1="57.27" x2="74.51" y2="43.19"/><path class="cls-2" d="M74.3,39.58l2,.5a.57.57,0,0,1,.28,1l-2.11,2.15-.9-2.88A.58.58,0,0,1,74.3,39.58Z"/><path class="cls-4" d="M50.35,43.49a6.22,6.22,0,0,0-6.21-6.22,6,6,0,0,0-1.85.32,6.87,6.87,0,0,0-12.86,0,6,6,0,0,0-1.85-.32,6.22,6.22,0,0,0-6.21,6.22Z"/><path class="cls-5" d="M46.53,55.07,35,60.58a4.13,4.13,0,0,1-5.22-1.45l-9.67-14.5c-.42-.63-.15-1.14.61-1.14H50.35a.93.93,0,0,1,.95,1.3l-2.62,7.85A4.13,4.13,0,0,1,46.53,55.07Z"/><polyline class="cls-2" points="22.06 47.63 24.77 65.42 65.22 46.2"/><path class="cls-4" d="M30.34,66.26A6.21,6.21,0,1,1,24.13,60,6.21,6.21,0,0,1,30.34,66.26Z"/><path class="cls-2" d="M30.34,66.26A6.21,6.21,0,1,1,24.13,60,6.21,6.21,0,0,1,30.34,66.26Z"/><path class="cls-5" d="M26.89,66.26a2.76,2.76,0,1,1-2.76-2.77A2.75,2.75,0,0,1,26.89,66.26Z"/><path class="cls-2" d="M26.89,66.26a2.76,2.76,0,1,1-2.76-2.77A2.75,2.75,0,0,1,26.89,66.26Z"/><path class="cls-2" d="M35,60.58l6.32,10.87a2,2,0,0,0,2.32.93l2.34-.67a1.33,1.33,0,0,0,1-1.28V54.91"/><path class="cls-4" d="M76.56,67.77a7.58,7.58,0,0,0,.08-.82A6.9,6.9,0,0,0,63,65.58l-.14,0a6.9,6.9,0,0,0-6.9,6.9H81.82A6.88,6.88,0,0,0,76.56,67.77Z"/><path class="cls-2" d="M50.35,43.49a6.22,6.22,0,0,0-6.21-6.22,6,6,0,0,0-1.85.32,6.87,6.87,0,0,0-12.86,0,6,6,0,0,0-1.85-.32,6.22,6.22,0,0,0-6.21,6.22Z"/><path class="cls-2" d="M76.56,67.77a7.58,7.58,0,0,0,.08-.82A6.9,6.9,0,0,0,63,65.58l-.14,0a6.9,6.9,0,0,0-6.9,6.9H81.82A6.88,6.88,0,0,0,76.56,67.77Z"/><path class="cls-2" d="M46.53,55.07,35,60.58a4.13,4.13,0,0,1-5.22-1.45l-9.67-14.5c-.42-.63-.15-1.14.61-1.14H50.35a.93.93,0,0,1,.95,1.3l-2.62,7.85A4.13,4.13,0,0,1,46.53,55.07Z"/></g></g></svg>