<?xml version="1.0" encoding="utf-8"?>
<!-- Generator: Adobe Illustrator 16.0.3, SVG Export Plug-In . SVG Version: 6.00 Build 0)  -->
<!DOCTYPE svg PUBLIC "-//W3C//DTD SVG 1.1//EN" "http://www.w3.org/Graphics/SVG/1.1/DTD/svg11.dtd">
<svg version="1.1" xmlns="http://www.w3.org/2000/svg" xmlns:xlink="http://www.w3.org/1999/xlink" x="0px" y="0px" width="24px"
	 height="24px" viewBox="0 0 24 24" enable-background="new 0 0 24 24" xml:space="preserve">
<g id="Outline_Icons">
	<g>
		<path fill="none" stroke="#000000" stroke-linecap="round" stroke-linejoin="round" stroke-miterlimit="10" d="M19.457,4.504
			L8.295,10.127c-1.036,0.491-1.98,1.156-2.791,1.966l-3.588,3.588c-1.662,1.662-1.931,4.361-0.434,6.173
			c1.717,2.079,4.801,2.188,6.661,0.327l3.725-3.725c0.811-0.811,1.476-1.754,1.967-2.79L19.457,4.504z"/>
		<polyline fill="none" stroke="#000000" stroke-linecap="round" stroke-linejoin="round" stroke-miterlimit="10" points="
			15.922,11.575 19.104,10.515 23.347,6.272 18.396,5.565 		"/>
		<polyline fill="none" stroke="#000000" stroke-linecap="round" stroke-linejoin="round" stroke-miterlimit="10" points="
			12.386,8.04 13.447,4.858 17.689,0.615 18.396,5.565 		"/>
		
			<rect x="3.29" y="14.672" transform="matrix(0.7071 0.7071 -0.7071 0.7071 13.7169 -0.7718)" fill="none" stroke="#000000" stroke-linecap="round" stroke-linejoin="round" stroke-miterlimit="10" width="9" height="3.001"/>
		
			<line fill="none" stroke="#000000" stroke-linecap="round" stroke-linejoin="round" stroke-miterlimit="10" x1="6.729" y1="22.889" x2="1.072" y2="17.232"/>
	
 
  </g>
</g>
<g id="invisible_shape">
	<rect fill="none" width="24" height="24"/>
</g>
</svg>
