<?xml version="1.0" encoding="utf-8"?>
<!-- Generator: Adobe Illustrator 16.0.3, SVG Export Plug-In . SVG Version: 6.00 Build 0)  -->
<!DOCTYPE svg PUBLIC "-//W3C//DTD SVG 1.1//EN" "http://www.w3.org/Graphics/SVG/1.1/DTD/svg11.dtd">
<svg version="1.1" xmlns="http://www.w3.org/2000/svg" xmlns:xlink="http://www.w3.org/1999/xlink" x="0px" y="0px" width="24px"
	 height="24px" viewBox="0 0 24 24" enable-background="new 0 0 24 24" xml:space="preserve">
<g id="Outline_Icons_1_">
	<g id="Outline_Icons">
		<g>
			<g>
				<path fill="none" stroke="#000000" stroke-linecap="round" stroke-linejoin="round" stroke-miterlimit="10" d="M11.504,12.291
					h-0.007c-0.784,1-2.249,1.43-3.997,0.209v5.924c0,0,0.58,2.119,4,3.076c3.42-0.957,4-3.076,4-3.076V12.5
					C13.777,13.705,12.298,13.306,11.504,12.291z"/>
				
					<line fill="none" stroke="#000000" stroke-linecap="round" stroke-linejoin="round" stroke-miterlimit="10" x1="11.5" y1="18.5" x2="11.5" y2="14.5"/>
				
					<line fill="none" stroke="#000000" stroke-linecap="round" stroke-linejoin="round" stroke-miterlimit="10" x1="9.5" y1="16.5" x2="13.5" y2="16.5"/>
			</g>
			<g>
				<path fill="none" stroke="#000000" stroke-linecap="round" stroke-linejoin="round" stroke-miterlimit="10" d="M19.195,15.72
					c0,0,4.305-0.461,4.305-4.685c0-2.676-2.209-4.826-4.955-4.726C17.472,4.046,15.172,2.5,12.5,2.5
					c-3.563,0-6.468,2.796-6.676,6.308C3.593,8.341,1.5,9.947,1.5,12.226c0,2.412,1.677,3.162,2.811,3.394"/>
			</g>
		</g>
	</g>
	<g id="New_icons_1_">
	</g>
</g>
<g id="Invisible_Shape">
	<rect fill="none" width="24" height="24"/>
</g>
</svg>
