<svg width="60" height="60" xmlns="http://www.w3.org/2000/svg">
 <defs>
  <style>.cls-1{fill: transparent;}.cls-2{fill: transparent;}.cls-3,.cls-8{fill: transparent;}.cls-3,.cls-5,.cls-6,.cls-7,.cls-8{stroke:#999;stroke-linejoin:round;}.cls-5,.cls-6{fill:none;}.cls-6,.cls-8{stroke-linecap:round;}
  .cls-7 {
    fill: transparent;
}
.cls-4 {
    fill: transparent;
}
  </style>
 </defs>
 <title/>
 <g>
  <title>background</title>
  <rect fill="none" id="canvas_background" height="62" width="62" y="-1" x="-1"/>
 </g>
 <g>
  <title>Layer 1</title>
  <g id="Icons">
   <g id="Scene">
    <rect id="svg_1" ry="2.4" rx="2.4" height="38.94" width="46.2" y="11.13" x="6.97" class="cls-3"/>
    <path id="svg_2" d="m9.37,11.13l41.4,0a2.4,2.4 0 0 1 2.4,2.4l0,9.47a0,0 0 0 1 0,0l-46.17,0a0,0 0 0 1 0,0l0,-9.47a2.4,2.4 0 0 1 2.37,-2.4z" class="cls-2"/>
    <path id="svg_3" d="m53.17,30.93l0,16.5a2.64,2.64 0 0 1 -2.64,2.64l-18.48,0s10.56,-3.3 21.12,-19.14z" class="cls-4"/>
    <path id="svg_4" d="m53.17,30.93l0,16.5a2.64,2.64 0 0 1 -2.64,2.64l-18.48,0s10.56,-3.3 21.12,-19.14z" class="cls-5"/>
    <path id="svg_5" d="m9.37,11.13l41.4,0a2.4,2.4 0 0 1 2.4,2.4l0,9.47a0,0 0 0 1 0,0l-46.17,0a0,0 0 0 1 0,0l0,-9.47a2.4,2.4 0 0 1 2.37,-2.4z" class="cls-5"/>
    <path id="svg_6" d="m16.87,15.09a4,4 0 1 1 4,-4" class="cls-6"/>
    <path id="svg_7" d="m30.73,15.09a4,4 0 1 1 4,-4" class="cls-6"/>
    <path id="svg_8" d="m44.59,15.09a4,4 0 1 1 4,-4" class="cls-6"/>
    <line id="svg_9" y2="29.61" x2="53.17" y1="29.61" x1="6.97" class="cls-6"/>
    <line id="svg_10" y2="36.21" x2="34.58" y1="36.21" x1="6.97" class="cls-6"/>
    <line id="svg_11" y2="42.81" x2="34.58" y1="42.81" x1="6.97" class="cls-6"/>
    <line id="svg_12" y2="50.07" x2="16.21" y1="23.01" x1="16.21" class="cls-6"/>
    <line id="svg_13" y2="50.07" x2="25.45" y1="23.01" x1="25.45" class="cls-6"/>
    <line id="svg_14" y2="31.97" x2="34.69" y1="23.01" x1="34.69" class="cls-6"/>
    <line id="svg_15" y2="33.17" x2="43.93" y1="23.01" x1="43.93" class="cls-6"/>
    <rect id="svg_16" height="6.6" width="9.24" y="29.61" x="6.97" class="cls-7"/>
    <rect id="svg_17" height="7.26" width="9.24" y="42.81" x="16.21" class="cls-7"/>
    <rect id="svg_18" height="6.6" width="9.24" y="23.01" x="25.45" class="cls-7"/>
    <path id="svg_19" d="m53.17,30.93c-10.56,15.84 -21.12,19.14 -21.12,19.14a21.34,21.34 0 0 0 1.67,-17.47a0.55,0.55 0 0 1 0.65,-0.72c3.05,0.83 12.25,2.87 18.8,-0.95z" class="cls-8"/>
    <line id="svg_20" y2="19.05" x2="36.67" y1="19.05" x1="23.47" class="cls-6"/>
    <line id="svg_21" y2="19.05" x2="49.21" y1="19.05" x1="43.93" class="cls-6"/>
    <line id="svg_22" y2="19.05" x2="10.93" y1="19.05" x1="16.21" class="cls-6"/>
   </g>
  </g>
 </g>
</svg>