<svg id="Duotone" xmlns="http://www.w3.org/2000/svg" viewBox="0 0 100 112"><defs><style>.cls-1{fill:#fff;}.cls-2,.cls-4,.cls-6{fill:none;stroke:#333;}.cls-2{stroke-linecap:round;}.cls-2,.cls-4{stroke-linejoin:round;}.cls-3{fill:#fff;}.cls-5{fill:#d6daff;}.cls-6{stroke-miterlimit:10;}</style></defs><title></title><g id="Icons"><g id="Background">
</g><g id="Scene">
</g><g id="Scene"><path class="cls-3" d="M46.36,67h0V37a2.28,2.28,0,0,0-4.55,0V73.42A6.8,6.8,0,0,1,46.36,67Z"/><path class="cls-4" d="M46.36,67V37a2.28,2.28,0,0,0-4.55,0V73.42A6.8,6.8,0,0,1,46.36,67Z"/><path class="cls-3" d="M60,62a1.49,1.49,0,0,0-1.49,1.49v1.56A1.51,1.51,0,0,1,57,66.58H47.88v9.11h30.8a1.07,1.07,0,0,0,1.08-1.07V59.75a2.28,2.28,0,0,0-2.28-2.27h0a2.28,2.28,0,0,0-2.28,2.27V62Z"/><path class="cls-2" d="M60,62a1.49,1.49,0,0,0-1.49,1.49v1.56A1.51,1.51,0,0,1,57,66.58H47.88v9.11h30.8a1.07,1.07,0,0,0,1.08-1.07V59.75a2.28,2.28,0,0,0-2.28-2.27h0a2.28,2.28,0,0,0-2.28,2.27V62Z"/><rect class="cls-3" x="19.04" y="39.26" width="19.73" height="18.22" rx="1" ry="1"/><path class="cls-5" d="M55.47,73.42a6.83,6.83,0,1,1-6.83-6.84A6.83,6.83,0,0,1,55.47,73.42Z"/><path class="cls-5" d="M78.24,75.69a4.56,4.56,0,1,1-4.55-4.55A4.56,4.56,0,0,1,78.24,75.69Z"/><path class="cls-5" d="M60,60.13h0a1.9,1.9,0,0,0,1.9,1.9h7.21A1.9,1.9,0,0,0,71,60.55l1.68-7.25A1.83,1.83,0,0,0,72,51.46h0a1.8,1.8,0,0,0-2.8,1l-1.3,4.76a1.43,1.43,0,0,1-1.38,1.06h-4.6A1.89,1.89,0,0,0,60,60.13Z"/><path class="cls-6" d="M60,60.13h0a1.9,1.9,0,0,0,1.9,1.9h7.21A1.9,1.9,0,0,0,71,60.55l1.68-7.25A1.83,1.83,0,0,0,72,51.46h0a1.8,1.8,0,0,0-2.8,1l-1.3,4.76a1.43,1.43,0,0,1-1.38,1.06h-4.6A1.89,1.89,0,0,0,60,60.13Z"/><path class="cls-5" d="M68.75,38.47a2.69,2.69,0,0,0-5.31,0l-.38,2.31h6.07Z"/><path class="cls-3" d="M54,66.58V62a1.52,1.52,0,0,0-1.52-1.52H49.3l-1.42,6.07Z"/><path class="cls-6" d="M54,66.58V62a1.52,1.52,0,0,0-1.52-1.52H49.3l-1.42,6.07Z"/><path class="cls-3" d="M50.92,73.42a2.28,2.28,0,1,1-2.28-2.28A2.28,2.28,0,0,1,50.92,73.42Z"/><path class="cls-5" d="M25.11,39.26H32.7a0,0,0,0,1,0,0v7.09a.5.5,0,0,1-.5.5H25.61a.5.5,0,0,1-.5-.5V39.26a0,0,0,0,1,0,0Z"/><path class="cls-2" d="M76.72,40.78h-18a6.06,6.06,0,0,0-5.9,4.64L47.88,66.58"/><line class="cls-2" x1="75.2" y1="62.03" x2="75.2" y2="40.78"/><line class="cls-2" x1="41.81" y1="60.51" x2="22.07" y2="60.51"/><line class="cls-2" x1="66.1" y1="33.19" x2="66.1" y2="30.15"/><line class="cls-2" x1="71.41" y1="35.47" x2="74.04" y2="33.95"/><line class="cls-2" x1="60.78" y1="35.47" x2="58.15" y2="33.95"/><line class="cls-2" x1="52.43" y1="60.51" x2="55.47" y2="55.2"/><line class="cls-2" x1="57.75" y1="56.72" x2="53.19" y2="53.68"/><rect class="cls-2" x="19.04" y="39.26" width="19.73" height="18.22" rx="1.26" ry="1.26"/><path class="cls-4" d="M78.24,75.69a4.56,4.56,0,1,1-4.55-4.55A4.56,4.56,0,0,1,78.24,75.69Z"/><path class="cls-3" d="M67,70.24a3.11,3.11,0,0,1-2.18.9H55.05a6.37,6.37,0,0,1,0,4.55H69.13a4.56,4.56,0,0,1,4.56-4.55,4.45,4.45,0,0,1,1.51.28V62Z"/><path class="cls-4" d="M67,70.24a3.11,3.11,0,0,1-2.18.9H55.05a6.37,6.37,0,0,1,0,4.55H69.13a4.56,4.56,0,0,1,4.56-4.55,4.45,4.45,0,0,1,1.51.28V62Z"/><path class="cls-4" d="M55.47,73.42a6.83,6.83,0,1,1-6.83-6.84A6.83,6.83,0,0,1,55.47,73.42Z"/><path class="cls-4" d="M68.75,38.47a2.69,2.69,0,0,0-5.31,0l-.38,2.31h6.07Z"/><path class="cls-4" d="M50.92,73.42a2.28,2.28,0,1,1-2.28-2.28A2.28,2.28,0,0,1,50.92,73.42Z"/><path class="cls-3" d="M75.2,75.69a1.52,1.52,0,1,1-1.51-1.52A1.52,1.52,0,0,1,75.2,75.69Z"/><path class="cls-4" d="M75.2,75.69a1.52,1.52,0,1,1-1.51-1.52A1.52,1.52,0,0,1,75.2,75.69Z"/><path class="cls-2" d="M25.11,39.26H32.7a0,0,0,0,1,0,0v7.09a.5.5,0,0,1-.5.5H25.61a.5.5,0,0,1-.5-.5V39.26a0,0,0,0,1,0,0Z"/></g></g></svg>