<svg id="Duotone" xmlns="http://www.w3.org/2000/svg" viewBox="0 0 100 112"><defs>
<style>.cls-1{fill:none;}.cls-2,.cls-6{fill:none;}.cls-2,.cls-5,.cls-6{stroke:#999;}.cls-2,.cls-5{stroke-linecap:round;stroke-linejoin:round;}.cls-3{fill:none;}.cls-4,.cls-5{fill:none;}.cls-6{stroke-miterlimit:10;}</style>
</defs><title></title><g id="Icons">
<circle class="cls-1" cx="50.34" cy="56" r="40"/>
<g id="Scene">
<path class="cls-3" d="M29.18,51.68H49.91a0,0,0,0,1,0,0V70.52a0,0,0,0,1,0,0H28.18a0,0,0,0,1,0,0V52.68A1,1,0,0,1,29.18,51.68Z"/>
<path class="cls-3" d="M49.91,51.68H70.65a1,1,0,0,1,1,1V70.52a0,0,0,0,1,0,0H49.91a0,0,0,0,1,0,0V51.68A0,0,0,0,1,49.91,51.68Z"/><rect class="cls-4" x="65.85" y="73.41" width="7.24" height="5.8" transform="translate(138.95 152.62) rotate(180)"/><rect class="cls-4" x="45.56" y="73.41" width="7.24" height="5.8" transform="translate(98.37 152.62) rotate(180)"/><rect class="cls-2" x="65.85" y="73.41" width="7.24" height="5.8" transform="translate(138.95 152.62) rotate(180)"/><rect class="cls-2" x="45.56" y="73.41" width="7.24" height="5.8" transform="translate(98.37 152.62) rotate(180)"/><rect class="cls-4" x="25.28" y="73.41" width="7.24" height="5.8" transform="translate(57.8 152.62) rotate(180)"/><path class="cls-4" d="M36.87,51.68h4.35a0,0,0,0,1,0,0v9.64a.5.5,0,0,1-.5.5H37.37a.5.5,0,0,1-.5-.5V51.68A0,0,0,0,1,36.87,51.68Z"/><path class="cls-4" d="M58.61,51.68H63a0,0,0,0,1,0,0v9.64a.5.5,0,0,1-.5.5H59.11a.5.5,0,0,1-.5-.5V51.68A0,0,0,0,1,58.61,51.68Z"/><path class="cls-2" d="M58.61,51.68H63a0,0,0,0,1,0,0v9.64a.5.5,0,0,1-.5.5H59.11a.5.5,0,0,1-.5-.5V51.68A0,0,0,0,1,58.61,51.68Z"/><path class="cls-2" d="M29.18,51.68H49.91a0,0,0,0,1,0,0V70.52a0,0,0,0,1,0,0H28.18a0,0,0,0,1,0,0V52.68A1,1,0,0,1,29.18,51.68Z"/><path class="cls-2" d="M36.87,51.68h4.35a0,0,0,0,1,0,0v9.64a.5.5,0,0,1-.5.5H37.37a.5.5,0,0,1-.5-.5V51.68A0,0,0,0,1,36.87,51.68Z"/><path class="cls-2" d="M58.61,51.68H63a0,0,0,0,1,0,0v9.64a.5.5,0,0,1-.5.5H59.11a.5.5,0,0,1-.5-.5V51.68A0,0,0,0,1,58.61,51.68Z"/><path class="cls-2" d="M49.91,51.68H70.65a1,1,0,0,1,1,1V70.52a0,0,0,0,1,0,0H49.91a0,0,0,0,1,0,0V51.68A0,0,0,0,1,49.91,51.68Z"/><rect class="cls-2" x="25.28" y="73.41" width="7.24" height="5.8" transform="translate(57.8 152.62) rotate(180)"/><path class="cls-3" d="M43.67,31.39H63.4a1,1,0,0,1,1,1V51.68a0,0,0,0,1,0,0H42.67a0,0,0,0,1,0,0V32.39A1,1,0,0,1,43.67,31.39Z"/><path class="cls-3" d="M51.36,31.39h4.35a0,0,0,0,1,0,0V41a.5.5,0,0,1-.5.5H51.86a.5.5,0,0,1-.5-.5V31.39A0,0,0,0,1,51.36,31.39Z"/><path class="cls-5" d="M51.36,31.39h4.35a0,0,0,0,1,0,0V41a.5.5,0,0,1-.5.5H51.86a.5.5,0,0,1-.5-.5V31.39A0,0,0,0,1,51.36,31.39Z"/><path class="cls-2" d="M43.67,31.39H63.4a1,1,0,0,1,1,1V51.68a0,0,0,0,1,0,0H42.67a0,0,0,0,1,0,0V32.39A1,1,0,0,1,43.67,31.39Z"/><path class="cls-4" d="M74.54,70.52H23.83a1.45,1.45,0,1,0,0,2.89H74.54a1.45,1.45,0,1,0,0-2.89Z"/><path class="cls-6" d="M74.54,70.52H23.83a1.45,1.45,0,1,0,0,2.89H74.54a1.45,1.45,0,1,0,0-2.89Z"/><path class="cls-4" d="M74.54,79.21H23.83a1.45,1.45,0,1,0,0,2.9H74.54a1.45,1.45,0,0,0,0-2.9Z"/><path class="cls-2" d="M74.54,79.21H23.83a1.45,1.45,0,1,0,0,2.9H74.54a1.45,1.45,0,0,0,0-2.9Z"/></g></g></svg>