<?xml version="1.0" encoding="utf-8"?>
<!-- Generator: Adobe Illustrator 16.0.3, SVG Export Plug-In . SVG Version: 6.00 Build 0)  -->
<!DOCTYPE svg PUBLIC "-//W3C//DTD SVG 1.1//EN" "http://www.w3.org/Graphics/SVG/1.1/DTD/svg11.dtd">
<svg version="1.1" xmlns="http://www.w3.org/2000/svg" xmlns:xlink="http://www.w3.org/1999/xlink" x="0px" y="0px" width="24px"
	 height="24px" viewBox="0 0 24 24" enable-background="new 0 0 24 24" xml:space="preserve">
<g id="Outline_Icons">
	<g>
		<path fill="none" stroke="#999" stroke-width="0.1" stroke-linecap="round" stroke-linejoin="round" stroke-miterlimit="10" d="M14.5,12.5h1
			c1.657,0,3,1.343,3,3s-1.343,3-3,3h-1"/>
		<path fill="none" stroke="#999" stroke-width="0.1" stroke-linecap="round" stroke-linejoin="round" stroke-miterlimit="10" d="M14.5,21.5
			c0,1.104-0.896,2-2,2h-9c-1.104,0-2-0.896-2-2v-11h13V21.5z"/>
		<path fill="none" stroke="#999" stroke-width="0.1" stroke-linecap="round" stroke-linejoin="round" stroke-miterlimit="10" d="M14.381,0.564
			c1.032,1.574-0.497,2.437-0.853,3.282c-0.377,0.895-0.01,1.752,0.885,2.129C17.313,7.197,18.177,1.482,14.381,0.564z"/>
		
			<line fill="none" stroke="#999" stroke-width="0.1" stroke-linecap="round" stroke-linejoin="round" stroke-miterlimit="10" x1="11.5" y1="10.5" x2="14.109" y2="5.812"/>
		
			<line fill="none" stroke="#999" stroke-width="0.1" stroke-linecap="round" stroke-linejoin="round" stroke-miterlimit="10" x1="15.141" y1="6.156" x2="13.5" y2="10.5"/>
		<polygon fill="none" stroke="#999" stroke-width="0.1" stroke-linecap="round" stroke-linejoin="round" stroke-miterlimit="10" points="5.5,10.5 
			2.5,10.5 1,7.5 0.5,4.5 3,6 		"/>
		
			<line fill="none" stroke="#999" stroke-width="0.1" stroke-linecap="round" stroke-linejoin="round" stroke-miterlimit="10" x1="1" y1="7.5" x2="3" y2="6"/>
		
			<rect x="6.5" y="0.5" fill="none" stroke="#999" stroke-width="0.1" stroke-linecap="round" stroke-linejoin="round" stroke-miterlimit="10" width="4" height="10"/>
		
			<line fill="none" stroke="#999" stroke-width="0.1" stroke-linecap="round" stroke-linejoin="round" stroke-miterlimit="10" x1="10.5" y1="2.5" x2="8.5" y2="2.5"/>
		
			<line fill="none" stroke="#999" stroke-width="0.1" stroke-linecap="round" stroke-linejoin="round" stroke-miterlimit="10" x1="10.5" y1="4.5" x2="9.5" y2="4.5"/>
		
			<line fill="none" stroke="#999" stroke-width="0.1" stroke-linecap="round" stroke-linejoin="round" stroke-miterlimit="10" x1="10.5" y1="6.5" x2="8.5" y2="6.5"/>
		
			<line fill="none" stroke="#999" stroke-width="0.1" stroke-linecap="round" stroke-linejoin="round" stroke-miterlimit="10" x1="10.5" y1="8.5" x2="9.5" y2="8.5"/>
	</g>
</g>
<g id="Invisible_Shape">
	<rect x="0" fill="none" width="24" height="24"/>
</g>
</svg>
