<?xml version="1.0" encoding="utf-8"?>
<!-- Generator: Adobe Illustrator 16.0.3, SVG Export Plug-In . SVG Version: 6.00 Build 0)  -->
<!DOCTYPE svg PUBLIC "-//W3C//DTD SVG 1.1//EN" "http://www.w3.org/Graphics/SVG/1.1/DTD/svg11.dtd">
<svg version="1.1" xmlns="http://www.w3.org/2000/svg" xmlns:xlink="http://www.w3.org/1999/xlink" x="0px" y="0px" width="24px"
	 height="24px" viewBox="0 0 24 24" enable-background="new 0 0 24 24" xml:space="preserve">
<g id="Outline_Icons">
	<g>
		<path fill="none" stroke="#000000" stroke-linecap="round" stroke-linejoin="round" stroke-miterlimit="10" d="M6.487,15.445
			C3.794,11.137,6.889,5.5,12,5.5c5.135,0,8.205,5.672,5.503,9.959"/>
		<path fill="none" stroke="#000000" stroke-linecap="round" stroke-linejoin="round" stroke-miterlimit="10" d="M5.003,18.426
			C-0.537,12.395,3.697,2.5,12,2.5c8.273,0,12.539,9.848,7.023,15.896"/>
		<path fill="none" stroke="#000000" stroke-linejoin="round" stroke-miterlimit="10" d="M10.497,11.5c0-0.553,0.447-1,1-1
			s1,0.447,1,1v4.754l3.92,1.17c0.654,0.189,1.047,0.855,0.894,1.52c-0.13,0.563-0.746,4.002-0.85,4.576h-6.12L7.28,18.93
			c-1.215-1.857,1.836-2.502,3.217,0.59V11.5z"/>
	</g>
</g>
<g id="Invisible_Shape">
	<rect fill="none" width="24" height="24"/>
</g>
</svg>
