<?xml version="1.0" encoding="utf-8"?>
<!-- Generator: Adobe Illustrator 16.0.3, SVG Export Plug-In . SVG Version: 6.00 Build 0)  -->
<!DOCTYPE svg PUBLIC "-//W3C//DTD SVG 1.1//EN" "http://www.w3.org/Graphics/SVG/1.1/DTD/svg11.dtd">
<svg xmlns="http://www.w3.org/2000/svg" width="36" height="36" viewBox="0 0 36 36">
    <path fill="#fff" fill-rule="evenodd" d="M18.45 10c-3.15 0-5.94 1.695-7.38 4.281l-2.07-2.052v5.798h5.85l-2.52-2.498c1.17-2.23 3.42-3.746 6.12-3.746 3.69 0 6.75 3.033 6.75 6.69 0 3.657-3.06 6.69-6.75 6.69-2.97 0-5.4-1.873-6.39-4.46h-1.89c.99 3.568 4.32 6.244 8.28 6.244 4.77 0 8.55-3.835 8.55-8.474 0-4.638-3.87-8.474-8.55-8.474zm-1.35 4.46v4.549l4.23 2.498.72-1.16-3.6-2.141v-3.746h-1.35z"></path>
</svg>
