<svg id="Duotone" xmlns="http://www.w3.org/2000/svg" viewBox="0 0 100 112"><defs><style>.cls-1{fill:#f0f2ff;}.cls-2,.cls-5{fill:#fff;}.cls-3{fill:none;}.cls-3,.cls-5,.cls-6{stroke:#999;stroke-linecap:round;stroke-linejoin:round;}.cls-4,.cls-6{fill:#d6daff;}</style></defs><title></title><g id="Icons">
<g id="Icons-2" data-name="Icons">
<circle class="cls-1" cx="50" cy="56" r="40"/>
<path class="cls-2" d="M50,27.5l19.49,6.8a3,3,0,0,1,2,2.83V58C71.5,72.5,50,80.5,50,80.5S28.5,72.5,28.5,58V37.13a3,3,0,0,1,2-2.83Z"/><path class="cls-3" d="M50,27.5l19.49,6.8a3,3,0,0,1,2,2.83V58C71.5,72.5,50,80.5,50,80.5S28.5,72.5,28.5,58V37.13a3,3,0,0,1,2-2.83Z"/><circle class="cls-4" cx="50" cy="53" r="14.5"/><circle class="cls-3" cx="50" cy="53" r="14.5"/><rect class="cls-2" x="43.5" y="50.5" width="13" height="12" rx="1" ry="1"/><path class="cls-5" d="M55.5,48a5.5,5.5,0,0,0-11,0v2.5h3V48a2.5,2.5,0,0,1,5,0v2.5h3Z"/><rect class="cls-3" x="43.5" y="50.5" width="13" height="12" rx="1" ry="1"/><path class="cls-6" d="M51.5,56A1.5,1.5,0,1,0,49,57.11V58.5a1,1,0,0,0,2,0V57.11A1.5,1.5,0,0,0,51.5,56Z"/></g></g></svg>