<?xml version="1.0" encoding="utf-8"?>
<!-- Generator: Adobe Illustrator 16.0.3, SVG Export Plug-In . SVG Version: 6.00 Build 0)  -->
<!DOCTYPE svg PUBLIC "-//W3C//DTD SVG 1.1//EN" "http://www.w3.org/Graphics/SVG/1.1/DTD/svg11.dtd">
<svg version="1.1" xmlns="http://www.w3.org/2000/svg" xmlns:xlink="http://www.w3.org/1999/xlink" x="0px" y="0px" width="24px"
	 height="24px" viewBox="0 0 24 24" enable-background="new 0 0 24 24" xml:space="preserve">
<g id="Outline_Icons_1_">
	<g id="Outline_Icons">
		<g>
			<g>
				<path fill="none" stroke="#333" stroke-linecap="round" stroke-linejoin="round" stroke-miterlimit="10" d="M16.42,4.75
					c-0.74-0.452-2.053-0.794-2.92-1.002V0.5h-3v3.248C9.633,3.956,8.319,4.298,7.579,4.75L5.282,2.455L2.453,5.283L4.75,7.579
					C4.298,8.319,3.956,9.633,3.746,10.5H0.5v3h3.246c0.21,0.867,0.552,2.181,1.004,2.921l-2.297,2.297l2.829,2.828l2.296-2.297
					c0.741,0.454,2.055,0.795,2.922,1.005V23.5h3v-3.246c0.867-0.21,2.181-0.551,2.92-1.004l2.298,2.296l2.828-2.828l-2.296-2.297
					c0.452-0.74,0.794-2.054,1.004-2.921H23.5v-3h-3.247c-0.121-0.501-0.286-1.151-0.491-1.755"/>
			</g>
			<polyline fill="none" stroke="#333" stroke-linecap="round" stroke-linejoin="round" stroke-miterlimit="10" points="
				23.5,0.5 12,14.5 8,10 			"/>
		</g>
	</g>
	<g id="New_icons_1_">
	</g>
</g>
<g id="Invisible_Shape">
	<rect fill="none" width="24" height="24"/>
</g>
</svg>
