<svg id="Duotone"
	xmlns="http://www.w3.org/2000/svg" viewBox="0 0 178 178">
	<defs>
		<style>.cls-1{fill:#fff;}.cls-2,.cls-6{fill:#f0f2ff;}.cls-3,.cls-4{fill:#fff;}.cls-3,.cls-5,.cls-6{stroke:#999;stroke-linecap:round;stroke-linejoin:round;}.cls-5{fill:none;}.cls-7{fill:#ddd;}</style>
	</defs>
	<title></title>
	<g xmlns="http://www.w3.org/2000/svg" id="Icons">
		<g id="Background">
			<g id="New_Symbol_53-11" data-name="New Symbol 53">
				<circle class="cls-1" cx="89" cy="88.87" r="81"/>
			</g>
		</g>
    
		<g id="Scene">
    <circle xmlns="http://www.w3.org/2000/svg" class="cls-1" cx="50.34" cy="56" r="40"/>
			<path class="cls-2" d="M94.31,43h29.92A4.72,4.72,0,0,1,129,47.72V95a4.73,4.73,0,0,1-4.73,4.73H94.31A4.73,4.73,0,0,1,89.59,95V47.72A4.73,4.73,0,0,1,94.31,43Z" transform="translate(21.41 167.83) rotate(-80.82)"/>
			<path class="cls-3" d="M144.75,30.46,86.25,21a4,4,0,0,0-4.52,3.26h0L148,35h0A3.94,3.94,0,0,0,144.75,30.46Z"/>
			<path class="cls-2" d="M135.64,54.52,87.31,46.7a3.15,3.15,0,0,1-2.61-2.63l-3-19.56a.79.79,0,0,1,.91-.9l64.72,10.46a.79.79,0,0,1,.58,1.14l-9,17.63A3.15,3.15,0,0,1,135.64,54.52Z"/>
			<path class="cls-4" d="M87.31,46.7l8.62,1.4,25.29-18.25L82.64,23.61a.79.79,0,0,0-.91.9l3,19.56A3.15,3.15,0,0,0,87.31,46.7Z"/>
			<path class="cls-5" d="M135.64,54.52,87.31,46.7a3.15,3.15,0,0,1-2.61-2.63l-3-19.56a.79.79,0,0,1,.91-.9l64.72,10.46a.79.79,0,0,1,.58,1.14l-9,17.63A3.15,3.15,0,0,1,135.64,54.52Z"/>
			<path class="cls-3" d="M94.54,40.15h28.35a4.72,4.72,0,0,1,4.72,4.72V90.55a4.72,4.72,0,0,1-4.72,4.72H94.54a4.73,4.73,0,0,1-4.73-4.73V44.88A4.72,4.72,0,0,1,94.54,40.15Z" transform="translate(24.52 164.22) rotate(-80.82)"/>
			<rect class="cls-6" x="109.9" y="29.35" width="3.15" height="42.53" transform="translate(43.72 152.58) rotate(-80.82)"/>
			<rect class="cls-5" x="108.08" y="30.9" width="6.3" height="42.52" transform="matrix(0.16, -0.99, 0.99, 0.16, 41.98, 153.64)"/>
			<path class="cls-6" d="M104.49,43.34h9.45a1.58,1.58,0,0,1,1.58,1.58V84.29a1.58,1.58,0,0,1-1.58,1.58h-9.45a1.57,1.57,0,0,1-1.57-1.57V44.92a1.58,1.58,0,0,1,1.58-1.58Z" transform="translate(28.01 162.11) rotate(-80.82)"/>
			<line class="cls-5" x1="91.61" y1="64.95" x2="94.72" y2="65.45"/>
			<line class="cls-5" x1="97.83" y1="65.95" x2="119.6" y2="69.47"/>
			<line class="cls-5" x1="122.71" y1="69.98" x2="125.82" y2="70.48"/>
			<line class="cls-5" x1="92.11" y1="61.84" x2="95.22" y2="62.34"/>
			<line class="cls-5" x1="98.33" y1="62.84" x2="101.44" y2="63.35"/>
			<line class="cls-5" x1="104.55" y1="63.85" x2="107.66" y2="64.35"/>
			<line class="cls-5" x1="110.77" y1="64.85" x2="113.88" y2="65.36"/>
			<line class="cls-5" x1="116.99" y1="65.86" x2="120.1" y2="66.36"/>
			<line class="cls-5" x1="123.21" y1="66.87" x2="126.32" y2="67.37"/>
			<line class="cls-5" x1="92.62" y1="58.73" x2="95.72" y2="59.23"/>
			<line class="cls-5" x1="98.83" y1="59.73" x2="101.94" y2="60.24"/>
			<line class="cls-5" x1="105.05" y1="60.74" x2="108.16" y2="61.24"/>
			<line class="cls-5" x1="111.27" y1="61.75" x2="114.38" y2="62.25"/>
			<line class="cls-5" x1="117.49" y1="62.75" x2="120.6" y2="63.25"/>
			<line class="cls-5" x1="123.71" y1="63.76" x2="126.82" y2="64.26"/>
			<path class="cls-6" d="M103.8,71.51h6.3a1.58,1.58,0,0,1,1.58,1.58v11a1.57,1.57,0,0,1-1.57,1.57h-6.3a1.58,1.58,0,0,1-1.58-1.58v-11A1.58,1.58,0,0,1,103.8,71.51Z" transform="translate(12.29 171.63) rotate(-80.82)"/>
			<path class="cls-2" d="M153.89,87.65A7.16,7.16,0,0,0,145,92.57l-2.46,8.62a7.16,7.16,0,1,0,13.78,3.93l2.46-8.61A7.17,7.17,0,0,0,153.89,87.65Z"/>
			<path class="cls-4" d="M152.84,86.19a6.3,6.3,0,0,0-7.79,4.33l-2.16,7.57A6.3,6.3,0,1,0,155,101.55L157.17,94A6.31,6.31,0,0,0,152.84,86.19Z"/>
			<path class="cls-7" d="M151.32,90.92a.41.41,0,0,1,.16,0,.59.59,0,0,1,.35.27.61.61,0,0,1,0,.44.58.58,0,0,1-.55.42l-.16,0a.59.59,0,0,1-.4-.72.58.58,0,0,1,.55-.41m0-1a1.58,1.58,0,0,0-.43,3.09,1.67,1.67,0,0,0,.44.06,1.58,1.58,0,0,0,.43-3.09,1.67,1.67,0,0,0-.44-.06Z"/>
			<path class="cls-5" d="M152.84,86.19a6.3,6.3,0,0,0-7.79,4.33l-2.16,7.57A6.3,6.3,0,1,0,155,101.55L157.17,94A6.31,6.31,0,0,0,152.84,86.19Z"/>
			<path class="cls-2" d="M142.1,120.33a1.56,1.56,0,0,0-1.74-1.39l-1.56.17-1.4-12.52a1.58,1.58,0,0,0-1.74-1.39l-54.79,6.13a1.58,1.58,0,0,0-1.39,1.74l-1.56.17A1.57,1.57,0,0,0,76.53,115l1.22,11a1.57,1.57,0,0,0,1.74,1.39l1.57-.17,2.1,18.78a1.57,1.57,0,0,0,1.74,1.39l24.23-2.71-6.9,8.07a1.57,1.57,0,0,0,.17,2.22l1.8,1.53a1.57,1.57,0,0,0,2.22-.17l10.73-12.55,22.53-2.52a1.57,1.57,0,0,0,1.39-1.74l-.7-6.26,1.57-.17a1.59,1.59,0,0,0,1.39-1.75Z"/>
			<path class="cls-3" d="M83.66,109.05h23.62a1.57,1.57,0,0,1,1.57,1.57v31.5a1.58,1.58,0,0,1-1.58,1.58H83.66a1.58,1.58,0,0,1-1.58-1.58v-31.5a1.58,1.58,0,0,1,1.58-1.58Z" transform="translate(-14.25 12.15) rotate(-6.78)"/>
			<path class="cls-3" d="M113.37,105.52H137a1.58,1.58,0,0,1,1.58,1.58v31.5a1.57,1.57,0,0,1-1.57,1.57H113.37a1.57,1.57,0,0,1-1.57-1.57v-31.5a1.58,1.58,0,0,1,1.58-1.58Z" transform="translate(-13.62 15.63) rotate(-6.78)"/>
			<line class="cls-5" x1="105.71" y1="112.47" x2="111.97" y2="111.73"/>
			<line class="cls-5" x1="106.27" y1="117.16" x2="112.53" y2="116.42"/>
			<line class="cls-5" x1="106.83" y1="121.85" x2="113.08" y2="121.11"/>
			<line class="cls-5" x1="107.38" y1="126.55" x2="113.64" y2="125.8"/>
			<line class="cls-5" x1="107.94" y1="131.24" x2="114.2" y2="130.49"/>
			<line class="cls-5" x1="108.5" y1="135.93" x2="114.76" y2="135.19"/>
			<path class="cls-6" d="M77.93,118.94l3.13-.37-.74-6.25-1.57.18a1.58,1.58,0,0,0-1.38,1.75Z"/>
			<path class="cls-6" d="M78.49,123.64A1.57,1.57,0,0,0,80.24,125l1.56-.18-.74-6.26-3.13.37Z"/>
			<path class="cls-6" d="M138.85,124.39,142,124l-.56-4.69a1.58,1.58,0,0,0-1.75-1.38l-1.56.19Z"/>
			<path class="cls-6" d="M139.59,130.65l1.57-.19a1.58,1.58,0,0,0,1.05-.59,1.56,1.56,0,0,0,.33-1.16L142,124l-3.13.37Z"/>
			<path class="cls-5" d="M85.44,112.75h9.45a1.57,1.57,0,0,1,1.57,1.57v1.58a1.57,1.57,0,0,1-1.57,1.57H85.44a1.58,1.58,0,0,1-1.58-1.58v-1.57A1.58,1.58,0,0,1,85.44,112.75Z" transform="translate(-12.96 11.45) rotate(-6.78)"/>
			<line class="cls-5" x1="87.69" y1="120.96" x2="103.33" y2="119.1"/>
			<line class="cls-5" x1="84.93" y1="124.46" x2="103.7" y2="122.23"/>
			<line class="cls-5" x1="85.3" y1="127.58" x2="104.07" y2="125.35"/>
			<rect class="cls-5" x="86.66" y="136.39" width="9.45" height="4.73" rx="1.58" ry="1.58" transform="translate(-15.74 11.76) rotate(-6.78)"/>
			<path class="cls-5" d="M100.39,128.81h3.15a1.57,1.57,0,0,1,1.57,1.57v7.88a1.58,1.58,0,0,1-1.58,1.58h-3.15a1.57,1.57,0,0,1-1.57-1.57v-7.88a1.58,1.58,0,0,1,1.58-1.58Z" transform="translate(-15.14 12.97) rotate(-6.78)"/>
			<line class="cls-5" x1="85.67" y1="130.71" x2="95.06" y2="129.6"/>
			<line class="cls-5" x1="86.05" y1="133.84" x2="95.43" y2="132.72"/>
			<path class="cls-5" d="M115.28,112.92a3.15,3.15,0,1,0,2.76-3.5A3.14,3.14,0,0,0,115.28,112.92Z"/>
			<path class="cls-5" d="M117.88,134.81a3.15,3.15,0,1,0,2.76-3.5A3.15,3.15,0,0,0,117.88,134.81Z"/>
			<path class="cls-5" d="M118,120.26h4.73a1.57,1.57,0,0,1,1.57,1.57v1.58a1.57,1.57,0,0,1-1.57,1.57H118a1.57,1.57,0,0,1-1.57-1.57v-1.57a1.58,1.58,0,0,1,1.58-1.58Z" transform="translate(-13.63 15.07) rotate(-6.78)"/>
			<line class="cls-5" x1="118.78" y1="115.67" x2="119.34" y2="120.37"/>
			<line class="cls-5" x1="119.9" y1="125.06" x2="120.64" y2="131.31"/>
			<polyline class="cls-5" points="121.54 112.17 130.92 111.06 131.66 117.32"/>
			<path class="cls-5" d="M135.16,120.07a3.15,3.15,0,1,1-3.5-2.75A3.14,3.14,0,0,1,135.16,120.07Z"/>
			<path class="cls-2" d="M137.66,127.71a1.59,1.59,0,0,1-1.38,1.75l-6.26.74a1.59,1.59,0,0,1-1.75-1.38h0a1.58,1.58,0,0,1,1.38-1.75l6.26-.74a1.57,1.57,0,0,1,1.75,1.38Z"/>
			<line class="cls-5" x1="129.84" y1="128.64" x2="136.09" y2="127.89"/>
			<line class="cls-5" x1="127.08" y1="132.14" x2="136.47" y2="131.02"/>
			<line class="cls-5" x1="130.58" y1="134.89" x2="136.84" y2="134.15"/>

			<path class="cls-4" d="M106.2,153.14a1.59,1.59,0,0,1-2.23.14l-1.18-1a1.57,1.57,0,0,1-.14-2.22l16.64-18.93a1.6,1.6,0,0,1,1.08-.53,1.57,1.57,0,0,1,1.14.39l1.18,1a1.57,1.57,0,0,1,.15,2.22Z"/>
			<line class="cls-5" x1="107.85" y1="144.1" x2="111.4" y2="147.22"/>
			<path class="cls-5" d="M102.65,150a3.15,3.15,0,0,1-.29-4.45l6.24-7.09"/>
			<path class="cls-2" d="M125.44,131.26a2.36,2.36,0,0,1-3.55-3.12c.86-1,4.37-1.4,4.37-1.4S126.3,130.28,125.44,131.26Z"/>
			<path class="cls-5" d="M125.44,131.26a2.36,2.36,0,0,1-3.55-3.12c.86-1,4.37-1.4,4.37-1.4S126.3,130.28,125.44,131.26Z"/>
			<path class="cls-5" d="M106.2,153.14a1.59,1.59,0,0,1-2.23.14l-1.18-1a1.57,1.57,0,0,1-.14-2.22l16.64-18.93a1.6,1.6,0,0,1,1.08-.53,1.57,1.57,0,0,1,1.14.39l1.18,1a1.57,1.57,0,0,1,.15,2.22Z"/>
		</g>
	</g>
</svg>