<svg id="Duotone" xmlns="http://www.w3.org/2000/svg" viewBox="0 0 100 112"><defs><style>.cls-1{fill:#f0f2ff;}.cls-2{fill:none;stroke:#999;stroke-linecap:round;stroke-linejoin:round;}.cls-3{fill:#fff;}.cls-4{fill:#fff;}.cls-5{fill:#fff;}</style></defs><title></title><g id="Icons">
<g id="Background"><circle class="cls-1" cx="50.34" cy="56" r="40"/></g>
<g id="Scene"><path class="cls-3" d="M78.74,71.77a1.38,1.38,0,0,1-1.38,1.39H73.88a1.5,1.5,0,0,1-1.48-1.28,9,9,0,0,0-8.93-7.74l7.67-17.26a2.5,2.5,0,0,1,2.29-1.49h2.81a2.5,2.5,0,0,1,2.5,2.5Z"/><path class="cls-4" d="M73.88,73.16a1.5,1.5,0,0,1-1.48-1.28,9,9,0,0,0-8.93-7.74H44a9,9,0,0,0-8.16,5.17,1.44,1.44,0,0,0-.07,1L37.28,75a1.4,1.4,0,0,0,1.33,1H76a1.39,1.39,0,0,0,0-2.78Z"/><path class="cls-4" d="M56.12,55.82a6.37,6.37,0,0,0-3.52,2.76H65.94l3-6.69Z"/><path class="cls-3" d="M37.74,76.42a1.76,1.76,0,0,1-1.67,2.3H17.65a1.39,1.39,0,0,1-1.39-1.39,2.73,2.73,0,0,1,1.12-2.2l13.88-10a2.1,2.1,0,0,1,3.23,1.07Z"/><path class="cls-3" d="M51.71,61.36a4.21,4.21,0,0,0,0,.5v2.28h11.8l1.23-2.78Z"/><path class="cls-3" d="M51.71,61.36h13l1.24-2.78H52.6A6.37,6.37,0,0,0,51.71,61.36Z"/><path class="cls-3" d="M42,37.06H62a2.59,2.59,0,0,1,2.46,1.77l3.22,9.66,2.7-.67L67.08,38A5.36,5.36,0,0,0,62,34.28H42a1.39,1.39,0,0,0,0,2.78Z"/><path class="cls-3" d="M67.67,48.49l-3.22-9.66A2.59,2.59,0,0,0,62,37.06H45.42L42.54,54.87a13.28,13.28,0,0,1,2.2-.76Z"/><path class="cls-4" d="M45.42,37.06,42.54,54.87l.56-.22L60.69,37.06Z"/><path class="cls-3" d="M70.76,47.73l-26,6.38A12.78,12.78,0,0,0,35,66.52v1.29l.65,2A9,9,0,0,1,44,64.14h7.64V61.86a6.32,6.32,0,0,1,4.45-6l12.79-3.93Z"/><path class="cls-2" d="M73.88,73.16a1.5,1.5,0,0,1-1.48-1.28,9,9,0,0,0-8.93-7.74H44a9,9,0,0,0-8.16,5.17,1.44,1.44,0,0,0-.07,1L37.28,75a1.4,1.4,0,0,0,1.33,1H76a1.39,1.39,0,0,0,0-2.78Z"/><path class="cls-2" d="M56.12,55.82a6.37,6.37,0,0,0-3.52,2.76H65.94l3-6.69Z"/><path class="cls-2" d="M37.74,76.42a1.76,1.76,0,0,1-1.67,2.3H17.65a1.39,1.39,0,0,1-1.39-1.39,2.73,2.73,0,0,1,1.12-2.2l13.88-10a2.1,2.1,0,0,1,3.23,1.07Z"/><path class="cls-2" d="M51.71,61.36a4.21,4.21,0,0,0,0,.5v2.28h11.8l1.23-2.78Z"/><path class="cls-2" d="M51.71,61.36h13l1.24-2.78H52.6A6.37,6.37,0,0,0,51.71,61.36Z"/><path class="cls-2" d="M42,37.06H62a2.59,2.59,0,0,1,2.46,1.77l3.22,9.66,2.7-.67L67.08,38A5.36,5.36,0,0,0,62,34.28H42a1.39,1.39,0,0,0,0,2.78Z"/><path class="cls-2" d="M67.67,48.49l-3.22-9.66A2.59,2.59,0,0,0,62,37.06H45.42L42.54,54.87a13.28,13.28,0,0,1,2.2-.76Z"/><path class="cls-2" d="M70.76,47.73l-26,6.38A12.78,12.78,0,0,0,35,66.52v1.29l.65,2A9,9,0,0,1,44,64.14h7.64V61.86a6.32,6.32,0,0,1,4.45-6l12.79-3.93Z"/><path class="cls-2" d="M78.74,71.77a1.38,1.38,0,0,1-1.38,1.39H73.88a1.5,1.5,0,0,1-1.48-1.28,9,9,0,0,0-8.93-7.74l7.67-17.26a2.5,2.5,0,0,1,2.29-1.49h2.81a2.5,2.5,0,0,1,2.5,2.5Z"/><circle class="cls-3" cx="45.42" cy="73.16" r="5.55"/><circle class="cls-4" cx="45.42" cy="73.16" r="2.78"/><circle class="cls-2" cx="45.42" cy="73.16" r="5.55"/><circle class="cls-2" cx="45.42" cy="73.16" r="2.78"/><path class="cls-5" d="M45.42,71.08a.7.7,0,1,0,.69.69.69.69,0,0,0-.69-.69Z"/><path class="cls-5" d="M44,72.47a.7.7,0,1,0,.69.69.69.69,0,0,0-.69-.69Z"/><path class="cls-5" d="M46.81,72.47a.7.7,0,1,0,.69.69.69.69,0,0,0-.69-.69Z"/><path class="cls-5" d="M45.42,73.86a.7.7,0,1,0,.69.69.69.69,0,0,0-.69-.69Z"/><circle class="cls-3" cx="62.08" cy="73.16" r="5.55"/><circle class="cls-4" cx="62.08" cy="73.16" r="2.78"/><circle class="cls-2" cx="62.08" cy="73.16" r="5.55"/><circle class="cls-2" cx="62.08" cy="73.16" r="2.78"/><path class="cls-5" d="M62.08,71.08a.7.7,0,1,0,.69.69.69.69,0,0,0-.69-.69Z"/><path class="cls-5" d="M60.69,72.47a.7.7,0,1,0,.7.69.69.69,0,0,0-.7-.69Z"/><path class="cls-5" d="M63.47,72.47a.7.7,0,1,0,.69.69.69.69,0,0,0-.69-.69Z"/><path class="cls-5" d="M62.08,73.86a.7.7,0,1,0,.69.69.69.69,0,0,0-.69-.69Z"/></g></g></svg>