<?xml version="1.0" encoding="utf-8"?>
<!-- Generator: Adobe Illustrator 16.0.3, SVG Export Plug-In . SVG Version: 6.00 Build 0)  -->
<!DOCTYPE svg PUBLIC "-//W3C//DTD SVG 1.1//EN" "http://www.w3.org/Graphics/SVG/1.1/DTD/svg11.dtd">
<svg version="1.1" xmlns="http://www.w3.org/2000/svg" xmlns:xlink="http://www.w3.org/1999/xlink" x="0px" y="0px" width="24px"
	 height="24px" viewBox="0 0 24 24" enable-background="new 0 0 24 24" xml:space="preserve">
<g id="Outline_Icons">
	<g>
		<path fill="none" stroke="#999" stroke-linejoin="round" stroke-miterlimit="10" d="M23.5,20c0,1.934-1.566,3.5-3.5,3.5H4
			c-1.933,0-3.5-1.566-3.5-3.5c0-1.933,1.567-3.5,3.5-3.5h16C21.934,16.5,23.5,18.067,23.5,20z"/>
		<path fill="none" stroke="#999" stroke-linejoin="round" stroke-miterlimit="10" d="M7.847,16.5l2.944-5.167
			c1.792-3.143,1.804-6.995,0.03-10.147L1.354,17.688"/>
		
			<line fill="none" stroke="#999" stroke-linecap="round" stroke-linejoin="round" stroke-miterlimit="10" x1="9.79" y1="6.907" x2="7.046" y2="11.721"/>
		<circle fill="none" stroke="#999" stroke-linejoin="round" stroke-miterlimit="10" cx="5" cy="20" r="1.5"/>
		<circle fill="none" stroke="#999" stroke-linejoin="round" stroke-miterlimit="10" cx="19" cy="20" r="1.5"/>
		<path fill="none" stroke="#999" stroke-linecap="round" stroke-linejoin="round" stroke-miterlimit="10" d="M22.5,17.584V7.5
			c0-1.104-0.896-2-2-2s-2,0.896-2,2v0.051c1.141,0.232,2,1.239,2,2.449c0,1.209-0.859,2.218-2,2.45v4.05"/>
	</g>
</g>
<g id="invisible_shape">
	<rect fill="none" width="24" height="24"/>
</g>
</svg>
