<svg id="Duotone" xmlns="http://www.w3.org/2000/svg" viewBox="0 0 100 112"><defs><style>.cls-1{fill:#f0f2ff;}.cls-2{fill:#fff;}.cls-3,.cls-5{fill:none;stroke:#999;stroke-linejoin:round;}.cls-4{fill:#d6daff;}.cls-5{stroke-linecap:round;}</style></defs><title></title><g id="Icons"><g id="Background"><circle class="cls-1" cx="50.34" cy="56" r="40"/></g><g id="Scene"><path class="cls-2" d="M57.9,35.2a1.16,1.16,0,0,1,2,.83v4.56A3.45,3.45,0,0,0,64,44a3.53,3.53,0,0,0,2.76-3.51V36a1.16,1.16,0,0,1,1.94-.85,8,8,0,0,1,2.66,6.27,8.15,8.15,0,0,1-7.91,7.75,7.74,7.74,0,0,1-2.51-.36L36.25,73.54a2.31,2.31,0,0,1-3.26,0l-.81-.81a2.29,2.29,0,0,1,0-3.25L56.39,45.27A8,8,0,0,1,57.9,35.2Z"/><path class="cls-3" d="M57.9,35.2a1.16,1.16,0,0,1,2,.83v4.56A3.45,3.45,0,0,0,64,44a3.53,3.53,0,0,0,2.76-3.51V36a1.16,1.16,0,0,1,1.94-.85,8,8,0,0,1,2.66,6.27,8.15,8.15,0,0,1-7.91,7.75,7.74,7.74,0,0,1-2.51-.36L36.25,73.54a2.31,2.31,0,0,1-3.26,0l-.81-.81a2.29,2.29,0,0,1,0-3.25L56.39,45.27A8,8,0,0,1,57.9,35.2Z"/><path class="cls-4" d="M59.13,58.49h.54a1.41,1.41,0,0,1,1,.41l9.6,9.59c1.33,1.34.47,4.36-.87,5.7h0c-1.33,1.33-4.53,2.36-5.86,1l-9.6-9.6a1.39,1.39,0,0,1-.41-1V64.1a2.32,2.32,0,0,1,.68-1.63l3.31-3.31A2.29,2.29,0,0,1,59.13,58.49Z"/><path class="cls-3" d="M59.13,58.49h.54a1.41,1.41,0,0,1,1,.41l9.6,9.59c1.33,1.34.47,4.36-.87,5.7h0c-1.33,1.33-4.53,2.36-5.86,1l-9.6-9.6a1.39,1.39,0,0,1-.41-1V64.1a2.32,2.32,0,0,1,.68-1.63l3.31-3.31A2.29,2.29,0,0,1,59.13,58.49Z"/><path class="cls-4" d="M53.66,63.32a2.28,2.28,0,0,1,.54-.85l3.31-3.31a2.28,2.28,0,0,1,.86-.54l-.19-.13L56.07,56.8A3.26,3.26,0,0,1,54.85,54a1.73,1.73,0,0,0-.38-.62,1.6,1.6,0,0,0-2.24,0l-3.8,3.81a1.57,1.57,0,0,0,0,2.23,1.38,1.38,0,0,0,.62.38A3.32,3.32,0,0,1,51.84,61l1.68,2.11Z"/><path class="cls-2" d="M28.31,36.25,30.65,40a2.78,2.78,0,0,0,1.23,1.07l1.51.79a3.38,3.38,0,0,1,.84.62L48.69,56.94,52,53.66,37.51,39.2a3.26,3.26,0,0,1-.62-.85l-.79-1.51A2.78,2.78,0,0,0,35,35.61l-3.74-2.34a1.57,1.57,0,0,0-1.93.22l-.84.83A1.56,1.56,0,0,0,28.31,36.25Z"/><path class="cls-3" d="M28.31,36.25,30.65,40a2.78,2.78,0,0,0,1.23,1.07l1.51.79a3.38,3.38,0,0,1,.84.62L48.69,56.94,52,53.66,37.51,39.2a3.26,3.26,0,0,1-.62-.85l-.79-1.51A2.78,2.78,0,0,0,35,35.61l-3.74-2.34a1.57,1.57,0,0,0-1.93.22l-.84.83A1.56,1.56,0,0,0,28.31,36.25Z"/><line class="cls-5" x1="65.94" y1="72.81" x2="56.97" y2="63.84"/><line class="cls-5" x1="68.01" y1="70.74" x2="59.04" y2="61.77"/><path class="cls-5" d="M53.66,63.32a2.28,2.28,0,0,1,.54-.85l3.31-3.31a2.28,2.28,0,0,1,.86-.54l-.19-.13L56.07,56.8A3.26,3.26,0,0,1,54.85,54a1.73,1.73,0,0,0-.38-.62,1.6,1.6,0,0,0-2.24,0l-3.8,3.81a1.57,1.57,0,0,0,0,2.23,1.38,1.38,0,0,0,.62.38A3.32,3.32,0,0,1,51.84,61l1.68,2.11Z"/></g></g></svg>