<svg id="Duotone" xmlns="http://www.w3.org/2000/svg" viewBox="0 0 100 112">
<defs>
<style>.cls-2{fill:none;}.cls-3{fill:none;}.cls-3,.cls-4{stroke:#ddd;stroke-linecap:round;stroke-linejoin:round;}.cls-4,.cls-5{fill:none;}</style></defs><title></title>
<g id="Icons">
<g id="Icons-2" data-name="Icons">
<path class="cls-2" d="M37.35,56.93A12.65,12.65,0,0,1,50,44.28a6,6,0,1,0-6-6.09,3.37,3.37,0,0,1-3,3.33,3.31,3.31,0,0,1-3.59-3.29A12.65,12.65,0,0,1,50.24,25.58,12.93,12.93,0,0,1,62.65,38.65V78.38a4.4,4.4,0,0,1-4.4,4.4H41.75a4.4,4.4,0,0,1-4.4-4.4Z"/>
<path class="cls-3" d="M37.35,56.93A12.65,12.65,0,0,1,50,44.28a6,6,0,1,0-6-6.09,3.37,3.37,0,0,1-3,3.33,3.31,3.31,0,0,1-3.59-3.29A12.65,12.65,0,0,1,50.24,25.58,12.93,12.93,0,0,1,62.65,38.65V78.38a4.4,4.4,0,0,1-4.4,4.4H41.75a4.4,4.4,0,0,1-4.4-4.4Z"/>
<rect class="cls-4" x="41.75" y="62.98" width="16.5" height="15.4" rx="2.2" ry="2.2"/>
<line class="cls-3" x1="45.05" y1="67.38" x2="54.95" y2="67.38"/>
<line class="cls-3" x1="46.15" y1="70.68" x2="53.85" y2="70.68"/>
<line class="cls-3" x1="45.05" y1="73.98" x2="54.95" y2="73.98"/>
</g></g>
</svg>